<?xml version="1.0" encoding="UTF-8"?><svg id="uuid-62458b16-c4dc-4c89-83bd-481f28dc5e60" xmlns="http://www.w3.org/2000/svg" width="64" height="45" viewBox="0 0 64 45"><rect width="64" height="45" style="fill:#ddd; stroke-width:0px;"/><rect x="4" y="16.5" width="40" height="24" style="fill:#333; stroke-width:0px;"/><rect x="6" y="32.5" width="10.28571" height="6" style="fill:#5c5c5c; stroke-width:0px;"/><rect x="18.85714" y="32.5" width="10.28571" height="6" style="fill:#2581c4; stroke-width:0px;"/><rect x="31.71429" y="32.5" width="10.28571" height="6" style="fill:#1a936f; stroke-width:0px;"/><path d="m6.24609,21.03027c.11621.07129.28564.13086.46436.13086.26465,0,.41943-.13965.41943-.34229,0-.18701-.10742-.29443-.37793-.39844-.32715-.11621-.52979-.28564-.52979-.56836,0-.3125.25879-.54443.64893-.54443.20508,0,.354.04736.44336.09814l-.07178.21143c-.06543-.03613-.19922-.09521-.38086-.09521-.27344,0-.37744.16357-.37744.30029,0,.1875.12158.27979.39844.38672.33936.13086.51172.29443.51172.58936,0,.30908-.229.57715-.70215.57715-.19336,0-.40479-.05664-.51172-.12793l.06543-.21729Z" style="fill:#fff; stroke-width:0px;"/><path d="m7.90332,20.67334c.00635.354.23242.5.49414.5.1875,0,.30029-.03271.39893-.07471l.04443.1875c-.09229.0415-.25.08936-.479.08936-.44336,0-.70801-.2915-.70801-.72607s.25586-.77637.67529-.77637c.47021,0,.59521.41357.59521.67822,0,.05371-.00635.09521-.00928.12207h-1.01172Zm.76807-.1875c.00293-.1665-.06885-.42529-.36328-.42529-.26465,0-.38086.24365-.40137.42529h.76465Z" style="fill:#fff; stroke-width:0px;"/><path d="m9.24805,20.35498c0-.16992-.00293-.31543-.01221-.44922h.22949l.00879.28271h.01172c.06543-.19385.22314-.31543.39893-.31543.02979,0,.05078.00293.07422.00879v.24707c-.02686-.00635-.05322-.00928-.08936-.00928-.18408,0-.31494.14014-.35107.33643-.00586.03564-.01172.07715-.01172.12207v.76758h-.25879v-.99072Z" style="fill:#fff; stroke-width:0px;"/><path d="m10.39648,19.90576l.28271.80908c.04736.13086.08643.25.11621.36914h.00879c.03271-.11914.07422-.23828.12207-.36914l.27979-.80908h.27344l-.56543,1.43994h-.25l-.54736-1.43994h.27979Z" style="fill:#fff; stroke-width:0px;"/><path d="m12.01807,19.50098c.00293.08936-.0625.16064-.1665.16064-.09229,0-.15771-.07129-.15771-.16064,0-.09229.06836-.16357.16357-.16357.09814,0,.16064.07129.16064.16357Zm-.2915,1.84473v-1.43994h.26172v1.43994h-.26172Z" style="fill:#fff; stroke-width:0px;"/><path d="m13.44922,21.29199c-.06836.03564-.22021.0835-.41357.0835-.43457,0-.7168-.29443-.7168-.73486,0-.44336.30322-.76465.77344-.76465.15479,0,.2915.03857.36279.07422l-.05957.20215c-.06201-.03564-.16064-.06836-.30322-.06836-.33008,0-.50879.24414-.50879.54443,0,.3335.21436.53857.5.53857.14844,0,.24658-.03857.32129-.07129l.04443.19629Z" style="fill:#fff; stroke-width:0px;"/><path d="m13.8833,20.67334c.00635.354.23242.5.49414.5.1875,0,.30029-.03271.39893-.07471l.04443.1875c-.09229.0415-.25.08936-.479.08936-.44336,0-.70801-.2915-.70801-.72607s.25586-.77637.67529-.77637c.47021,0,.59521.41357.59521.67822,0,.05371-.00635.09521-.00928.12207h-1.01172Zm.76807-.1875c.00293-.1665-.06885-.42529-.36328-.42529-.26465,0-.38086.24365-.40137.42529h.76465Z" style="fill:#fff; stroke-width:0px;"/><path d="m15.19287,21.07812c.07715.05029.21387.104.34521.104.19043,0,.2793-.09521.2793-.21436,0-.125-.07422-.19336-.26758-.26465-.25879-.09229-.38086-.23535-.38086-.40771,0-.23193.1875-.42236.49707-.42236.14551,0,.27344.0415.354.08887l-.06543.19043c-.05664-.03564-.16064-.08301-.29492-.08301-.1543,0-.24072.08936-.24072.19629,0,.11914.08643.17236.27344.24414.25.09521.37793.22021.37793.43408,0,.25293-.19629.43164-.53857.43164-.15771,0-.30322-.03857-.4043-.09814l.06543-.19922Z" style="fill:#fff; stroke-width:0px;"/><path d="m17.14111,19.90576l.19043.73193c.0415.16064.08057.30908.10693.45801h.00928c.03271-.14551.08008-.30029.12793-.45508l.23486-.73486h.22021l.22314.71973c.05371.17285.09521.32471.12793.47021h.00879c.02393-.14551.0625-.29736.11035-.46729l.20508-.72266h.25928l-.46436,1.43994h-.23828l-.21973-.6875c-.05078-.16064-.09229-.30322-.12793-.47314h-.00635c-.03564.17285-.08008.32178-.13086.47607l-.23193.68457h-.23828l-.43408-1.43994h.26758Z" style="fill:#fff; stroke-width:0px;"/><path d="m19.34277,20.67334c.00635.354.23242.5.49414.5.1875,0,.30029-.03271.39893-.07471l.04443.1875c-.09229.0415-.25.08936-.479.08936-.44336,0-.70801-.2915-.70801-.72607s.25586-.77637.67529-.77637c.47021,0,.59521.41357.59521.67822,0,.05371-.00635.09521-.00928.12207h-1.01172Zm.76807-.1875c.00293-.1665-.06885-.42529-.36328-.42529-.26465,0-.38086.24365-.40137.42529h.76465Z" style="fill:#fff; stroke-width:0px;"/><path d="m21.42285,19.90576l.19043.73193c.0415.16064.08057.30908.10742.45801h.00879c.03271-.14551.08008-.30029.12793-.45508l.23486-.73486h.22021l.22314.71973c.05371.17285.09521.32471.12793.47021h.00928c.02344-.14551.06201-.29736.10986-.46729l.20508-.72266h.25928l-.46436,1.43994h-.23828l-.21973-.6875c-.05078-.16064-.09229-.30322-.12842-.47314h-.00586c-.03564.17285-.08008.32178-.13086.47607l-.23193.68457h-.23828l-.43408-1.43994h.26758Z" style="fill:#fff; stroke-width:0px;"/><path d="m24.78174,20.61377c0,.53271-.36914.76465-.71729.76465-.38965,0-.68994-.28564-.68994-.74072,0-.48242.31494-.76465.71387-.76465.41357,0,.69336.30029.69336.74072Zm-1.14258.01465c0,.31543.18164.55371.4375.55371.25,0,.43701-.23535.43701-.55957,0-.24365-.12158-.55322-.43115-.55322s-.44336.28564-.44336.55908Z" style="fill:#fff; stroke-width:0px;"/><path d="m26.31738,20.95312c0,.14844.00293.2793.01172.39258h-.23193l-.01514-.23486h-.00586c-.06836.11572-.22021.26758-.47607.26758-.22607,0-.49658-.125-.49658-.63086v-.8418h.26172v.79736c0,.27344.08301.45801.32129.45801.17529,0,.29736-.12207.34521-.23779.01465-.03906.02393-.08643.02393-.13428v-.8833h.26172v1.04736Z" style="fill:#fff; stroke-width:0px;"/><path d="m26.75146,19.23291h.26172v2.11279h-.26172v-2.11279Z" style="fill:#fff; stroke-width:0px;"/><path d="m28.69727,19.23291v1.74072c0,.12793.00293.27393.01172.37207h-.23486l-.01172-.25h-.00635c-.08008.16064-.25586.28271-.49072.28271-.34814,0-.61572-.29443-.61572-.73193-.00342-.479.29443-.77344.64551-.77344.22021,0,.36914.104.43457.22021h.00586v-.86035h.26172Zm-.26172,1.25879c0-.03271-.00293-.07715-.01221-.10986-.03857-.16699-.18115-.30371-.37744-.30371-.271,0-.43164.23828-.43164.55664,0,.2915.14258.53223.42529.53223.17578,0,.33643-.11572.38379-.31201.00928-.03613.01221-.07178.01221-.11328v-.25Z" style="fill:#fff; stroke-width:0px;"/><path d="m29.76221,19.23291h.26172v2.11279h-.26172v-2.11279Z" style="fill:#fff; stroke-width:0px;"/><path d="m30.75586,19.50098c.00293.08936-.0625.16064-.1665.16064-.09229,0-.15771-.07129-.15771-.16064,0-.09229.06836-.16357.16357-.16357.09814,0,.16064.07129.16064.16357Zm-.2915,1.84473v-1.43994h.26172v1.43994h-.26172Z" style="fill:#fff; stroke-width:0px;"/><path d="m31.41943,20.56592h.00586c.03564-.05029.08643-.11279.12793-.16357l.42285-.49658h.31494l-.55615.5918.63379.84814h-.31836l-.49707-.69043-.13379.14893v.5415h-.25879v-2.11279h.25879v1.33301Z" style="fill:#fff; stroke-width:0px;"/><path d="m32.70166,20.67334c.00635.354.23242.5.49365.5.1875,0,.30078-.03271.39941-.07471l.04395.1875c-.0918.0415-.24902.08936-.47852.08936-.44336,0-.70801-.2915-.70801-.72607s.25586-.77637.6748-.77637c.4707,0,.5957.41357.5957.67822,0,.05371-.00586.09521-.00879.12207h-1.01221Zm.76807-.1875c.00293-.1665-.06836-.42529-.36328-.42529-.26465,0-.38086.24365-.40137.42529h.76465Z" style="fill:#fff; stroke-width:0px;"/><path d="m34.99219,19.49219v.41357h.375v.19922h-.375v.77637c0,.17871.05078.27979.19629.27979.06934,0,.11914-.00879.15234-.01758l.01172.19629c-.05078.02051-.13086.03564-.23242.03564-.12207,0-.21973-.03857-.28223-.11035-.07422-.07715-.10156-.20508-.10156-.37451v-.78564h-.22266v-.19922h.22266v-.34521l.25586-.06836Z" style="fill:#fff; stroke-width:0px;"/><path d="m36.94727,20.61377c0,.53271-.36914.76465-.7168.76465-.38965,0-.69043-.28564-.69043-.74072,0-.48242.31543-.76465.71387-.76465.41406,0,.69336.30029.69336.74072Zm-1.14258.01465c0,.31543.18164.55371.4375.55371.25,0,.4375-.23535.4375-.55957,0-.24365-.12207-.55322-.43164-.55322s-.44336.28564-.44336.55908Z" style="fill:#fff; stroke-width:0px;"/><path d="m39.11328,20.95312c0,.14844.00293.2793.0127.39258h-.23242l-.01465-.23486h-.00586c-.06836.11572-.2207.26758-.47656.26758-.22559,0-.49707-.125-.49707-.63086v-.8418h.26172v.79736c0,.27344.08398.45801.32129.45801.17578,0,.29785-.12207.3457-.23779.01465-.03906.02344-.08643.02344-.13428v-.8833h.26172v1.04736Z" style="fill:#fff; stroke-width:0px;"/><path d="m39.5127,21.07812c.07715.05029.21387.104.34473.104.19043,0,.28027-.09521.28027-.21436,0-.125-.07422-.19336-.26855-.26465-.25879-.09229-.38086-.23535-.38086-.40771,0-.23193.1875-.42236.49707-.42236.14648,0,.27441.0415.35449.08887l-.06543.19043c-.05664-.03564-.16113-.08301-.29492-.08301-.1543,0-.24121.08936-.24121.19629,0,.11914.08691.17236.27441.24414.25.09521.37793.22021.37793.43408,0,.25293-.19629.43164-.53906.43164-.15723,0-.30371-.03857-.4043-.09814l.06543-.19922Z" style="fill:#fff; stroke-width:0px;"/><path d="m40.87207,20.67334c.00586.354.23145.5.49316.5.1875,0,.30078-.03271.39941-.07471l.04395.1875c-.0918.0415-.24902.08936-.47852.08936-.44336,0-.70801-.2915-.70801-.72607s.25586-.77637.6748-.77637c.4707,0,.5957.41357.5957.67822,0,.05371-.00586.09521-.00879.12207h-1.01172Zm.76758-.1875c.00293-.1665-.06836-.42529-.36328-.42529-.26465,0-.38086.24365-.40137.42529h.76465Z" style="fill:#fff; stroke-width:0px;"/><path d="m6.28223,22.75195v.43848h.50732v-.43848h.13672v1.04883h-.13672v-.4917h-.50732v.4917h-.13574v-1.04883h.13574Z" style="fill:#fff; stroke-width:0px;"/><path d="m7.23535,23.44922c.00293.18506.12109.26123.2583.26123.09814,0,.15723-.01709.2085-.03906l.02344.09814c-.04834.02197-.13086.04688-.25049.04688-.23193,0-.37061-.15234-.37061-.37988,0-.22705.13379-.40625.35352-.40625.24561,0,.31104.21631.31104.35498,0,.02783-.00293.0498-.00439.06396h-.5293Zm.40137-.09814c.00146-.0874-.03564-.22266-.18994-.22266-.13818,0-.19922.12744-.20996.22266h.3999Z" style="fill:#fff; stroke-width:0px;"/><path d="m7.94092,23.28271c0-.08887-.00146-.16504-.00635-.23535h.11963l.00488.14795h.00635c.03418-.10107.1167-.16504.2085-.16504.01562,0,.02637.00146.03857.00488v.12891c-.01367-.00293-.02783-.00439-.04639-.00439-.09668,0-.16504.07324-.18359.17578-.00342.01855-.00635.04053-.00635.06396v.40137h-.13525v-.51807Z" style="fill:#fff; stroke-width:0px;"/><path d="m8.51172,23.44922c.00293.18506.12109.26123.2583.26123.09814,0,.15723-.01709.2085-.03906l.02344.09814c-.04834.02197-.13086.04688-.25049.04688-.23193,0-.37061-.15234-.37061-.37988,0-.22705.13379-.40625.35352-.40625.24561,0,.31104.21631.31104.35498,0,.02783-.00293.0498-.00439.06396h-.5293Zm.40137-.09814c.00146-.0874-.03564-.22266-.18994-.22266-.13818,0-.19922.12744-.20996.22266h.3999Z" style="fill:#fff; stroke-width:0px;"/><path d="m9.59766,23.04736l.16504.44531c.01709.0498.03564.10889.04785.15381h.00342c.01367-.04492.0293-.10254.04834-.15723l.14941-.44189h.14453l-.20557.53711c-.09814.2583-.16504.39062-.2583.47168-.06689.05908-.13379.08252-.16797.08838l-.03418-.11475c.03418-.01123.0791-.03271.11963-.06689.0376-.02979.08398-.08252.11523-.15283.00635-.01416.01074-.0249.01074-.03271s-.00293-.01855-.00928-.03564l-.27832-.69434h.14941Z" style="fill:#fff; stroke-width:0px;"/><path d="m10.94873,23.41797c0,.27832-.19287.3999-.375.3999-.2041,0-.36133-.14941-.36133-.3877,0-.25195.16504-.3999.37354-.3999.21631,0,.36279.15723.36279.3877Zm-.59766.00781c0,.16504.09473.28955.22852.28955.13086,0,.229-.12305.229-.29297,0-.12744-.06396-.28906-.22559-.28906-.16211,0-.23193.14941-.23193.29248Z" style="fill:#fff; stroke-width:0px;"/><path d="m11.75391,23.59521c0,.07812.00146.14648.00586.20557h-.12109l-.00781-.12305h-.00342c-.03564.06055-.11475.14014-.24902.14014-.11816,0-.25977-.06543-.25977-.33008v-.44043h.13721v.41748c0,.14307.04346.23926.16797.23926.0918,0,.15576-.06348.18066-.12451.00781-.02002.01221-.04492.01221-.06982v-.4624h.13721v.54785Z" style="fill:#fff; stroke-width:0px;"/><path d="m12.8501,23.77295c-.03564.01855-.11475.04346-.21631.04346-.22705,0-.375-.1543-.375-.38428,0-.23193.15869-.40039.40479-.40039.08105,0,.15234.02051.18994.03906l-.03125.10596c-.03271-.01855-.08398-.03613-.15869-.03613-.17285,0-.26611.12793-.26611.28516,0,.17432.11182.28174.26123.28174.07812,0,.12939-.02051.16846-.0376l.02295.10303Z" style="fill:#fff; stroke-width:0px;"/><path d="m13.4292,23.80078l-.01074-.09473h-.00488c-.04199.05908-.12305.11182-.23047.11182-.15234,0-.22998-.10742-.22998-.21631,0-.18213.16162-.28174.45264-.28027v-.01562c0-.06201-.01709-.17432-.17139-.17432-.06982,0-.14307.02197-.1958.05615l-.03125-.09033c.0625-.04053.15283-.06689.24756-.06689.23047,0,.28613.15723.28613.30811v.28174c0,.06543.00342.12939.0127.18066h-.12451Zm-.02002-.38428c-.14941-.00342-.31934.02295-.31934.16943,0,.08887.05908.13086.12939.13086.09766,0,.16016-.0625.18213-.12598.00439-.01416.00781-.02979.00781-.04395v-.13037Z" style="fill:#fff; stroke-width:0px;"/><path d="m13.76416,23.25146c0-.07812-.00146-.1416-.00635-.2041h.12158l.00732.12451h.00342c.03711-.07129.12451-.1416.24902-.1416.104,0,.26611.0625.26611.3208v.44971h-.13721v-.43408c0-.12158-.04492-.22266-.17432-.22266-.08984,0-.16016.06396-.18359.14014-.00586.01709-.00928.04053-.00928.06348v.45312h-.13672v-.54932Z" style="fill:#fff; stroke-width:0px;"/><path d="m15.37744,23.80078l-.01074-.09473h-.00488c-.04199.05908-.12305.11182-.23047.11182-.15234,0-.22998-.10742-.22998-.21631,0-.18213.16162-.28174.45264-.28027v-.01562c0-.06201-.01709-.17432-.17139-.17432-.06982,0-.14307.02197-.1958.05615l-.03125-.09033c.0625-.04053.15283-.06689.24756-.06689.23047,0,.28613.15723.28613.30811v.28174c0,.06543.00342.12939.0127.18066h-.12451Zm-.02002-.38428c-.14941-.00342-.31934.02295-.31934.16943,0,.08887.05908.13086.12939.13086.09766,0,.16016-.0625.18213-.12598.00439-.01416.00781-.02979.00781-.04395v-.13037Z" style="fill:#fff; stroke-width:0px;"/><path d="m15.69336,23.66064c.04053.02637.1123.05469.18066.05469.09961,0,.14648-.0498.14648-.1123,0-.06543-.03906-.10107-.14014-.13818-.13525-.04834-.19922-.12305-.19922-.21338,0-.12158.09814-.22119.25977-.22119.07617,0,.14307.02197.18555.04688l-.03467.09961c-.0293-.01855-.08398-.04346-.15381-.04346-.08105,0-.12598.04639-.12598.10254,0,.06201.04492.09033.14307.12744.13086.0498.19775.11523.19775.22754,0,.13232-.10303.22559-.28174.22559-.08252,0-.15869-.02051-.21191-.05127l.03418-.10449Z" style="fill:#fff; stroke-width:0px;"/><path d="m16.31104,23.66064c.04053.02637.1123.05469.18066.05469.09961,0,.14648-.0498.14648-.1123,0-.06543-.03906-.10107-.14014-.13818-.13525-.04834-.19922-.12305-.19922-.21338,0-.12158.09814-.22119.25977-.22119.07617,0,.14355.02197.18555.04688l-.03467.09961c-.0293-.01855-.08398-.04346-.15381-.04346-.08105,0-.12598.04639-.12598.10254,0,.06201.04492.09033.14307.12744.13086.0498.19775.11523.19775.22754,0,.13232-.10303.22559-.28174.22559-.08252,0-.15869-.02051-.21191-.05127l.03418-.10449Z" style="fill:#fff; stroke-width:0px;"/><path d="m17.02393,23.44922c.00293.18506.12158.26123.2583.26123.09814,0,.15723-.01709.2085-.03906l.02344.09814c-.04834.02197-.13086.04688-.25049.04688-.23193,0-.37061-.15234-.37061-.37988,0-.22705.13379-.40625.35352-.40625.24561,0,.31104.21631.31104.35498,0,.02783-.00293.0498-.00439.06396h-.5293Zm.40137-.09814c.00146-.0874-.03564-.22266-.18994-.22266-.13818,0-.19922.12744-.20996.22266h.3999Z" style="fill:#fff; stroke-width:0px;"/><path d="m17.71045,23.66064c.04053.02637.1123.05469.18066.05469.09961,0,.14648-.0498.14648-.1123,0-.06543-.03906-.10107-.14014-.13818-.13525-.04834-.19922-.12305-.19922-.21338,0-.12158.09814-.22119.25977-.22119.07617,0,.14355.02197.18555.04688l-.03467.09961c-.0293-.01855-.08398-.04346-.15381-.04346-.08105,0-.12598.04639-.12598.10254,0,.06201.04492.09033.14307.12744.13086.0498.19775.11523.19775.22754,0,.13232-.10303.22559-.28174.22559-.08252,0-.15869-.02051-.21191-.05127l.03418-.10449Z" style="fill:#fff; stroke-width:0px;"/><path d="m18.32812,23.66064c.04053.02637.1123.05469.18066.05469.09961,0,.14648-.0498.14648-.1123,0-.06543-.03906-.10107-.14014-.13818-.13525-.04834-.19922-.12305-.19922-.21338,0-.12158.09814-.22119.25977-.22119.07617,0,.14307.02197.18555.04688l-.03467.09961c-.0293-.01855-.08398-.04346-.15381-.04346-.08105,0-.12598.04639-.12598.10254,0,.06201.04492.09033.14307.12744.13086.0498.19775.11523.19775.22754,0,.13232-.10303.22559-.28174.22559-.08252,0-.15869-.02051-.21191-.05127l.03418-.10449Z" style="fill:#fff; stroke-width:0px;"/><path d="m19.7124,23.80078l-.01074-.09473h-.00488c-.04199.05908-.12305.11182-.23047.11182-.15234,0-.22998-.10742-.22998-.21631,0-.18213.16162-.28174.45264-.28027v-.01562c0-.06201-.01709-.17432-.17139-.17432-.06982,0-.14307.02197-.1958.05615l-.03125-.09033c.0625-.04053.15283-.06689.24756-.06689.23047,0,.28613.15723.28613.30811v.28174c0,.06543.00342.12939.0127.18066h-.12451Zm-.02002-.38428c-.14941-.00342-.31934.02295-.31934.16943,0,.08887.05908.13086.12939.13086.09766,0,.16016-.0625.18213-.12598.00439-.01416.00781-.02979.00781-.04395v-.13037Z" style="fill:#fff; stroke-width:0px;"/><path d="m20.04736,23.25146c0-.07812-.00146-.1416-.00635-.2041h.12158l.00732.12451h.00342c.03711-.07129.12451-.1416.24902-.1416.104,0,.26611.0625.26611.3208v.44971h-.13721v-.43408c0-.12158-.04492-.22266-.17432-.22266-.08984,0-.16016.06396-.18359.14014-.00586.01709-.00928.04053-.00928.06348v.45312h-.13672v-.54932Z" style="fill:#fff; stroke-width:0px;"/><path d="m21.56348,22.6958v.91064c0,.06689.00146.14307.00635.19434h-.12305l-.00635-.13086h-.00293c-.04199.08398-.13379.14795-.25684.14795-.18213,0-.32227-.15381-.32227-.38281-.00146-.25049.1543-.40479.33789-.40479.11523,0,.19287.05469.22705.11523h.00342v-.44971h.13672Zm-.13672.6582c0-.01709-.00195-.04053-.00635-.05762-.02051-.08691-.09521-.15869-.19775-.15869-.1416,0-.22559.12451-.22559.29102,0,.15283.07471.27881.22266.27881.0918,0,.17578-.06104.20068-.16357.00439-.01855.00635-.03711.00635-.05908v-.13086Z" style="fill:#fff; stroke-width:0px;"/><path d="m22.66016,23.77295c-.03564.01855-.11523.04346-.21631.04346-.22705,0-.375-.1543-.375-.38428,0-.23193.15869-.40039.40479-.40039.08105,0,.15234.02051.18994.03906l-.03125.10596c-.03271-.01855-.08398-.03613-.15869-.03613-.17285,0-.26611.12793-.26611.28516,0,.17432.11182.28174.26123.28174.07812,0,.12939-.02051.16846-.0376l.02295.10303Z" style="fill:#fff; stroke-width:0px;"/><path d="m23.45264,23.59521c0,.07812.00146.14648.00586.20557h-.12109l-.00781-.12305h-.00342c-.03564.06055-.11475.14014-.24902.14014-.11816,0-.25977-.06543-.25977-.33008v-.44043h.13721v.41748c0,.14307.04346.23926.16797.23926.0918,0,.15576-.06348.18066-.12451.00781-.02002.01221-.04492.01221-.06982v-.4624h.13721v.54785Z" style="fill:#fff; stroke-width:0px;"/><path d="m23.6626,23.66064c.04053.02637.1123.05469.18066.05469.09961,0,.14648-.0498.14648-.1123,0-.06543-.03906-.10107-.14014-.13818-.13525-.04834-.19922-.12305-.19922-.21338,0-.12158.09814-.22119.25977-.22119.07617,0,.14355.02197.18555.04688l-.03467.09961c-.0293-.01855-.08398-.04346-.15381-.04346-.08105,0-.12598.04639-.12598.10254,0,.06201.04492.09033.14307.12744.13086.0498.19775.11523.19775.22754,0,.13232-.10303.22559-.28174.22559-.08252,0-.15869-.02051-.21191-.05127l.03418-.10449Z" style="fill:#fff; stroke-width:0px;"/><path d="m24.46436,22.83105v.21631h.1958v.10449h-.1958v.40625c0,.09326.02637.146.10254.146.03564,0,.06201-.00439.07959-.00928l.00586.10303c-.02637.01074-.06836.01855-.12109.01855-.06396,0-.11523-.02051-.14795-.05762-.03906-.04053-.05322-.10742-.05322-.19629v-.41064h-.1167v-.10449h.1167v-.18018l.13428-.03613Z" style="fill:#fff; stroke-width:0px;"/><path d="m25.48779,23.41797c0,.27832-.19287.3999-.375.3999-.2041,0-.36133-.14941-.36133-.3877,0-.25195.16504-.3999.37354-.3999.21631,0,.36279.15723.36279.3877Zm-.59766.00781c0,.16504.09473.28955.22852.28955.13086,0,.229-.12305.229-.29297,0-.12744-.06396-.28906-.22559-.28906-.16211,0-.23193.14941-.23193.29248Z" style="fill:#fff; stroke-width:0px;"/><path d="m25.6626,23.25146c0-.07812-.00146-.1416-.00635-.2041h.11963l.00635.12158h.00488c.04199-.07178.11182-.13867.23633-.13867.10303,0,.18066.0625.21338.15088h.00293c.02344-.04199.05322-.07471.08398-.09766.04541-.03467.09521-.05322.1665-.05322.09961,0,.24756.06543.24756.32715v.44336h-.13379v-.42627c0-.14502-.05273-.23193-.16357-.23193-.07764,0-.13818.05762-.16162.12451-.00635.01855-.01074.04346-.01074.06836v.46533h-.13428v-.45117c0-.12012-.05273-.20703-.15674-.20703-.08594,0-.14795.06836-.16992.13672-.00781.02051-.01074.04346-.01074.06689v.45459h-.13379v-.54932Z" style="fill:#fff; stroke-width:0px;"/><path d="m27.11621,22.83594c.00146.04639-.03271.08398-.08691.08398-.04834,0-.08252-.0376-.08252-.08398,0-.04834.03564-.08594.08545-.08594.05127,0,.08398.0376.08398.08594Zm-.15234.96484v-.75342h.13672v.75342h-.13672Z" style="fill:#fff; stroke-width:0px;"/><path d="m27.24316,23.72119l.34082-.44336c.03271-.04053.06396-.07617.09814-.1167v-.00293h-.40771v-.11084h.57422l-.00146.08594-.33594.43701c-.03125.04199-.0625.07959-.09668.11816v.00342h.44043v.10889h-.61182v-.07959Z" style="fill:#fff; stroke-width:0px;"/><path d="m28.06201,23.44922c.00293.18506.12158.26123.2583.26123.09814,0,.15723-.01709.2085-.03906l.02344.09814c-.04834.02197-.13086.04688-.25049.04688-.23193,0-.37061-.15234-.37061-.37988,0-.22705.13379-.40625.35352-.40625.24561,0,.31104.21631.31104.35498,0,.02783-.00293.0498-.00439.06396h-.5293Zm.40137-.09814c.00146-.0874-.03564-.22266-.18994-.22266-.13818,0-.19922.12744-.20996.22266h.3999Z" style="fill:#fff; stroke-width:0px;"/><path d="m29.26318,22.83105v.21631h.1958v.10449h-.1958v.40625c0,.09326.02637.146.10254.146.03564,0,.06201-.00439.07959-.00928l.00586.10303c-.02637.01074-.06836.01855-.12109.01855-.06396,0-.11523-.02051-.14795-.05762-.03906-.04053-.05322-.10742-.05322-.19629v-.41064h-.1167v-.10449h.1167v-.18018l.13428-.03613Z" style="fill:#fff; stroke-width:0px;"/><path d="m29.61426,22.6958h.13672v.47021h.00342c.02148-.03906.05566-.07324.09766-.09668.04053-.02344.08887-.03906.14014-.03906.10107,0,.26318.0625.26318.32227v.44824h-.13721v-.43262c0-.12158-.04492-.22412-.17432-.22412-.08838,0-.15869.06201-.18359.13672-.00781.01904-.00928.03906-.00928.06543v.45459h-.13672v-1.10498Z" style="fill:#fff; stroke-width:0px;"/><path d="m30.55615,23.44922c.00293.18506.12158.26123.2583.26123.09814,0,.15723-.01709.2085-.03906l.02344.09814c-.04834.02197-.13086.04688-.25049.04688-.23193,0-.37061-.15234-.37061-.37988,0-.22705.13379-.40625.35352-.40625.24561,0,.31104.21631.31104.35498,0,.02783-.00293.0498-.00439.06396h-.5293Zm.40137-.09814c.00146-.0874-.03564-.22266-.18994-.22266-.13818,0-.19922.12744-.20996.22266h.3999Z" style="fill:#fff; stroke-width:0px;"/><path d="m31.57324,23.66064c.04053.02637.1123.05469.18066.05469.09961,0,.14648-.0498.14648-.1123,0-.06543-.03906-.10107-.14014-.13818-.13525-.04834-.19922-.12305-.19922-.21338,0-.12158.09814-.22119.25977-.22119.07617,0,.14307.02197.18555.04688l-.03467.09961c-.0293-.01855-.08398-.04346-.15381-.04346-.08105,0-.12598.04639-.12598.10254,0,.06201.04492.09033.14307.12744.13086.0498.19775.11523.19775.22754,0,.13232-.10303.22559-.28174.22559-.08252,0-.15869-.02051-.21191-.05127l.03418-.10449Z" style="fill:#fff; stroke-width:0px;"/><path d="m32.28613,23.44922c.00293.18506.12109.26123.2583.26123.09814,0,.15723-.01709.2085-.03906l.02344.09814c-.04834.02197-.13086.04688-.25049.04688-.23193,0-.37061-.15234-.37061-.37988,0-.22705.13379-.40625.35352-.40625.24561,0,.31104.21631.31104.35498,0,.02783-.00293.0498-.00439.06396h-.5293Zm.40137-.09814c.00146-.0874-.03564-.22266-.18994-.22266-.13818,0-.19922.12744-.20996.22266h.3999Z" style="fill:#fff; stroke-width:0px;"/><path d="m32.9917,23.28271c0-.08887-.00146-.16504-.00635-.23535h.12012l.00391.14795h.00684c.03418-.10107.11621-.16504.20801-.16504.01562,0,.02734.00146.03906.00488v.12891c-.01367-.00293-.02734-.00439-.04688-.00439-.0957,0-.16406.07324-.18359.17578-.00293.01855-.00586.04053-.00586.06396v.40137h-.13525v-.51807Z" style="fill:#fff; stroke-width:0px;"/><path d="m33.59375,23.04736l.14746.42334c.02441.06836.04492.13086.06055.19336h.00488c.0166-.0625.03906-.125.06348-.19336l.14648-.42334h.14355l-.2959.75342h-.13086l-.28613-.75342h.14648Z" style="fill:#fff; stroke-width:0px;"/><path d="m34.44336,22.83594c.00098.04639-.0332.08398-.08789.08398-.04785,0-.08203-.0376-.08203-.08398,0-.04834.03516-.08594.08496-.08594.05176,0,.08496.0376.08496.08594Zm-.15332.96484v-.75342h.1377v.75342h-.1377Z" style="fill:#fff; stroke-width:0px;"/><path d="m35.19238,23.77295c-.03516.01855-.11523.04346-.21582.04346-.22754,0-.375-.1543-.375-.38428,0-.23193.1582-.40039.4043-.40039.08105,0,.15234.02051.18945.03906l-.03125.10596c-.03223-.01855-.08398-.03613-.1582-.03613-.17285,0-.2666.12793-.2666.28516,0,.17432.1123.28174.26172.28174.07812,0,.12891-.02051.16797-.0376l.02344.10303Z" style="fill:#fff; stroke-width:0px;"/><path d="m35.42187,23.44922c.00391.18506.12207.26123.25879.26123.09766,0,.15723-.01709.20898-.03906l.02246.09814c-.04785.02197-.12988.04688-.25.04688-.23242,0-.37012-.15234-.37012-.37988,0-.22705.13379-.40625.35254-.40625.24609,0,.31152.21631.31152.35498,0,.02783-.00293.0498-.00488.06396h-.5293Zm.40234-.09814c.00098-.0874-.03613-.22266-.19043-.22266-.13867,0-.19922.12744-.20996.22266h.40039Z" style="fill:#fff; stroke-width:0px;"/><path d="m36.1084,23.66064c.04102.02637.1123.05469.18066.05469.09961,0,.14648-.0498.14648-.1123,0-.06543-.03906-.10107-.14062-.13818-.13477-.04834-.19922-.12305-.19922-.21338,0-.12158.09863-.22119.26074-.22119.07617,0,.14258.02197.18457.04688l-.03418.09961c-.0293-.01855-.08398-.04346-.1543-.04346-.08008,0-.12598.04639-.12598.10254,0,.06201.0459.09033.14355.12744.13086.0498.19727.11523.19727.22754,0,.13232-.10254.22559-.28125.22559-.08301,0-.15918-.02051-.21191-.05127l.03418-.10449Z" style="fill:#fff; stroke-width:0px;"/><path d="m37.24121,22.83105v.21631h.19629v.10449h-.19629v.40625c0,.09326.02637.146.10254.146.03613,0,.0625-.00439.08008-.00928l.00586.10303c-.02637.01074-.06836.01855-.12109.01855-.06445,0-.11523-.02051-.14844-.05762-.03809-.04053-.05273-.10742-.05273-.19629v-.41064h-.11621v-.10449h.11621v-.18018l.13379-.03613Z" style="fill:#fff; stroke-width:0px;"/><path d="m37.59277,22.6958h.1377v.47021h.00293c.02148-.03906.05566-.07324.09766-.09668.04102-.02344.08887-.03906.14062-.03906.10059,0,.2627.0625.2627.32227v.44824h-.13672v-.43262c0-.12158-.04492-.22412-.1748-.22412-.08887,0-.1582.06201-.18359.13672-.00781.01904-.00879.03906-.00879.06543v.45459h-.1377v-1.10498Z" style="fill:#fff; stroke-width:0px;"/><path d="m38.87598,23.80078l-.01074-.09473h-.00391c-.04297.05908-.12305.11182-.23047.11182-.15332,0-.23047-.10742-.23047-.21631,0-.18213.16211-.28174.45312-.28027v-.01562c0-.06201-.01758-.17432-.17188-.17432-.06934,0-.14258.02197-.19629.05615l-.03027-.09033c.06152-.04053.15234-.06689.24707-.06689.23047,0,.28613.15723.28613.30811v.28174c0,.06543.00293.12939.0127.18066h-.125Zm-.01953-.38428c-.14941-.00342-.31934.02295-.31934.16943,0,.08887.05957.13086.12891.13086.09863,0,.16016-.0625.18262-.12598.00488-.01416.00781-.02979.00781-.04395v-.13037Z" style="fill:#fff; stroke-width:0px;"/><path d="m39.36914,22.83105v.21631h.19629v.10449h-.19629v.40625c0,.09326.02637.146.10254.146.03613,0,.0625-.00439.08008-.00928l.00586.10303c-.02637.01074-.06836.01855-.12109.01855-.06445,0-.11523-.02051-.14844-.05762-.03809-.04053-.05273-.10742-.05273-.19629v-.41064h-.11621v-.10449h.11621v-.18018l.13379-.03613Z" style="fill:#fff; stroke-width:0px;"/><path d="m6.19629,24.91943l.09961.38281c.02197.08447.04199.16211.05615.23975h.00488c.01709-.07617.04199-.15723.06689-.23779l.12256-.38477h.11523l.1167.37695c.02832.09033.0498.16943.06689.24561h.00488c.01221-.07617.03271-.15527.05762-.24414l.10742-.37842h.13525l-.24268.75342h-.12451l-.11523-.35938c-.02637-.08398-.04834-.15869-.06689-.24756h-.00293c-.01904.09033-.04199.16797-.06885.24902l-.12109.35791h-.12451l-.22754-.75342h.14014Z" style="fill:#fff; stroke-width:0px;"/><path d="m7.35059,25.32129c.00293.18506.12109.26123.2583.26123.09814,0,.15723-.01709.2085-.03906l.02344.09814c-.04834.02197-.13086.04688-.25049.04688-.23193,0-.37061-.15234-.37061-.37988,0-.22705.13379-.40625.35352-.40625.24561,0,.31104.21631.31104.35498,0,.02783-.00293.0498-.00439.06396h-.5293Zm.40137-.09814c.00146-.0874-.03564-.22266-.18994-.22266-.13818,0-.19922.12744-.20996.22266h.3999Z" style="fill:#fff; stroke-width:0px;"/><path d="m8.15723,24.60693l-.02637.37354h-.08398l-.0249-.37354h.13525Z" style="fill:#fff; stroke-width:0px;"/><path d="m8.98779,24.56787v.91064c0,.06689.00146.14307.00635.19434h-.12305l-.00635-.13086h-.00293c-.04199.08398-.13379.14795-.25684.14795-.18213,0-.32227-.15381-.32227-.38281-.00146-.25049.1543-.40479.33789-.40479.11523,0,.19287.05469.22705.11523h.00342v-.44971h.13672Zm-.13672.6582c0-.01709-.00195-.04053-.00635-.05762-.02051-.08691-.09521-.15869-.19775-.15869-.1416,0-.22559.12451-.22559.29102,0,.15283.07471.27881.22266.27881.0918,0,.17578-.06104.20068-.16357.00439-.01855.00635-.03711.00635-.05908v-.13086Z" style="fill:#fff; stroke-width:0px;"/><path d="m9.54785,24.56787h.13672v1.10498h-.13672v-1.10498Z" style="fill:#fff; stroke-width:0px;"/><path d="m10.06836,24.70801c.00146.04639-.03271.08398-.08691.08398-.04834,0-.08252-.0376-.08252-.08398,0-.04834.03564-.08594.08545-.08594.05127,0,.08398.0376.08398.08594Zm-.15234.96484v-.75342h.13672v.75342h-.13672Z" style="fill:#fff; stroke-width:0px;"/><path d="m10.4165,25.26514h.00293c.01904-.02637.04541-.05908.06689-.08545l.22119-.26025h.16504l-.29102.31006.33154.44336h-.1665l-.26025-.36133-.06982.07812v.2832h-.13525v-1.10498h.13525v.69727Z" style="fill:#fff; stroke-width:0px;"/><path d="m11.08887,25.32129c.00293.18506.12109.26123.2583.26123.09814,0,.15723-.01709.2085-.03906l.02344.09814c-.04834.02197-.13086.04688-.25049.04688-.23193,0-.37061-.15234-.37061-.37988,0-.22705.13379-.40625.35352-.40625.24561,0,.31104.21631.31104.35498,0,.02783-.00293.0498-.00439.06396h-.5293Zm.40137-.09814c.00146-.0874-.03564-.22266-.18994-.22266-.13818,0-.19922.12744-.20996.22266h.3999Z" style="fill:#fff; stroke-width:0px;"/><path d="m12.29004,24.70312v.21631h.1958v.10449h-.1958v.40625c0,.09326.02637.146.10254.146.03564,0,.06201-.00439.0791-.00928l.00635.10303c-.02637.01074-.06836.01855-.12109.01855-.06396,0-.11523-.02051-.14795-.05762-.03906-.04053-.05322-.10742-.05322-.19629v-.41064h-.1167v-.10449h.1167v-.18018l.13428-.03613Z" style="fill:#fff; stroke-width:0px;"/><path d="m13.31299,25.29004c0,.27832-.19287.3999-.375.3999-.2041,0-.36133-.14941-.36133-.3877,0-.25195.16504-.3999.37354-.3999.21631,0,.36279.15723.36279.3877Zm-.59766.00781c0,.16504.09473.28955.22852.28955.13086,0,.229-.12305.229-.29297,0-.12744-.06396-.28906-.22559-.28906-.16211,0-.23193.14941-.23193.29248Z" style="fill:#fff; stroke-width:0px;"/><path d="m14.44873,25.46729c0,.07812.00146.14648.00586.20557h-.12109l-.00781-.12305h-.00342c-.03564.06055-.11475.14014-.24902.14014-.11816,0-.25977-.06543-.25977-.33008v-.44043h.13721v.41748c0,.14307.04346.23926.16797.23926.0918,0,.15576-.06348.18066-.12451.00781-.02002.01221-.04492.01221-.06982v-.4624h.13721v.54785Z" style="fill:#fff; stroke-width:0px;"/><path d="m14.65869,25.53271c.04053.02637.1123.05469.18066.05469.09961,0,.14648-.0498.14648-.1123,0-.06543-.03906-.10107-.14014-.13818-.13525-.04834-.19922-.12305-.19922-.21338,0-.12158.09814-.22119.25977-.22119.07617,0,.14355.02197.18555.04688l-.03467.09961c-.0293-.01855-.08398-.04346-.15381-.04346-.08105,0-.12598.04639-.12598.10254,0,.06201.04492.09033.14307.12744.13086.0498.19775.11523.19775.22754,0,.13232-.10303.22559-.28174.22559-.08252,0-.15869-.02051-.21191-.05127l.03418-.10449Z" style="fill:#fff; stroke-width:0px;"/><path d="m15.37158,25.32129c.00293.18506.12158.26123.2583.26123.09814,0,.15723-.01709.2085-.03906l.02344.09814c-.04834.02197-.13086.04688-.25049.04688-.23193,0-.37061-.15234-.37061-.37988,0-.22705.13379-.40625.35352-.40625.24561,0,.31104.21631.31104.35498,0,.02783-.00293.0498-.00439.06396h-.5293Zm.40137-.09814c.00146-.0874-.03564-.22266-.18994-.22266-.13818,0-.19922.12744-.20996.22266h.3999Z" style="fill:#fff; stroke-width:0px;"/><path d="m17.08936,25.29004c0,.27832-.19287.3999-.375.3999-.2041,0-.36133-.14941-.36133-.3877,0-.25195.16504-.3999.37354-.3999.21631,0,.36279.15723.36279.3877Zm-.59766.00781c0,.16504.09473.28955.22852.28955.13086,0,.229-.12305.229-.29297,0-.12744-.06396-.28906-.22559-.28906-.16211,0-.23193.14941-.23193.29248Z" style="fill:#fff; stroke-width:0px;"/><path d="m17.26416,25.12354c0-.07812-.00146-.1416-.00635-.2041h.12158l.00732.12451h.00342c.03711-.07129.12451-.1416.24902-.1416.104,0,.26611.0625.26611.3208v.44971h-.13721v-.43408c0-.12158-.04492-.22266-.17432-.22266-.08984,0-.16016.06396-.18359.14014-.00586.01709-.00928.04053-.00928.06348v.45312h-.13672v-.54932Z" style="fill:#fff; stroke-width:0px;"/><path d="m18.62549,24.70312v.21631h.1958v.10449h-.1958v.40625c0,.09326.02637.146.10254.146.03564,0,.06201-.00439.07959-.00928l.00586.10303c-.02637.01074-.06836.01855-.12109.01855-.06396,0-.11523-.02051-.14795-.05762-.03906-.04053-.05322-.10742-.05322-.19629v-.41064h-.1167v-.10449h.1167v-.18018l.13428-.03613Z" style="fill:#fff; stroke-width:0px;"/><path d="m18.97656,24.56787h.13672v.47021h.00342c.02148-.03906.05566-.07324.09766-.09668.04053-.02344.08887-.03906.14014-.03906.10107,0,.26318.0625.26318.32227v.44824h-.13721v-.43262c0-.12158-.04492-.22412-.17432-.22412-.08838,0-.15869.06201-.18359.13672-.00781.01904-.00928.03906-.00928.06543v.45459h-.13672v-1.10498Z" style="fill:#fff; stroke-width:0px;"/><path d="m19.99463,24.70801c.00146.04639-.03271.08398-.08691.08398-.04834,0-.08252-.0376-.08252-.08398,0-.04834.03564-.08594.08545-.08594.05127,0,.08398.0376.08398.08594Zm-.15234.96484v-.75342h.13672v.75342h-.13672Z" style="fill:#fff; stroke-width:0px;"/><path d="m20.18848,25.53271c.04053.02637.1123.05469.18066.05469.09961,0,.14648-.0498.14648-.1123,0-.06543-.03906-.10107-.14014-.13818-.13525-.04834-.19922-.12305-.19922-.21338,0-.12158.09814-.22119.25977-.22119.07617,0,.14307.02197.18555.04688l-.03467.09961c-.0293-.01855-.08398-.04346-.15381-.04346-.08105,0-.12598.04639-.12598.10254,0,.06201.04492.09033.14307.12744.13086.0498.19775.11523.19775.22754,0,.13232-.10303.22559-.28174.22559-.08252,0-.15869-.02051-.21191-.05127l.03418-.10449Z" style="fill:#fff; stroke-width:0px;"/><path d="m21.20996,24.91943l.09961.38281c.02197.08447.04199.16211.05615.23975h.00488c.01709-.07617.04199-.15723.06689-.23779l.12256-.38477h.11523l.1167.37695c.02832.09033.0498.16943.06689.24561h.00488c.01221-.07617.03271-.15527.05762-.24414l.10742-.37842h.13525l-.24268.75342h-.12451l-.11523-.35938c-.02637-.08398-.04834-.15869-.06689-.24756h-.00293c-.01904.09033-.04199.16797-.06885.24902l-.12109.35791h-.12451l-.22754-.75342h.14014Z" style="fill:#fff; stroke-width:0px;"/><path d="m22.36475,25.32129c.00293.18506.12158.26123.2583.26123.09814,0,.15723-.01709.2085-.03906l.02344.09814c-.04834.02197-.13086.04688-.25049.04688-.23193,0-.37061-.15234-.37061-.37988,0-.22705.13379-.40625.35352-.40625.24561,0,.31104.21631.31104.35498,0,.02783-.00293.0498-.00439.06396h-.5293Zm.40137-.09814c.00146-.0874-.03564-.22266-.18994-.22266-.13818,0-.19922.12744-.20996.22266h.3999Z" style="fill:#fff; stroke-width:0px;"/><path d="m23.06348,25.67285c.00293-.05127.00635-.12744.00635-.19434v-.91064h.13525v.47314h.00293c.04834-.08398.13574-.13867.25684-.13867.18701,0,.31934.15576.31787.38477,0,.26904-.16992.40283-.33789.40283-.10889,0-.19629-.04199-.25244-.1416h-.00439l-.00635.12451h-.11816Zm.1416-.30176c0,.01709.00293.03418.00635.0498.02637.09473.10596.16016.20557.16016.14307,0,.22852-.1167.22852-.28955,0-.15088-.07764-.28027-.22412-.28027-.09326,0-.18066.06396-.2085.16846-.00293.01514-.00781.03418-.00781.05566v.13574Z" style="fill:#fff; stroke-width:0px;"/><path d="m23.93848,25.53271c.04053.02637.1123.05469.18066.05469.09961,0,.14648-.0498.14648-.1123,0-.06543-.03906-.10107-.14014-.13818-.13525-.04834-.19922-.12305-.19922-.21338,0-.12158.09814-.22119.25977-.22119.07617,0,.14307.02197.18555.04688l-.03467.09961c-.0293-.01855-.08398-.04346-.15381-.04346-.08105,0-.12598.04639-.12598.10254,0,.06201.04492.09033.14307.12744.13086.0498.19775.11523.19775.22754,0,.13232-.10303.22559-.28174.22559-.08252,0-.15869-.02051-.21191-.05127l.03418-.10449Z" style="fill:#fff; stroke-width:0px;"/><path d="m24.72803,24.70801c.00146.04639-.03271.08398-.08691.08398-.04834,0-.08252-.0376-.08252-.08398,0-.04834.03564-.08594.08545-.08594.05127,0,.08398.0376.08398.08594Zm-.15234.96484v-.75342h.13672v.75342h-.13672Z" style="fill:#fff; stroke-width:0px;"/><path d="m25.10596,24.70312v.21631h.1958v.10449h-.1958v.40625c0,.09326.02637.146.10254.146.03564,0,.06201-.00439.07959-.00928l.00586.10303c-.02637.01074-.06836.01855-.12109.01855-.06396,0-.11523-.02051-.14795-.05762-.03906-.04053-.05322-.10742-.05322-.19629v-.41064h-.1167v-.10449h.1167v-.18018l.13428-.03613Z" style="fill:#fff; stroke-width:0px;"/><path d="m25.52344,25.32129c.00293.18506.12109.26123.2583.26123.09814,0,.15723-.01709.2085-.03906l.02344.09814c-.04834.02197-.13086.04688-.25049.04688-.23193,0-.37061-.15234-.37061-.37988,0-.22705.13379-.40625.35352-.40625.24561,0,.31104.21631.31104.35498,0,.02783-.00293.0498-.00439.06396h-.5293Zm.40137-.09814c.00146-.0874-.03564-.22266-.18994-.22266-.13818,0-.19922.12744-.20996.22266h.3999Z" style="fill:#fff; stroke-width:0px;"/><path d="m26.17773,25.5918c0-.05762.03857-.09814.09326-.09814s.0918.04053.0918.09814c0,.05615-.03564.09814-.09326.09814-.05469,0-.0918-.04199-.0918-.09814Z" style="fill:#fff; stroke-width:0px;"/><path d="m27.02979,25.67285v-.44531l-.33154-.60352h.1543l.14795.28906c.04053.07959.07129.14355.104.2168h.00342c.0293-.06885.06543-.13721.10596-.2168l.15088-.28906h.15381l-.35156.60205v.44678h-.13721Z" style="fill:#fff; stroke-width:0px;"/><path d="m28.19873,25.29004c0,.27832-.19287.3999-.375.3999-.2041,0-.36133-.14941-.36133-.3877,0-.25195.16504-.3999.37354-.3999.21631,0,.36279.15723.36279.3877Zm-.59766.00781c0,.16504.09473.28955.22852.28955.13086,0,.229-.12305.229-.29297,0-.12744-.06396-.28906-.22559-.28906-.16211,0-.23193.14941-.23193.29248Z" style="fill:#fff; stroke-width:0px;"/><path d="m29.00391,25.46729c0,.07812.00146.14648.00586.20557h-.12109l-.00781-.12305h-.00342c-.03564.06055-.11475.14014-.24902.14014-.11816,0-.25977-.06543-.25977-.33008v-.44043h.13721v.41748c0,.14307.04346.23926.16797.23926.0918,0,.15576-.06348.18066-.12451.00781-.02002.01221-.04492.01221-.06982v-.4624h.13721v.54785Z" style="fill:#fff; stroke-width:0px;"/><path d="m29.33398,24.60693l-.02637.37354h-.08398l-.0249-.37354h.13525Z" style="fill:#fff; stroke-width:0px;"/><path d="m29.52637,25.15479c0-.08887-.00195-.16504-.00635-.23535h.11963l.00488.14795h.00635c.03418-.10107.1167-.16504.2085-.16504.01562,0,.02637.00146.03906.00488v.12891c-.01416-.00293-.02832-.00439-.04688-.00439-.09668,0-.16504.07324-.18359.17578-.00342.01855-.00635.04053-.00635.06396v.40137h-.13525v-.51807Z" style="fill:#fff; stroke-width:0px;"/><path d="m30.09717,25.32129c.00293.18506.12158.26123.2583.26123.09814,0,.15723-.01709.2085-.03906l.02344.09814c-.04834.02197-.13086.04688-.25049.04688-.23193,0-.37061-.15234-.37061-.37988,0-.22705.13379-.40625.35352-.40625.24561,0,.31104.21631.31104.35498,0,.02783-.00293.0498-.00439.06396h-.5293Zm.40137-.09814c.00146-.0874-.03564-.22266-.18994-.22266-.13818,0-.19922.12744-.20996.22266h.3999Z" style="fill:#fff; stroke-width:0px;"/><path d="m31.28564,24.70801c.00146.04639-.03271.08398-.08691.08398-.04834,0-.08252-.0376-.08252-.08398,0-.04834.03564-.08594.08545-.08594.05127,0,.08398.0376.08398.08594Zm-.15234.96484v-.75342h.13672v.75342h-.13672Z" style="fill:#fff; stroke-width:0px;"/><path d="m31.49854,25.12354c0-.07812-.00146-.1416-.00635-.2041h.12158l.00732.12451h.00342c.03711-.07129.12451-.1416.24902-.1416.104,0,.26611.0625.26611.3208v.44971h-.13721v-.43408c0-.12158-.04492-.22266-.17432-.22266-.08984,0-.16016.06396-.18359.14014-.00586.01709-.00928.04053-.00928.06348v.45312h-.13672v-.54932Z" style="fill:#fff; stroke-width:0px;"/><path d="m33.23145,25.64502c-.03516.01855-.11523.04346-.21582.04346-.22754,0-.37549-.1543-.37549-.38428,0-.23193.15869-.40039.40479-.40039.08105,0,.15234.02051.18945.03906l-.03125.10596c-.03223-.01855-.08398-.03613-.1582-.03613-.17285,0-.26611.12793-.26611.28516,0,.17432.11182.28174.26123.28174.07812,0,.12891-.02051.16797-.0376l.02344.10303Z" style="fill:#fff; stroke-width:0px;"/><path d="m33.39355,24.56787h.1377v.47021h.00293c.02148-.03906.05566-.07324.09766-.09668.04102-.02344.08887-.03906.14062-.03906.10059,0,.2627.0625.2627.32227v.44824h-.13672v-.43262c0-.12158-.04492-.22412-.1748-.22412-.08887,0-.1582.06201-.18359.13672-.00781.01904-.00879.03906-.00879.06543v.45459h-.1377v-1.10498Z" style="fill:#fff; stroke-width:0px;"/><path d="m34.67676,25.67285l-.01074-.09473h-.00391c-.04297.05908-.12305.11182-.23047.11182-.15332,0-.23047-.10742-.23047-.21631,0-.18213.16211-.28174.45312-.28027v-.01562c0-.06201-.01758-.17432-.17188-.17432-.06934,0-.14258.02197-.19629.05615l-.03027-.09033c.06152-.04053.15234-.06689.24707-.06689.23047,0,.28613.15723.28613.30811v.28174c0,.06543.00293.12939.0127.18066h-.125Zm-.01953-.38428c-.14941-.00342-.31934.02295-.31934.16943,0,.08887.05957.13086.12891.13086.09863,0,.16016-.0625.18262-.12598.00488-.01416.00781-.02979.00781-.04395v-.13037Z" style="fill:#fff; stroke-width:0px;"/><path d="m35.01172,25.15479c0-.08887-.00098-.16504-.00586-.23535h.12012l.00391.14795h.00684c.03418-.10107.11621-.16504.20801-.16504.01562,0,.02637.00146.03906.00488v.12891c-.01367-.00293-.02734-.00439-.04688-.00439-.0957,0-.16504.07324-.18359.17578-.00293.01855-.00586.04053-.00586.06396v.40137h-.13574v-.51807Z" style="fill:#fff; stroke-width:0px;"/><path d="m36.1582,24.91943c-.00293.05469-.00586.11523-.00586.20703v.4375c0,.17285-.03516.27832-.10742.34375-.07324.06885-.17969.09033-.27441.09033-.08984,0-.18945-.02148-.25098-.06201l.03516-.10449c.0498.03125.12695.05908.2207.05908.13965,0,.24219-.07324.24219-.2627v-.08447h-.00293c-.04199.07031-.12305.12646-.23926.12646-.18652,0-.32031-.15918-.32031-.36768,0-.25488.16602-.3999.33887-.3999.13086,0,.20215.06836.23535.13086h.00293l.00586-.11377h.12012Zm-.1416.29736c0-.02344-.00195-.04346-.00781-.06201-.02539-.07959-.0918-.14502-.19141-.14502-.13086,0-.22461.11035-.22461.28467,0,.14795.0752.271.22266.271.08398,0,.16016-.05273.19043-.14014.00781-.02344.01074-.0498.01074-.07324v-.13525Z" style="fill:#fff; stroke-width:0px;"/><path d="m36.45703,25.32129c.00391.18506.12207.26123.25879.26123.09766,0,.15723-.01709.20898-.03906l.02246.09814c-.04785.02197-.12988.04688-.25.04688-.23242,0-.37012-.15234-.37012-.37988,0-.22705.13379-.40625.35254-.40625.24609,0,.31152.21631.31152.35498,0,.02783-.00293.0498-.00488.06396h-.5293Zm.40234-.09814c.00098-.0874-.03613-.22266-.19043-.22266-.13867,0-.19922.12744-.20996.22266h.40039Z" style="fill:#fff; stroke-width:0px;"/><path d="m37.13574,25.59326c0-.05566.03906-.09619.0918-.09619.05664,0,.0918.04053.0918.09619,0,.05469-.03516.09668-.0918.09668-.05371,0-.0918-.04199-.0918-.09668Zm.03906-.22217l-.02148-.74707h.14941l-.02246.74707h-.10547Z" style="fill:#fff; stroke-width:0px;"/><path d="m6.68994,27.05322h-.40771v.37793h.4541v.11377h-.58984v-1.04883h.56641v.11328h-.43066v.33154h.40771v.1123Z" style="fill:#fff; stroke-width:0px;"/><path d="m6.90967,26.99561c0-.07812-.00146-.1416-.00635-.2041h.12158l.00732.12451h.00342c.03711-.07129.12451-.1416.24902-.1416.104,0,.26611.0625.26611.3208v.44971h-.13721v-.43408c0-.12158-.04492-.22266-.17432-.22266-.08984,0-.16016.06396-.18359.14014-.00586.01709-.00928.04053-.00928.06348v.45312h-.13672v-.54932Z" style="fill:#fff; stroke-width:0px;"/><path d="m8.19238,27.54492l-.01074-.09473h-.00488c-.04199.05908-.12305.11182-.23047.11182-.15234,0-.22998-.10742-.22998-.21631,0-.18213.16162-.28174.45264-.28027v-.01562c0-.06201-.01709-.17432-.1709-.17432-.07031,0-.14355.02197-.19629.05615l-.03125-.09033c.0625-.04053.15234-.06689.24756-.06689.23047,0,.28613.15723.28613.30811v.28174c0,.06543.00342.12939.0127.18066h-.12451Zm-.02051-.38428c-.14941-.00342-.31885.02295-.31885.16943,0,.08887.05908.13086.12939.13086.09766,0,.16016-.0625.18213-.12598.00439-.01416.00732-.02979.00732-.04395v-.13037Z" style="fill:#fff; stroke-width:0px;"/><path d="m8.521,27.54492c.00293-.05127.00635-.12744.00635-.19434v-.91064h.13525v.47314h.00293c.04834-.08398.13574-.13867.25684-.13867.18701,0,.31934.15576.31787.38477,0,.26904-.16992.40283-.33789.40283-.10889,0-.19629-.04199-.25195-.1416h-.00488l-.00635.12451h-.11816Zm.1416-.30176c0,.01709.00293.03418.00635.0498.02637.09473.10547.16016.20508.16016.14355,0,.229-.1167.229-.28955,0-.15088-.07764-.28027-.22412-.28027-.09326,0-.18066.06396-.2085.16846-.00293.01514-.00781.03418-.00781.05566v.13574Z" style="fill:#fff; stroke-width:0px;"/><path d="m9.41504,26.43994h.13672v1.10498h-.13672v-1.10498Z" style="fill:#fff; stroke-width:0px;"/><path d="m9.85937,27.19336c.00293.18506.12109.26123.2583.26123.09814,0,.15723-.01709.2085-.03906l.02344.09814c-.04834.02197-.13086.04688-.25049.04688-.23193,0-.37061-.15234-.37061-.37988,0-.22705.13379-.40625.35352-.40625.24561,0,.31104.21631.31104.35498,0,.02783-.00293.0498-.00439.06396h-.5293Zm.40137-.09814c.00146-.0874-.03564-.22266-.18994-.22266-.13818,0-.19922.12744-.20996.22266h.3999Z" style="fill:#fff; stroke-width:0px;"/><path d="m11.57715,27.16211c0,.27832-.19287.3999-.375.3999-.2041,0-.36133-.14941-.36133-.3877,0-.25195.16504-.3999.37354-.3999.21631,0,.36279.15723.36279.3877Zm-.59766.00781c0,.16504.09473.28955.22852.28955.13086,0,.229-.12305.229-.29297,0-.12744-.06396-.28906-.22559-.28906-.16211,0-.23193.14941-.23193.29248Z" style="fill:#fff; stroke-width:0px;"/><path d="m11.75195,27.02686c0-.08887-.00195-.16504-.00635-.23535h.11963l.00488.14795h.00635c.03418-.10107.1167-.16504.2085-.16504.01562,0,.02637.00146.03906.00488v.12891c-.01416-.00293-.02832-.00439-.04688-.00439-.09668,0-.16504.07324-.18359.17578-.00342.01855-.00635.04053-.00635.06396v.40137h-.13525v-.51807Z" style="fill:#fff; stroke-width:0px;"/><path d="m13.24316,26.43994v.91064c0,.06689.00146.14307.00635.19434h-.12305l-.00635-.13086h-.00293c-.04199.08398-.13379.14795-.25684.14795-.18213,0-.32227-.15381-.32227-.38281-.00146-.25049.1543-.40479.33789-.40479.11523,0,.19287.05469.22705.11523h.00342v-.44971h.13672Zm-.13672.6582c0-.01709-.00195-.04053-.00635-.05762-.02051-.08691-.09521-.15869-.19775-.15869-.1416,0-.22559.12451-.22559.29102,0,.15283.07471.27881.22266.27881.0918,0,.17578-.06104.20068-.16357.00439-.01855.00635-.03711.00635-.05908v-.13086Z" style="fill:#fff; stroke-width:0px;"/><path d="m13.625,26.58008c.00146.04639-.03271.08398-.08691.08398-.04834,0-.08252-.0376-.08252-.08398,0-.04834.03564-.08594.08545-.08594.05127,0,.08398.0376.08398.08594Zm-.15234.96484v-.75342h.13672v.75342h-.13672Z" style="fill:#fff; stroke-width:0px;"/><path d="m13.81885,27.40479c.04053.02637.1123.05469.18066.05469.09961,0,.14648-.0498.14648-.1123,0-.06543-.03906-.10107-.14014-.13818-.13525-.04834-.19922-.12305-.19922-.21338,0-.12158.09814-.22119.25977-.22119.07617,0,.14355.02197.18555.04688l-.03467.09961c-.0293-.01855-.08398-.04346-.15381-.04346-.08105,0-.12598.04639-.12598.10254,0,.06201.04492.09033.14307.12744.13086.0498.19775.11523.19775.22754,0,.13232-.10303.22559-.28174.22559-.08252,0-.15869-.02051-.21191-.05127l.03418-.10449Z" style="fill:#fff; stroke-width:0px;"/><path d="m14.87256,27.54492l-.01074-.09473h-.00488c-.04199.05908-.12305.11182-.23047.11182-.15234,0-.22998-.10742-.22998-.21631,0-.18213.16162-.28174.45264-.28027v-.01562c0-.06201-.01709-.17432-.17139-.17432-.06982,0-.14307.02197-.1958.05615l-.03125-.09033c.0625-.04053.15283-.06689.24756-.06689.23047,0,.28613.15723.28613.30811v.28174c0,.06543.00342.12939.0127.18066h-.12451Zm-.02002-.38428c-.14941-.00342-.31934.02295-.31934.16943,0,.08887.05908.13086.12939.13086.09766,0,.16016-.0625.18213-.12598.00439-.01416.00781-.02979.00781-.04395v-.13037Z" style="fill:#fff; stroke-width:0px;"/><path d="m15.20117,27.54492c.00293-.05127.00635-.12744.00635-.19434v-.91064h.13525v.47314h.00293c.04834-.08398.13574-.13867.25684-.13867.18701,0,.31934.15576.31787.38477,0,.26904-.16992.40283-.33789.40283-.10889,0-.19629-.04199-.25244-.1416h-.00439l-.00635.12451h-.11816Zm.1416-.30176c0,.01709.00293.03418.00635.0498.02637.09473.10596.16016.20557.16016.14307,0,.22852-.1167.22852-.28955,0-.15088-.07764-.28027-.22412-.28027-.09326,0-.18066.06396-.2085.16846-.00293.01514-.00781.03418-.00781.05566v.13574Z" style="fill:#fff; stroke-width:0px;"/><path d="m16.09521,26.43994h.13672v1.10498h-.13672v-1.10498Z" style="fill:#fff; stroke-width:0px;"/><path d="m16.53955,27.19336c.00293.18506.12158.26123.2583.26123.09814,0,.15723-.01709.2085-.03906l.02344.09814c-.04834.02197-.13086.04688-.25049.04688-.23193,0-.37061-.15234-.37061-.37988,0-.22705.13379-.40625.35352-.40625.24561,0,.31104.21631.31104.35498,0,.02783-.00293.0498-.00439.06396h-.5293Zm.40137-.09814c.00146-.0874-.03564-.22266-.18994-.22266-.13818,0-.19922.12744-.20996.22266h.3999Z" style="fill:#fff; stroke-width:0px;"/><path d="m17.55664,27.40479c.04053.02637.1123.05469.18066.05469.09961,0,.14648-.0498.14648-.1123,0-.06543-.03906-.10107-.14014-.13818-.13525-.04834-.19922-.12305-.19922-.21338,0-.12158.09814-.22119.25977-.22119.07617,0,.14307.02197.18555.04688l-.03467.09961c-.0293-.01855-.08398-.04346-.15381-.04346-.08105,0-.12598.04639-.12598.10254,0,.06201.04492.09033.14307.12744.13086.0498.19775.11523.19775.22754,0,.13232-.10303.22559-.28174.22559-.08252,0-.15869-.02051-.21191-.05127l.03418-.10449Z" style="fill:#fff; stroke-width:0px;"/><path d="m18.26953,27.19336c.00293.18506.12109.26123.2583.26123.09814,0,.15723-.01709.2085-.03906l.02344.09814c-.04834.02197-.13086.04688-.25049.04688-.23193,0-.37061-.15234-.37061-.37988,0-.22705.13379-.40625.35352-.40625.24561,0,.31104.21631.31104.35498,0,.02783-.00293.0498-.00439.06396h-.5293Zm.40137-.09814c.00146-.0874-.03564-.22266-.18994-.22266-.13818,0-.19922.12744-.20996.22266h.3999Z" style="fill:#fff; stroke-width:0px;"/><path d="m18.9751,27.02686c0-.08887-.00146-.16504-.00635-.23535h.11963l.00488.14795h.00635c.03418-.10107.1167-.16504.2085-.16504.01562,0,.02637.00146.03857.00488v.12891c-.01367-.00293-.02783-.00439-.04639-.00439-.09668,0-.16504.07324-.18359.17578-.00342.01855-.00635.04053-.00635.06396v.40137h-.13525v-.51807Z" style="fill:#fff; stroke-width:0px;"/><path d="m19.57715,26.7915l.14795.42334c.0249.06836.04492.13086.06055.19336h.00488c.01709-.0625.03857-.125.06348-.19336l.14648-.42334h.14307l-.29541.75342h-.13086l-.28662-.75342h.14648Z" style="fill:#fff; stroke-width:0px;"/><path d="m20.42725,26.58008c.00146.04639-.03271.08398-.08691.08398-.04834,0-.08252-.0376-.08252-.08398,0-.04834.03564-.08594.08545-.08594.05127,0,.08398.0376.08398.08594Zm-.15234.96484v-.75342h.13672v.75342h-.13672Z" style="fill:#fff; stroke-width:0px;"/><path d="m21.17676,27.51709c-.03564.01855-.11523.04346-.21631.04346-.22705,0-.375-.1543-.375-.38428,0-.23193.15869-.40039.40479-.40039.08105,0,.15234.02051.18994.03906l-.03125.10596c-.03271-.01855-.08398-.03613-.15869-.03613-.17285,0-.26611.12793-.26611.28516,0,.17432.11182.28174.26123.28174.07812,0,.12939-.02051.16846-.0376l.02295.10303Z" style="fill:#fff; stroke-width:0px;"/><path d="m21.40576,27.19336c.00293.18506.12158.26123.2583.26123.09814,0,.15723-.01709.2085-.03906l.02344.09814c-.04834.02197-.13086.04688-.25049.04688-.23193,0-.37061-.15234-.37061-.37988,0-.22705.13379-.40625.35352-.40625.24561,0,.31104.21631.31104.35498,0,.02783-.00293.0498-.00439.06396h-.5293Zm.40137-.09814c.00146-.0874-.03564-.22266-.18994-.22266-.13818,0-.19922.12744-.20996.22266h.3999Z" style="fill:#fff; stroke-width:0px;"/><path d="m22.09229,27.40479c.04053.02637.1123.05469.18066.05469.09961,0,.14648-.0498.14648-.1123,0-.06543-.03906-.10107-.14014-.13818-.13525-.04834-.19922-.12305-.19922-.21338,0-.12158.09814-.22119.25977-.22119.07617,0,.14355.02197.18555.04688l-.03467.09961c-.0293-.01855-.08398-.04346-.15381-.04346-.08105,0-.12598.04639-.12598.10254,0,.06201.04492.09033.14307.12744.13086.0498.19775.11523.19775.22754,0,.13232-.10303.22559-.28174.22559-.08252,0-.15869-.02051-.21191-.05127l.03418-.10449Z" style="fill:#fff; stroke-width:0px;"/><path d="m23.47656,27.54492l-.01074-.09473h-.00488c-.04199.05908-.12305.11182-.23047.11182-.15234,0-.22998-.10742-.22998-.21631,0-.18213.16162-.28174.45264-.28027v-.01562c0-.06201-.01709-.17432-.1709-.17432-.07031,0-.14355.02197-.19629.05615l-.03125-.09033c.0625-.04053.15234-.06689.24756-.06689.23047,0,.28613.15723.28613.30811v.28174c0,.06543.00342.12939.0127.18066h-.12451Zm-.02051-.38428c-.14941-.00342-.31885.02295-.31885.16943,0,.08887.05908.13086.12939.13086.09766,0,.16016-.0625.18213-.12598.00439-.01416.00732-.02979.00732-.04395v-.13037Z" style="fill:#fff; stroke-width:0px;"/><path d="m23.79248,27.40479c.04053.02637.1123.05469.18066.05469.09961,0,.14648-.0498.14648-.1123,0-.06543-.03906-.10107-.14014-.13818-.13525-.04834-.19922-.12305-.19922-.21338,0-.12158.09814-.22119.25977-.22119.07617,0,.14355.02197.18555.04688l-.03467.09961c-.0293-.01855-.08398-.04346-.15381-.04346-.08105,0-.12598.04639-.12598.10254,0,.06201.04492.09033.14307.12744.13086.0498.19775.11523.19775.22754,0,.13232-.10303.22559-.28174.22559-.08252,0-.15869-.02051-.21191-.05127l.03418-.10449Z" style="fill:#fff; stroke-width:0px;"/><path d="m24.80957,26.7915l.16504.44531c.01709.0498.03564.10889.04785.15381h.00342c.01367-.04492.0293-.10254.04834-.15723l.14941-.44189h.14453l-.20557.53711c-.09814.2583-.16504.39062-.2583.47168-.06689.05908-.13379.08252-.16797.08838l-.03418-.11475c.03418-.01123.0791-.03271.11963-.06689.0376-.02979.08398-.08252.11523-.15283.00635-.01416.01074-.0249.01074-.03271s-.00293-.01855-.00928-.03564l-.27832-.69434h.14941Z" style="fill:#fff; stroke-width:0px;"/><path d="m26.16064,27.16211c0,.27832-.19287.3999-.375.3999-.2041,0-.36133-.14941-.36133-.3877,0-.25195.16504-.3999.37354-.3999.21631,0,.36279.15723.36279.3877Zm-.59766.00781c0,.16504.09473.28955.22852.28955.13086,0,.229-.12305.229-.29297,0-.12744-.06396-.28906-.22559-.28906-.16211,0-.23193.14941-.23193.29248Z" style="fill:#fff; stroke-width:0px;"/><path d="m26.96582,27.33936c0,.07812.00146.14648.00586.20557h-.12109l-.00781-.12305h-.00342c-.03564.06055-.11475.14014-.24902.14014-.11816,0-.25977-.06543-.25977-.33008v-.44043h.13721v.41748c0,.14307.04346.23926.16797.23926.0918,0,.15576-.06348.18066-.12451.00781-.02002.01221-.04492.01221-.06982v-.4624h.13721v.54785Z" style="fill:#fff; stroke-width:0px;"/><path d="m27.50635,27.40479c.04053.02637.1123.05469.18066.05469.09961,0,.14648-.0498.14648-.1123,0-.06543-.03906-.10107-.14014-.13818-.13525-.04834-.19922-.12305-.19922-.21338,0-.12158.09814-.22119.25977-.22119.07617,0,.14355.02197.18555.04688l-.03467.09961c-.0293-.01855-.08398-.04346-.15381-.04346-.08105,0-.12598.04639-.12598.10254,0,.06201.04492.09033.14307.12744.13086.0498.19775.11523.19775.22754,0,.13232-.10303.22559-.28174.22559-.08252,0-.15869-.02051-.21191-.05127l.03418-.10449Z" style="fill:#fff; stroke-width:0px;"/><path d="m28.21924,27.19336c.00293.18506.12158.26123.2583.26123.09814,0,.15723-.01709.2085-.03906l.02344.09814c-.04834.02197-.13086.04688-.25049.04688-.23193,0-.37061-.15234-.37061-.37988,0-.22705.13379-.40625.35352-.40625.24561,0,.31104.21631.31104.35498,0,.02783-.00293.0498-.00439.06396h-.5293Zm.40137-.09814c.00146-.0874-.03564-.22266-.18994-.22266-.13818,0-.19922.12744-.20996.22266h.3999Z" style="fill:#fff; stroke-width:0px;"/><path d="m29.00098,27.19336c.00293.18506.12109.26123.2583.26123.09814,0,.15723-.01709.2085-.03906l.02344.09814c-.04834.02197-.13086.04688-.25049.04688-.23193,0-.37061-.15234-.37061-.37988,0-.22705.13379-.40625.35352-.40625.24561,0,.31104.21631.31104.35498,0,.02783-.00293.0498-.00439.06396h-.5293Zm.40137-.09814c.00146-.0874-.03564-.22266-.18994-.22266-.13818,0-.19922.12744-.20996.22266h.3999Z" style="fill:#fff; stroke-width:0px;"/><path d="m30.05078,27.54492v-.64893h-.10547v-.10449h.10547v-.04053c0-.19922.1167-.32812.32861-.32812.06982,0,.15234.02148.19141.0498l-.03906.104c-.03271-.02295-.0918-.04346-.15869-.04346-.14453,0-.18652.10107-.18652.22119v.03711h.43701v.75342h-.13525v-.64893h-.30176v.64893h-.13574Z" style="fill:#fff; stroke-width:0px;"/><path d="m31.01807,26.5752v.21631h.1958v.10449h-.1958v.40625c0,.09326.02637.146.10254.146.03564,0,.06201-.00439.07959-.00928l.00586.10303c-.02637.01074-.06836.01855-.12109.01855-.06396,0-.11523-.02051-.14795-.05762-.03906-.04053-.05322-.10742-.05322-.19629v-.41064h-.1167v-.10449h.1167v-.18018l.13428-.03613Z" style="fill:#fff; stroke-width:0px;"/><path d="m31.33154,27.46387c0-.05762.03857-.09814.09326-.09814s.0918.04053.0918.09814c0,.05615-.03564.09814-.09326.09814-.05469,0-.0918-.04199-.0918-.09814Z" style="fill:#fff; stroke-width:0px;"/><path d="m32.15723,26.61133h-.31885v-.11523h.77637v.11523h-.32031v.93359h-.13721v-.93359Z" style="fill:#fff; stroke-width:0px;"/><path d="m33.2998,27.16211c0,.27832-.19238.3999-.37451.3999-.2041,0-.36133-.14941-.36133-.3877,0-.25195.16504-.3999.37354-.3999.2168,0,.3623.15723.3623.3877Zm-.59717.00781c0,.16504.09473.28955.22852.28955.13135,0,.229-.12305.229-.29297,0-.12744-.06348-.28906-.22559-.28906s-.23193.14941-.23193.29248Z" style="fill:#fff; stroke-width:0px;"/><path d="m33.80566,26.43994h.1377v1.10498h-.1377v-1.10498Z" style="fill:#fff; stroke-width:0px;"/><path d="m34.25,27.19336c.00391.18506.12207.26123.25879.26123.09766,0,.15723-.01709.20898-.03906l.02246.09814c-.04785.02197-.12988.04688-.25.04688-.23242,0-.37012-.15234-.37012-.37988,0-.22705.13379-.40625.35254-.40625.24609,0,.31152.21631.31152.35498,0,.02783-.00293.0498-.00488.06396h-.5293Zm.40234-.09814c.00098-.0874-.03613-.22266-.19043-.22266-.13867,0-.19922.12744-.20996.22266h.40039Z" style="fill:#fff; stroke-width:0px;"/><path d="m35.37207,27.54492l-.01074-.09473h-.00391c-.04297.05908-.12305.11182-.23047.11182-.15332,0-.23047-.10742-.23047-.21631,0-.18213.16211-.28174.45312-.28027v-.01562c0-.06201-.01758-.17432-.17188-.17432-.06934,0-.14258.02197-.19629.05615l-.03027-.09033c.06152-.04053.15234-.06689.24707-.06689.23047,0,.28613.15723.28613.30811v.28174c0,.06543.00293.12939.0127.18066h-.125Zm-.01953-.38428c-.14941-.00342-.31934.02295-.31934.16943,0,.08887.05957.13086.12891.13086.09863,0,.16016-.0625.18262-.12598.00488-.01416.00781-.02979.00781-.04395v-.13037Z" style="fill:#fff; stroke-width:0px;"/><path d="m35.70703,27.02686c0-.08887-.00098-.16504-.00586-.23535h.12012l.00391.14795h.00684c.03418-.10107.11621-.16504.20801-.16504.01562,0,.02637.00146.03906.00488v.12891c-.01367-.00293-.02734-.00439-.04688-.00439-.0957,0-.16504.07324-.18359.17578-.00293.01855-.00586.04053-.00586.06396v.40137h-.13574v-.51807Z" style="fill:#fff; stroke-width:0px;"/><path d="m36.22266,26.99561c0-.07812-.00098-.1416-.00586-.2041h.12109l.00781.12451h.00293c.03809-.07129.125-.1416.24902-.1416.10449,0,.2666.0625.2666.3208v.44971h-.13672v-.43408c0-.12158-.0459-.22266-.1748-.22266-.08984,0-.16016.06396-.18359.14014-.00586.01709-.00879.04053-.00879.06348v.45312h-.1377v-.54932Z" style="fill:#fff; stroke-width:0px;"/><path d="m37.41992,26.99561c0-.07812-.00098-.1416-.00586-.2041h.12012l.00586.12158h.00488c.04199-.07178.1123-.13867.23633-.13867.10254,0,.18066.0625.21289.15088h.00391c.02344-.04199.05273-.07471.08398-.09766.04492-.03467.09473-.05322.16602-.05322.09961,0,.24805.06543.24805.32715v.44336h-.13379v-.42627c0-.14502-.05371-.23193-.16406-.23193-.07715,0-.13867.05762-.16211.12451-.00586.01855-.01074.04346-.01074.06836v.46533h-.13379v-.45117c0-.12012-.05273-.20703-.15723-.20703-.08496,0-.14746.06836-.16895.13672-.00781.02051-.01172.04346-.01172.06689v.45459h-.13379v-.54932Z" style="fill:#fff; stroke-width:0px;"/><path d="m39.40234,27.16211c0,.27832-.19238.3999-.375.3999-.20312,0-.36035-.14941-.36035-.3877,0-.25195.16504-.3999.37305-.3999.2168,0,.3623.15723.3623.3877Zm-.59766.00781c0,.16504.0957.28955.22949.28955.13086,0,.22852-.12305.22852-.29297,0-.12744-.06348-.28906-.22559-.28906s-.23242.14941-.23242.29248Z" style="fill:#fff; stroke-width:0px;"/><path d="m39.57715,27.02686c0-.08887-.00098-.16504-.00586-.23535h.12012l.00391.14795h.00684c.03418-.10107.11621-.16504.20801-.16504.01562,0,.02734.00146.03906.00488v.12891c-.01367-.00293-.02734-.00439-.04688-.00439-.0957,0-.16406.07324-.18359.17578-.00293.01855-.00586.04053-.00586.06396v.40137h-.13574v-.51807Z" style="fill:#fff; stroke-width:0px;"/><path d="m40.14746,27.19336c.00391.18506.12207.26123.25879.26123.09766,0,.15723-.01709.20898-.03906l.02246.09814c-.04785.02197-.12988.04688-.25.04688-.23242,0-.37012-.15234-.37012-.37988,0-.22705.13379-.40625.35254-.40625.24609,0,.31152.21631.31152.35498,0,.02783-.00293.0498-.00488.06396h-.5293Zm.40234-.09814c.00098-.0874-.03613-.22266-.19043-.22266-.13867,0-.19922.12744-.20996.22266h.40039Z" style="fill:#fff; stroke-width:0px;"/><path d="m40.74609,27.73633c.03418-.0918.07617-.2583.09277-.37207l.15234-.01562c-.03516.13232-.10352.30518-.14746.37842l-.09766.00928Z" style="fill:#fff; stroke-width:0px;"/><path d="m6.14209,28.90967c0-.09668-.00342-.17432-.00635-.24609h.12305l.00586.12939h.00342c.05615-.0918.14453-.14648.26758-.14648.18213,0,.31934.1543.31934.38281,0,.271-.16504.40479-.34277.40479-.09961,0-.18652-.04346-.23193-.11816h-.00293v.40918h-.13525v-.81543Zm.13525.20068c0,.02051.00293.03906.00635.05615.0249.09473.10742.16016.20557.16016.14453,0,.22852-.11816.22852-.29102,0-.15088-.0791-.28027-.22412-.28027-.09326,0-.18066.06689-.20703.16992-.00439.01709-.00928.03711-.00928.05615v.12891Z" style="fill:#fff; stroke-width:0px;"/><path d="m7.02979,28.31201h.13672v1.10498h-.13672v-1.10498Z" style="fill:#fff; stroke-width:0px;"/><path d="m7.47412,29.06543c.00293.18506.12158.26123.2583.26123.09814,0,.15723-.01709.2085-.03906l.02344.09814c-.04834.02197-.13086.04688-.25049.04688-.23193,0-.37061-.15234-.37061-.37988,0-.22705.13379-.40625.35352-.40625.24561,0,.31104.21631.31104.35498,0,.02783-.00293.0498-.00439.06396h-.5293Zm.40137-.09814c.00146-.0874-.03564-.22266-.18994-.22266-.13818,0-.19922.12744-.20996.22266h.3999Z" style="fill:#fff; stroke-width:0px;"/><path d="m8.59668,29.41699l-.01074-.09473h-.00488c-.04199.05908-.12305.11182-.23047.11182-.15234,0-.22998-.10742-.22998-.21631,0-.18213.16162-.28174.45264-.28027v-.01562c0-.06201-.01709-.17432-.1709-.17432-.07031,0-.14355.02197-.19629.05615l-.03125-.09033c.0625-.04053.15234-.06689.24756-.06689.23047,0,.28613.15723.28613.30811v.28174c0,.06543.00342.12939.0127.18066h-.12451Zm-.02051-.38428c-.14941-.00342-.31885.02295-.31885.16943,0,.08887.05908.13086.12939.13086.09766,0,.16016-.0625.18213-.12598.00439-.01416.00732-.02979.00732-.04395v-.13037Z" style="fill:#fff; stroke-width:0px;"/><path d="m8.9126,29.27686c.04053.02637.1123.05469.18066.05469.09961,0,.14648-.0498.14648-.1123,0-.06543-.03906-.10107-.14014-.13818-.13525-.04834-.19922-.12305-.19922-.21338,0-.12158.09814-.22119.25977-.22119.07617,0,.14355.02197.18555.04688l-.03467.09961c-.0293-.01855-.08398-.04346-.15381-.04346-.08105,0-.12598.04639-.12598.10254,0,.06201.04492.09033.14307.12744.13086.0498.19775.11523.19775.22754,0,.13232-.10303.22559-.28174.22559-.08252,0-.15869-.02051-.21191-.05127l.03418-.10449Z" style="fill:#fff; stroke-width:0px;"/><path d="m9.62549,29.06543c.00293.18506.12158.26123.2583.26123.09814,0,.15723-.01709.2085-.03906l.02344.09814c-.04834.02197-.13086.04688-.25049.04688-.23193,0-.37061-.15234-.37061-.37988,0-.22705.13379-.40625.35352-.40625.24561,0,.31104.21631.31104.35498,0,.02783-.00293.0498-.00439.06396h-.5293Zm.40137-.09814c.00146-.0874-.03564-.22266-.18994-.22266-.13818,0-.19922.12744-.20996.22266h.3999Z" style="fill:#fff; stroke-width:0px;"/><path d="m10.66162,28.89893c0-.08887-.00146-.16504-.00635-.23535h.11963l.00488.14795h.00635c.03418-.10107.1167-.16504.2085-.16504.01562,0,.02637.00146.03857.00488v.12891c-.01367-.00293-.02783-.00439-.04639-.00439-.09668,0-.16504.07324-.18359.17578-.00342.01855-.00635.04053-.00635.06396v.40137h-.13525v-.51807Z" style="fill:#fff; stroke-width:0px;"/><path d="m11.23242,29.06543c.00293.18506.12109.26123.2583.26123.09814,0,.15723-.01709.2085-.03906l.02344.09814c-.04834.02197-.13086.04688-.25049.04688-.23193,0-.37061-.15234-.37061-.37988,0-.22705.13379-.40625.35352-.40625.24561,0,.31104.21631.31104.35498,0,.02783-.00293.0498-.00439.06396h-.5293Zm.40137-.09814c.00146-.0874-.03564-.22266-.18994-.22266-.13818,0-.19922.12744-.20996.22266h.3999Z" style="fill:#fff; stroke-width:0px;"/><path d="m12.35498,29.41699l-.01074-.09473h-.00488c-.04199.05908-.12305.11182-.23047.11182-.15234,0-.22998-.10742-.22998-.21631,0-.18213.16162-.28174.45264-.28027v-.01562c0-.06201-.01709-.17432-.17139-.17432-.06982,0-.14307.02197-.1958.05615l-.03125-.09033c.0625-.04053.15283-.06689.24756-.06689.23047,0,.28613.15723.28613.30811v.28174c0,.06543.00342.12939.0127.18066h-.12451Zm-.02002-.38428c-.14941-.00342-.31934.02295-.31934.16943,0,.08887.05908.13086.12939.13086.09766,0,.16016-.0625.18213-.12598.00439-.01416.00781-.02979.00781-.04395v-.13037Z" style="fill:#fff; stroke-width:0px;"/><path d="m13.34033,28.31201v.91064c0,.06689.00146.14307.00635.19434h-.12305l-.00635-.13086h-.00293c-.04199.08398-.13379.14795-.25684.14795-.18213,0-.32227-.15381-.32227-.38281-.00146-.25049.1543-.40479.33789-.40479.11523,0,.19287.05469.22705.11523h.00342v-.44971h.13672Zm-.13672.6582c0-.01709-.00195-.04053-.00635-.05762-.02051-.08691-.09521-.15869-.19775-.15869-.1416,0-.22559.12451-.22559.29102,0,.15283.07471.27881.22266.27881.0918,0,.17578-.06104.20068-.16357.00439-.01855.00635-.03711.00635-.05908v-.13086Z" style="fill:#fff; stroke-width:0px;"/><path d="m14.58203,29.03418c0,.27832-.19287.3999-.375.3999-.2041,0-.36133-.14941-.36133-.3877,0-.25195.16504-.3999.37354-.3999.21631,0,.36279.15723.36279.3877Zm-.59766.00781c0,.16504.09473.28955.22852.28955.13086,0,.229-.12305.229-.29297,0-.12744-.06396-.28906-.22559-.28906-.16211,0-.23193.14941-.23193.29248Z" style="fill:#fff; stroke-width:0px;"/><path d="m15.38721,29.21143c0,.07812.00146.14648.00586.20557h-.12109l-.00781-.12305h-.00342c-.03564.06055-.11475.14014-.24902.14014-.11816,0-.25977-.06543-.25977-.33008v-.44043h.13721v.41748c0,.14307.04346.23926.16797.23926.0918,0,.15576-.06348.18066-.12451.00781-.02002.01221-.04492.01221-.06982v-.4624h.13721v.54785Z" style="fill:#fff; stroke-width:0px;"/><path d="m15.61621,28.89893c0-.08887-.00195-.16504-.00635-.23535h.11963l.00488.14795h.00635c.03418-.10107.1167-.16504.2085-.16504.01562,0,.02637.00146.03906.00488v.12891c-.01416-.00293-.02832-.00439-.04688-.00439-.09668,0-.16504.07324-.18359.17578-.00342.01855-.00635.04053-.00635.06396v.40137h-.13525v-.51807Z" style="fill:#fff; stroke-width:0px;"/><path d="m16.45703,28.90967c0-.09668-.00342-.17432-.00635-.24609h.12305l.00635.12939h.00293c.05615-.0918.14453-.14648.26758-.14648.18213,0,.31934.1543.31934.38281,0,.271-.16504.40479-.34277.40479-.09961,0-.18652-.04346-.23193-.11816h-.00293v.40918h-.13525v-.81543Zm.13525.20068c0,.02051.00293.03906.00635.05615.0249.09473.10742.16016.20508.16016.14502,0,.229-.11816.229-.29102,0-.15088-.07959-.28027-.22412-.28027-.09326,0-.18066.06689-.20703.16992-.00439.01709-.00928.03711-.00928.05615v.12891Z" style="fill:#1a936f; stroke-width:0px;"/><path d="m17.34473,28.89893c0-.08887-.00195-.16504-.00635-.23535h.11963l.00488.14795h.00635c.03418-.10107.1167-.16504.2085-.16504.01562,0,.02637.00146.03906.00488v.12891c-.01416-.00293-.02832-.00439-.04688-.00439-.09668,0-.16504.07324-.18359.17578-.00342.01855-.00635.04053-.00635.06396v.40137h-.13525v-.51807Z" style="fill:#1a936f; stroke-width:0px;"/><path d="m18.01367,28.45215c.00146.04639-.03271.08398-.08691.08398-.04834,0-.08252-.0376-.08252-.08398,0-.04834.03564-.08594.08545-.08594.05127,0,.08398.0376.08398.08594Zm-.15234.96484v-.75342h.13672v.75342h-.13672Z" style="fill:#1a936f; stroke-width:0px;"/><path d="m18.2793,28.66357l.14795.42334c.0249.06836.04492.13086.06055.19336h.00488c.01709-.0625.03857-.125.06348-.19336l.14648-.42334h.14307l-.29541.75342h-.13086l-.28662-.75342h.14648Z" style="fill:#1a936f; stroke-width:0px;"/><path d="m19.3877,29.41699l-.01074-.09473h-.00488c-.04199.05908-.12305.11182-.23047.11182-.15234,0-.22998-.10742-.22998-.21631,0-.18213.16162-.28174.45264-.28027v-.01562c0-.06201-.01709-.17432-.1709-.17432-.07031,0-.14355.02197-.19629.05615l-.03125-.09033c.0625-.04053.15234-.06689.24756-.06689.23047,0,.28613.15723.28613.30811v.28174c0,.06543.00342.12939.0127.18066h-.12451Zm-.02051-.38428c-.14941-.00342-.31885.02295-.31885.16943,0,.08887.05908.13086.12939.13086.09766,0,.16016-.0625.18213-.12598.00439-.01416.00732-.02979.00732-.04395v-.13037Z" style="fill:#1a936f; stroke-width:0px;"/><path d="m20.25928,29.38916c-.03564.01855-.11475.04346-.21631.04346-.22705,0-.375-.1543-.375-.38428,0-.23193.15869-.40039.40479-.40039.08105,0,.15234.02051.18994.03906l-.03125.10596c-.03271-.01855-.08398-.03613-.15869-.03613-.17285,0-.26611.12793-.26611.28516,0,.17432.11182.28174.26123.28174.07812,0,.12939-.02051.16846-.0376l.02295.10303Z" style="fill:#1a936f; stroke-width:0px;"/><path d="m20.49951,28.66357l.16504.44531c.01709.0498.03564.10889.04785.15381h.00342c.01367-.04492.0293-.10254.04834-.15723l.14941-.44189h.14453l-.20557.53711c-.09814.2583-.16504.39062-.2583.47168-.06689.05908-.13379.08252-.16797.08838l-.03418-.11475c.03418-.01123.0791-.03271.11963-.06689.0376-.02979.08398-.08252.11523-.15283.00635-.01416.01074-.0249.01074-.03271s-.00293-.01855-.00928-.03564l-.27832-.69434h.14941Z" style="fill:#1a936f; stroke-width:0px;"/><path d="m21.51514,28.90967c0-.09668-.00342-.17432-.00635-.24609h.12305l.00586.12939h.00342c.05615-.0918.14453-.14648.26758-.14648.18213,0,.31934.1543.31934.38281,0,.271-.16504.40479-.34277.40479-.09961,0-.18652-.04346-.23193-.11816h-.00293v.40918h-.13525v-.81543Zm.13525.20068c0,.02051.00293.03906.00635.05615.0249.09473.10742.16016.20557.16016.14453,0,.22852-.11816.22852-.29102,0-.15088-.0791-.28027-.22412-.28027-.09326,0-.18066.06689-.20703.16992-.00439.01709-.00928.03711-.00928.05615v.12891Z" style="fill:#1a936f; stroke-width:0px;"/><path d="m23.08447,29.03418c0,.27832-.19287.3999-.375.3999-.2041,0-.36133-.14941-.36133-.3877,0-.25195.16504-.3999.37354-.3999.21631,0,.36279.15723.36279.3877Zm-.59766.00781c0,.16504.09473.28955.22852.28955.13086,0,.229-.12305.229-.29297,0-.12744-.06396-.28906-.22559-.28906-.16211,0-.23193.14941-.23193.29248Z" style="fill:#1a936f; stroke-width:0px;"/><path d="m23.25928,28.31201h.13672v1.10498h-.13672v-1.10498Z" style="fill:#1a936f; stroke-width:0px;"/><path d="m23.77979,28.45215c.00146.04639-.03271.08398-.08691.08398-.04834,0-.08252-.0376-.08252-.08398,0-.04834.03564-.08594.08545-.08594.05127,0,.08398.0376.08398.08594Zm-.15234.96484v-.75342h.13672v.75342h-.13672Z" style="fill:#1a936f; stroke-width:0px;"/><path d="m24.5293,29.38916c-.03564.01855-.11523.04346-.21631.04346-.22705,0-.375-.1543-.375-.38428,0-.23193.15869-.40039.40479-.40039.08105,0,.15234.02051.18994.03906l-.03125.10596c-.03271-.01855-.08398-.03613-.15869-.03613-.17285,0-.26611.12793-.26611.28516,0,.17432.11182.28174.26123.28174.07812,0,.12939-.02051.16846-.0376l.02295.10303Z" style="fill:#1a936f; stroke-width:0px;"/><path d="m24.76904,28.66357l.16504.44531c.01709.0498.03564.10889.04785.15381h.00342c.01367-.04492.0293-.10254.04834-.15723l.14941-.44189h.14453l-.20557.53711c-.09814.2583-.16504.39062-.2583.47168-.06689.05908-.13379.08252-.16797.08838l-.03418-.11475c.03418-.01123.0791-.03271.11963-.06689.0376-.02979.08398-.08252.11523-.15283.00635-.01416.01074-.0249.01074-.03271s-.00293-.01855-.00928-.03564l-.27832-.69434h.14941Z" style="fill:#1a936f; stroke-width:0px;"/><path d="m25.36035,29.33594c0-.05762.03857-.09814.09326-.09814s.0918.04053.0918.09814c0,.05615-.03564.09814-.09326.09814-.05469,0-.0918-.04199-.0918-.09814Z" style="fill:#fff; stroke-width:0px;"/><path d="m8.78809,34.9209v1.04883h-.13574v-1.04883h.13574Z" style="fill:#fff; stroke-width:0px;"/><path d="m10.00195,34.86475v.91064c0,.06689.00146.14307.00635.19434h-.12305l-.00635-.13086h-.00293c-.04199.08398-.13379.14795-.25684.14795-.18213,0-.32227-.15381-.32227-.38281-.00146-.25049.1543-.40479.33789-.40479.11523,0,.19287.05469.22705.11523h.00342v-.44971h.13672Zm-.13672.6582c0-.01709-.00195-.04053-.00635-.05762-.02051-.08691-.09521-.15869-.19775-.15869-.1416,0-.22559.12451-.22559.29102,0,.15283.07471.27881.22266.27881.0918,0,.17578-.06104.20068-.16357.00439-.01855.00635-.03711.00635-.05908v-.13086Z" style="fill:#fff; stroke-width:0px;"/><path d="m10.30762,35.61816c.00293.18506.12109.26123.2583.26123.09814,0,.15723-.01709.2085-.03906l.02344.09814c-.04834.02197-.13086.04688-.25049.04688-.23193,0-.37061-.15234-.37061-.37988,0-.22705.13379-.40625.35352-.40625.24561,0,.31104.21631.31104.35498,0,.02783-.00293.0498-.00439.06396h-.5293Zm.40137-.09814c.00146-.0874-.03564-.22266-.18994-.22266-.13818,0-.19922.12744-.20996.22266h.3999Z" style="fill:#fff; stroke-width:0px;"/><path d="m11.54932,35.94189c-.03564.01855-.11475.04346-.21631.04346-.22705,0-.375-.1543-.375-.38428,0-.23193.15869-.40039.40479-.40039.08105,0,.15234.02051.18994.03906l-.03125.10596c-.03271-.01855-.08398-.03613-.15869-.03613-.17285,0-.26611.12793-.26611.28516,0,.17432.11182.28174.26123.28174.07812,0,.12939-.02051.16846-.0376l.02295.10303Z" style="fill:#fff; stroke-width:0px;"/><path d="m11.71191,34.86475h.13672v1.10498h-.13672v-1.10498Z" style="fill:#fff; stroke-width:0px;"/><path d="m12.23242,35.00488c.00146.04639-.03271.08398-.08691.08398-.04834,0-.08252-.0376-.08252-.08398,0-.04834.03564-.08594.08545-.08594.05127,0,.08398.0376.08398.08594Zm-.15234.96484v-.75342h.13672v.75342h-.13672Z" style="fill:#fff; stroke-width:0px;"/><path d="m12.44482,35.42041c0-.07812-.00146-.1416-.00635-.2041h.12158l.00732.12451h.00342c.03711-.07129.12451-.1416.24902-.1416.104,0,.26611.0625.26611.3208v.44971h-.13721v-.43408c0-.12158-.04492-.22266-.17432-.22266-.08984,0-.16016.06396-.18359.14014-.00586.01709-.00928.04053-.00928.06348v.45312h-.13672v-.54932Z" style="fill:#fff; stroke-width:0px;"/><path d="m13.38672,35.61816c.00293.18506.12109.26123.2583.26123.09814,0,.15723-.01709.2085-.03906l.02344.09814c-.04834.02197-.13086.04688-.25049.04688-.23193,0-.37061-.15234-.37061-.37988,0-.22705.13379-.40625.35352-.40625.24561,0,.31104.21631.31104.35498,0,.02783-.00293.0498-.00439.06396h-.5293Zm.40137-.09814c.00146-.0874-.03564-.22266-.18994-.22266-.13818,0-.19922.12744-.20996.22266h.3999Z" style="fill:#fff; stroke-width:0px;"/><path d="m20.20508,35.98828l-.01074-.09473h-.00488c-.04199.05908-.12305.11182-.23047.11182-.15234,0-.22998-.10742-.22998-.21631,0-.18213.16162-.28174.45264-.28027v-.01562c0-.06201-.01709-.17432-.1709-.17432-.07031,0-.14355.02197-.19629.05615l-.03125-.09033c.0625-.04053.15234-.06689.24756-.06689.23047,0,.28613.15723.28613.30811v.28174c0,.06543.00342.12939.0127.18066h-.12451Zm-.02051-.38428c-.14941-.00342-.31885.02295-.31885.16943,0,.08887.05908.13086.12939.13086.09766,0,.16016-.0625.18213-.12598.00439-.01416.00732-.02979.00732-.04395v-.13037Z" style="fill:#fff; stroke-width:0px;"/><path d="m21.07666,35.96045c-.03564.01855-.11475.04346-.21631.04346-.22705,0-.375-.1543-.375-.38428,0-.23193.15869-.40039.40479-.40039.08105,0,.15234.02051.18994.03906l-.03125.10596c-.03271-.01855-.08398-.03613-.15869-.03613-.17285,0-.26611.12793-.26611.28516,0,.17432.11182.28174.26123.28174.07812,0,.12939-.02051.16846-.0376l.02295.10303Z" style="fill:#fff; stroke-width:0px;"/><path d="m21.76611,35.96045c-.03564.01855-.11475.04346-.21631.04346-.22705,0-.375-.1543-.375-.38428,0-.23193.15869-.40039.40479-.40039.08105,0,.15234.02051.18994.03906l-.03125.10596c-.03271-.01855-.08398-.03613-.15869-.03613-.17285,0-.26611.12793-.26611.28516,0,.17432.11182.28174.26123.28174.07812,0,.12939-.02051.16846-.0376l.02295.10303Z" style="fill:#fff; stroke-width:0px;"/><path d="m21.99512,35.63672c.00293.18506.12109.26123.2583.26123.09814,0,.15723-.01709.2085-.03906l.02344.09814c-.04834.02197-.13086.04688-.25049.04688-.23193,0-.37061-.15234-.37061-.37988,0-.22705.13379-.40625.35352-.40625.24561,0,.31104.21631.31104.35498,0,.02783-.00293.0498-.00439.06396h-.5293Zm.40137-.09814c.00146-.0874-.03564-.22266-.18994-.22266-.13818,0-.19922.12744-.20996.22266h.3999Z" style="fill:#fff; stroke-width:0px;"/><path d="m22.70068,35.48096c0-.09668-.00342-.17432-.00635-.24609h.12305l.00586.12939h.00342c.05615-.0918.14453-.14648.26758-.14648.18213,0,.31934.1543.31934.38281,0,.271-.16504.40479-.34277.40479-.09961,0-.18652-.04346-.23193-.11816h-.00293v.40918h-.13525v-.81543Zm.13525.20068c0,.02051.00293.03906.00635.05615.0249.09473.10742.16016.20557.16016.14453,0,.22852-.11816.22852-.29102,0-.15088-.0791-.28027-.22412-.28027-.09326,0-.18066.06689-.20703.16992-.00439.01709-.00928.03711-.00928.05615v.12891Z" style="fill:#fff; stroke-width:0px;"/><path d="m23.75342,35.01855v.21631h.1958v.10449h-.1958v.40625c0,.09326.02637.146.10254.146.03564,0,.06201-.00439.07959-.00928l.00586.10303c-.02637.01074-.06836.01855-.12109.01855-.06396,0-.11523-.02051-.14795-.05762-.03906-.04053-.05322-.10742-.05322-.19629v-.41064h-.1167v-.10449h.1167v-.18018l.13428-.03613Z" style="fill:#fff; stroke-width:0px;"/><path d="m24.41602,35.84814c.04053.02637.1123.05469.18066.05469.09961,0,.14648-.0498.14648-.1123,0-.06543-.03906-.10107-.14014-.13818-.13525-.04834-.19922-.12305-.19922-.21338,0-.12158.09814-.22119.25977-.22119.07617,0,.14307.02197.18555.04688l-.03467.09961c-.0293-.01855-.08398-.04346-.15381-.04346-.08105,0-.12598.04639-.12598.10254,0,.06201.04492.09033.14307.12744.13086.0498.19775.11523.19775.22754,0,.13232-.10303.22559-.28174.22559-.08252,0-.15869-.02051-.21191-.05127l.03418-.10449Z" style="fill:#fff; stroke-width:0px;"/><path d="m25.12891,35.63672c.00293.18506.12109.26123.2583.26123.09814,0,.15723-.01709.2085-.03906l.02344.09814c-.04834.02197-.13086.04688-.25049.04688-.23193,0-.37061-.15234-.37061-.37988,0-.22705.13379-.40625.35352-.40625.24561,0,.31104.21631.31104.35498,0,.02783-.00293.0498-.00439.06396h-.5293Zm.40137-.09814c.00146-.0874-.03564-.22266-.18994-.22266-.13818,0-.19922.12744-.20996.22266h.3999Z" style="fill:#fff; stroke-width:0px;"/><path d="m25.83447,34.8833h.13672v1.10498h-.13672v-1.10498Z" style="fill:#fff; stroke-width:0px;"/><path d="m26.27881,35.63672c.00293.18506.12158.26123.2583.26123.09814,0,.15723-.01709.2085-.03906l.02344.09814c-.04834.02197-.13086.04688-.25049.04688-.23193,0-.37061-.15234-.37061-.37988,0-.22705.13379-.40625.35352-.40625.24561,0,.31104.21631.31104.35498,0,.02783-.00293.0498-.00439.06396h-.5293Zm.40137-.09814c.00146-.0874-.03564-.22266-.18994-.22266-.13818,0-.19922.12744-.20996.22266h.3999Z" style="fill:#fff; stroke-width:0px;"/><path d="m27.521,35.96045c-.03564.01855-.11475.04346-.21631.04346-.22705,0-.375-.1543-.375-.38428,0-.23193.15869-.40039.40479-.40039.08105,0,.15234.02051.18994.03906l-.03125.10596c-.03271-.01855-.08398-.03613-.15869-.03613-.17285,0-.26611.12793-.26611.28516,0,.17432.11182.28174.26123.28174.07812,0,.12939-.02051.16846-.0376l.02295.10303Z" style="fill:#fff; stroke-width:0px;"/><path d="m27.86816,35.01855v.21631h.1958v.10449h-.1958v.40625c0,.09326.02637.146.10254.146.03564,0,.06201-.00439.0791-.00928l.00635.10303c-.02637.01074-.06836.01855-.12109.01855-.06396,0-.11523-.02051-.14795-.05762-.03906-.04053-.05322-.10742-.05322-.19629v-.41064h-.1167v-.10449h.1167v-.18018l.13428-.03613Z" style="fill:#fff; stroke-width:0px;"/><path d="m28.18213,35.90723c0-.05762.03857-.09814.09326-.09814s.0918.04053.0918.09814c0,.05615-.03564.09814-.09326.09814-.05469,0-.0918-.04199-.0918-.09814Z" style="fill:#fff; stroke-width:0px;"/><path d="m34.39258,35.96973l-.01074-.09473h-.00391c-.04199.05908-.12305.11182-.23047.11182-.15332,0-.23047-.10742-.23047-.21631,0-.18213.16211-.28174.45312-.28027v-.01562c0-.06201-.01758-.17432-.17188-.17432-.06934,0-.14258.02197-.19629.05615l-.03027-.09033c.06152-.04053.15234-.06689.24707-.06689.23047,0,.28613.15723.28613.30811v.28174c0,.06543.00293.12939.0127.18066h-.125Zm-.01953-.38428c-.14941-.00342-.31934.02295-.31934.16943,0,.08887.05957.13086.12891.13086.09863,0,.16016-.0625.18262-.12598.00488-.01416.00781-.02979.00781-.04395v-.13037Z" style="fill:#fff; stroke-width:0px;"/><path d="m35.26465,35.94189c-.03516.01855-.11523.04346-.21582.04346-.22754,0-.375-.1543-.375-.38428,0-.23193.1582-.40039.4043-.40039.08105,0,.15234.02051.18945.03906l-.03125.10596c-.03223-.01855-.08398-.03613-.1582-.03613-.17285,0-.2666.12793-.2666.28516,0,.17432.1123.28174.26172.28174.07812,0,.12891-.02051.16797-.0376l.02344.10303Z" style="fill:#fff; stroke-width:0px;"/><path d="m35.9541,35.94189c-.03516.01855-.11523.04346-.21582.04346-.22754,0-.375-.1543-.375-.38428,0-.23193.1582-.40039.4043-.40039.08105,0,.15234.02051.18945.03906l-.03125.10596c-.03223-.01855-.08398-.03613-.1582-.03613-.17285,0-.2666.12793-.2666.28516,0,.17432.1123.28174.26172.28174.07812,0,.12891-.02051.16797-.0376l.02344.10303Z" style="fill:#fff; stroke-width:0px;"/><path d="m36.18262,35.61816c.00391.18506.12207.26123.25879.26123.09766,0,.15723-.01709.20898-.03906l.02246.09814c-.04785.02197-.12988.04688-.25.04688-.23242,0-.37012-.15234-.37012-.37988,0-.22705.13379-.40625.35254-.40625.24609,0,.31152.21631.31152.35498,0,.02783-.00293.0498-.00488.06396h-.5293Zm.40234-.09814c.00098-.0874-.03613-.22266-.19043-.22266-.13867,0-.19922.12744-.20996.22266h.40039Z" style="fill:#fff; stroke-width:0px;"/><path d="m36.8877,35.4624c0-.09668-.00293-.17432-.00586-.24609h.12305l.00586.12939h.00293c.05664-.0918.14551-.14648.26855-.14648.18164,0,.31836.1543.31836.38281,0,.271-.16504.40479-.3418.40479-.09961,0-.1875-.04346-.23242-.11816h-.00293v.40918h-.13574v-.81543Zm.13574.20068c0,.02051.00293.03906.00586.05615.02539.09473.10742.16016.20605.16016.14453,0,.22852-.11816.22852-.29102,0-.15088-.0791-.28027-.22363-.28027-.09375,0-.18066.06689-.20703.16992-.00488.01709-.00977.03711-.00977.05615v.12891Z" style="fill:#fff; stroke-width:0px;"/><path d="m37.94043,35v.21631h.19629v.10449h-.19629v.40625c0,.09326.02637.146.10254.146.03613,0,.0625-.00439.08008-.00928l.00586.10303c-.02637.01074-.06836.01855-.12109.01855-.06445,0-.11523-.02051-.14844-.05762-.03809-.04053-.05273-.10742-.05273-.19629v-.41064h-.11621v-.10449h.11621v-.18018l.13379-.03613Z" style="fill:#fff; stroke-width:0px;"/><path d="m39.04004,35.96973l-.01074-.09473h-.00391c-.04297.05908-.12305.11182-.23047.11182-.15332,0-.23047-.10742-.23047-.21631,0-.18213.16211-.28174.45312-.28027v-.01562c0-.06201-.01758-.17432-.17188-.17432-.06934,0-.14258.02197-.19629.05615l-.03027-.09033c.06152-.04053.15234-.06689.24707-.06689.23047,0,.28613.15723.28613.30811v.28174c0,.06543.00293.12939.0127.18066h-.125Zm-.01953-.38428c-.14941-.00342-.31934.02295-.31934.16943,0,.08887.05957.13086.12891.13086.09863,0,.16016-.0625.18262-.12598.00488-.01416.00781-.02979.00781-.04395v-.13037Z" style="fill:#fff; stroke-width:0px;"/><path d="m39.375,34.86475h.1377v1.10498h-.1377v-1.10498Z" style="fill:#fff; stroke-width:0px;"/><path d="m39.74316,34.86475h.1377v1.10498h-.1377v-1.10498Z" style="fill:#fff; stroke-width:0px;"/></svg>