<?xml version="1.0" encoding="UTF-8"?><svg id="uuid-9e69d14e-0a80-4751-bd6a-230785b79ca2" xmlns="http://www.w3.org/2000/svg" width="64" height="45" viewBox="0 0 64 45"><rect width="64" height="45" style="fill:#ddd; stroke-width:0px;"/><rect x="4" y="4" width="56" height="24" style="fill:#333; stroke-width:0px;"/><rect x="6.75" y="19.5" width="14.34678" height="6" style="fill:#5c5c5c; stroke-width:0px;"/><rect x="24.68347" y="19.5" width="14.34678" height="6" style="fill:#2581c4; stroke-width:0px;"/><rect x="42.61694" y="19.5" width="14.34678" height="6" style="fill:#1a936f; stroke-width:0px;"/><path d="m6.24609,8.03027c.11621.07129.28564.13086.46436.13086.26465,0,.41943-.13965.41943-.34229,0-.18701-.10742-.29443-.37793-.39844-.32715-.11621-.52979-.28564-.52979-.56836,0-.3125.25879-.54443.64893-.54443.20508,0,.354.04736.44336.09814l-.07178.21143c-.06543-.03613-.19922-.09521-.38086-.09521-.27344,0-.37744.16357-.37744.30029,0,.1875.12158.27979.39844.38672.33936.13086.51172.29443.51172.58936,0,.30908-.229.57715-.70215.57715-.19336,0-.40479-.05664-.51172-.12793l.06543-.21729Z" style="fill:#fff; stroke-width:0px;"/><path d="m7.90332,7.67334c.00635.354.23242.5.49414.5.1875,0,.30029-.03271.39893-.07471l.04443.1875c-.09229.0415-.25.08936-.479.08936-.44336,0-.70801-.2915-.70801-.72607s.25586-.77637.67529-.77637c.47021,0,.59521.41357.59521.67822,0,.05371-.00635.09521-.00928.12207h-1.01172Zm.76807-.1875c.00293-.1665-.06885-.42529-.36328-.42529-.26465,0-.38086.24365-.40137.42529h.76465Z" style="fill:#fff; stroke-width:0px;"/><path d="m9.24805,7.35498c0-.16992-.00293-.31543-.01221-.44922h.22949l.00879.28271h.01172c.06543-.19385.22314-.31543.39893-.31543.02979,0,.05078.00293.07422.00879v.24707c-.02686-.00635-.05322-.00928-.08936-.00928-.18408,0-.31494.14014-.35107.33643-.00586.03564-.01172.07715-.01172.12207v.76758h-.25879v-.99072Z" style="fill:#fff; stroke-width:0px;"/><path d="m10.39648,6.90576l.28271.80908c.04736.13086.08643.25.11621.36914h.00879c.03271-.11914.07422-.23828.12207-.36914l.27979-.80908h.27344l-.56543,1.43994h-.25l-.54736-1.43994h.27979Z" style="fill:#fff; stroke-width:0px;"/><path d="m12.01807,6.50098c.00293.08936-.0625.16064-.1665.16064-.09229,0-.15771-.07129-.15771-.16064,0-.09229.06836-.16357.16357-.16357.09814,0,.16064.07129.16064.16357Zm-.2915,1.84473v-1.43994h.26172v1.43994h-.26172Z" style="fill:#fff; stroke-width:0px;"/><path d="m13.44922,8.29199c-.06836.03564-.22021.0835-.41357.0835-.43457,0-.7168-.29443-.7168-.73486,0-.44336.30322-.76465.77344-.76465.15479,0,.2915.03857.36279.07422l-.05957.20215c-.06201-.03564-.16064-.06836-.30322-.06836-.33008,0-.50879.24414-.50879.54443,0,.3335.21436.53857.5.53857.14844,0,.24658-.03857.32129-.07129l.04443.19629Z" style="fill:#fff; stroke-width:0px;"/><path d="m13.8833,7.67334c.00635.354.23242.5.49414.5.1875,0,.30029-.03271.39893-.07471l.04443.1875c-.09229.0415-.25.08936-.479.08936-.44336,0-.70801-.2915-.70801-.72607s.25586-.77637.67529-.77637c.47021,0,.59521.41357.59521.67822,0,.05371-.00635.09521-.00928.12207h-1.01172Zm.76807-.1875c.00293-.1665-.06885-.42529-.36328-.42529-.26465,0-.38086.24365-.40137.42529h.76465Z" style="fill:#fff; stroke-width:0px;"/><path d="m15.19287,8.07812c.07715.05029.21387.104.34521.104.19043,0,.2793-.09521.2793-.21436,0-.125-.07422-.19336-.26758-.26465-.25879-.09229-.38086-.23535-.38086-.40771,0-.23193.1875-.42236.49707-.42236.14551,0,.27344.0415.354.08887l-.06543.19043c-.05664-.03564-.16064-.08301-.29492-.08301-.1543,0-.24072.08936-.24072.19629,0,.11914.08643.17236.27344.24414.25.09521.37793.22021.37793.43408,0,.25293-.19629.43164-.53857.43164-.15771,0-.30322-.03857-.4043-.09814l.06543-.19922Z" style="fill:#fff; stroke-width:0px;"/><path d="m17.14111,6.90576l.19043.73193c.0415.16064.08057.30908.10693.45801h.00928c.03271-.14551.08008-.30029.12793-.45508l.23486-.73486h.22021l.22314.71973c.05371.17285.09521.32471.12793.47021h.00879c.02393-.14551.0625-.29736.11035-.46729l.20508-.72266h.25928l-.46436,1.43994h-.23828l-.21973-.6875c-.05078-.16064-.09229-.30322-.12793-.47314h-.00635c-.03564.17285-.08008.32178-.13086.47607l-.23193.68457h-.23828l-.43408-1.43994h.26758Z" style="fill:#fff; stroke-width:0px;"/><path d="m19.34277,7.67334c.00635.354.23242.5.49414.5.1875,0,.30029-.03271.39893-.07471l.04443.1875c-.09229.0415-.25.08936-.479.08936-.44336,0-.70801-.2915-.70801-.72607s.25586-.77637.67529-.77637c.47021,0,.59521.41357.59521.67822,0,.05371-.00635.09521-.00928.12207h-1.01172Zm.76807-.1875c.00293-.1665-.06885-.42529-.36328-.42529-.26465,0-.38086.24365-.40137.42529h.76465Z" style="fill:#fff; stroke-width:0px;"/><path d="m21.42285,6.90576l.19043.73193c.0415.16064.08057.30908.10742.45801h.00879c.03271-.14551.08008-.30029.12793-.45508l.23486-.73486h.22021l.22314.71973c.05371.17285.09521.32471.12793.47021h.00928c.02344-.14551.06201-.29736.10986-.46729l.20508-.72266h.25928l-.46436,1.43994h-.23828l-.21973-.6875c-.05078-.16064-.09229-.30322-.12842-.47314h-.00586c-.03564.17285-.08008.32178-.13086.47607l-.23193.68457h-.23828l-.43408-1.43994h.26758Z" style="fill:#fff; stroke-width:0px;"/><path d="m24.78174,7.61377c0,.53271-.36914.76465-.71729.76465-.38965,0-.68994-.28564-.68994-.74072,0-.48242.31494-.76465.71387-.76465.41357,0,.69336.30029.69336.74072Zm-1.14258.01465c0,.31543.18164.55371.4375.55371.25,0,.43701-.23535.43701-.55957,0-.24365-.12158-.55322-.43115-.55322s-.44336.28564-.44336.55908Z" style="fill:#fff; stroke-width:0px;"/><path d="m26.31738,7.95312c0,.14844.00293.2793.01172.39258h-.23193l-.01514-.23486h-.00586c-.06836.11572-.22021.26758-.47607.26758-.22607,0-.49658-.125-.49658-.63086v-.8418h.26172v.79736c0,.27344.08301.45801.32129.45801.17529,0,.29736-.12207.34521-.23779.01465-.03906.02393-.08643.02393-.13428v-.8833h.26172v1.04736Z" style="fill:#fff; stroke-width:0px;"/><path d="m26.75146,6.23291h.26172v2.11279h-.26172v-2.11279Z" style="fill:#fff; stroke-width:0px;"/><path d="m28.69727,6.23291v1.74072c0,.12793.00293.27393.01172.37207h-.23486l-.01172-.25h-.00635c-.08008.16064-.25586.28271-.49072.28271-.34814,0-.61572-.29443-.61572-.73193-.00342-.479.29443-.77344.64551-.77344.22021,0,.36914.104.43457.22021h.00586v-.86035h.26172Zm-.26172,1.25879c0-.03271-.00293-.07715-.01221-.10986-.03857-.16699-.18115-.30371-.37744-.30371-.271,0-.43164.23828-.43164.55664,0,.2915.14258.53223.42529.53223.17578,0,.33643-.11572.38379-.31201.00928-.03613.01221-.07178.01221-.11328v-.25Z" style="fill:#fff; stroke-width:0px;"/><path d="m29.76221,6.23291h.26172v2.11279h-.26172v-2.11279Z" style="fill:#fff; stroke-width:0px;"/><path d="m30.75586,6.50098c.00293.08936-.0625.16064-.1665.16064-.09229,0-.15771-.07129-.15771-.16064,0-.09229.06836-.16357.16357-.16357.09814,0,.16064.07129.16064.16357Zm-.2915,1.84473v-1.43994h.26172v1.43994h-.26172Z" style="fill:#fff; stroke-width:0px;"/><path d="m31.41943,7.56592h.00586c.03564-.05029.08643-.11279.12793-.16357l.42285-.49658h.31494l-.55615.5918.63379.84814h-.31836l-.49707-.69043-.13379.14893v.5415h-.25879v-2.11279h.25879v1.33301Z" style="fill:#fff; stroke-width:0px;"/><path d="m32.70166,7.67334c.00635.354.23242.5.49365.5.1875,0,.30078-.03271.39941-.07471l.04395.1875c-.0918.0415-.24902.08936-.47852.08936-.44336,0-.70801-.2915-.70801-.72607s.25586-.77637.6748-.77637c.4707,0,.5957.41357.5957.67822,0,.05371-.00586.09521-.00879.12207h-1.01221Zm.76807-.1875c.00293-.1665-.06836-.42529-.36328-.42529-.26465,0-.38086.24365-.40137.42529h.76465Z" style="fill:#fff; stroke-width:0px;"/><path d="m34.99219,6.49219v.41357h.375v.19922h-.375v.77637c0,.17871.05078.27979.19629.27979.06934,0,.11914-.00879.15234-.01758l.01172.19629c-.05078.02051-.13086.03564-.23242.03564-.12207,0-.21973-.03857-.28223-.11035-.07422-.07715-.10156-.20508-.10156-.37451v-.78564h-.22266v-.19922h.22266v-.34521l.25586-.06836Z" style="fill:#fff; stroke-width:0px;"/><path d="m36.94727,7.61377c0,.53271-.36914.76465-.7168.76465-.38965,0-.69043-.28564-.69043-.74072,0-.48242.31543-.76465.71387-.76465.41406,0,.69336.30029.69336.74072Zm-1.14258.01465c0,.31543.18164.55371.4375.55371.25,0,.4375-.23535.4375-.55957,0-.24365-.12207-.55322-.43164-.55322s-.44336.28564-.44336.55908Z" style="fill:#fff; stroke-width:0px;"/><path d="m39.11328,7.95312c0,.14844.00293.2793.0127.39258h-.23242l-.01465-.23486h-.00586c-.06836.11572-.2207.26758-.47656.26758-.22559,0-.49707-.125-.49707-.63086v-.8418h.26172v.79736c0,.27344.08398.45801.32129.45801.17578,0,.29785-.12207.3457-.23779.01465-.03906.02344-.08643.02344-.13428v-.8833h.26172v1.04736Z" style="fill:#fff; stroke-width:0px;"/><path d="m39.5127,8.07812c.07715.05029.21387.104.34473.104.19043,0,.28027-.09521.28027-.21436,0-.125-.07422-.19336-.26855-.26465-.25879-.09229-.38086-.23535-.38086-.40771,0-.23193.1875-.42236.49707-.42236.14648,0,.27441.0415.35449.08887l-.06543.19043c-.05664-.03564-.16113-.08301-.29492-.08301-.1543,0-.24121.08936-.24121.19629,0,.11914.08691.17236.27441.24414.25.09521.37793.22021.37793.43408,0,.25293-.19629.43164-.53906.43164-.15723,0-.30371-.03857-.4043-.09814l.06543-.19922Z" style="fill:#fff; stroke-width:0px;"/><path d="m40.87207,7.67334c.00586.354.23145.5.49316.5.1875,0,.30078-.03271.39941-.07471l.04395.1875c-.0918.0415-.24902.08936-.47852.08936-.44336,0-.70801-.2915-.70801-.72607s.25586-.77637.6748-.77637c.4707,0,.5957.41357.5957.67822,0,.05371-.00586.09521-.00879.12207h-1.01172Zm.76758-.1875c.00293-.1665-.06836-.42529-.36328-.42529-.26465,0-.38086.24365-.40137.42529h.76465Z" style="fill:#fff; stroke-width:0px;"/><path d="m11.23315,21.90381v1.04883h-.1377v-1.04883h.1377Z" style="fill:#fff; stroke-width:0px;"/><path d="m12.46452,21.84766v.91064c0,.06689.00149.14307.00644.19434h-.12482l-.00644-.13086h-.00297c-.0426.08398-.13572.14795-.26054.14795-.18475,0-.32691-.15381-.32691-.38281-.00149-.25049.15652-.40479.34276-.40479.1169,0,.19565.05469.23032.11523h.00347v-.44971h.13869Zm-.13869.6582c0-.01709-.00198-.04053-.00644-.05762-.0208-.08691-.09659-.15869-.20061-.15869-.14364,0-.22884.12451-.22884.29102,0,.15283.07578.27881.22587.27881.09312,0,.17832-.06104.20358-.16357.00446-.01855.00644-.03711.00644-.05908v-.13086Z" style="fill:#fff; stroke-width:0px;"/><path d="m12.7746,22.60107c.00297.18506.12284.26123.26203.26123.09956,0,.15949-.01709.2115-.03906l.02378.09814c-.04904.02197-.13275.04688-.2541.04688-.23528,0-.37595-.15234-.37595-.37988,0-.22705.13572-.40625.35861-.40625.24915,0,.31552.21631.31552.35498,0,.02783-.00297.0498-.00446.06396h-.53693Zm.40715-.09814c.00149-.0874-.03616-.22266-.19268-.22266-.14018,0-.20209.12744-.21299.22266h.40567Z" style="fill:#fff; stroke-width:0px;"/><path d="m14.0342,22.9248c-.03616.01855-.1164.04346-.21943.04346-.23032,0-.38041-.1543-.38041-.38428,0-.23193.16098-.40039.41062-.40039.08222,0,.15454.02051.19268.03906l-.0317.10596c-.03319-.01855-.0852-.03613-.16098-.03613-.17534,0-.26995.12793-.26995.28516,0,.17432.11343.28174.265.28174.07925,0,.13126-.02051.17089-.0376l.02328.10303Z" style="fill:#fff; stroke-width:0px;"/><path d="m14.19914,21.84766h.13869v1.10498h-.13869v-1.10498Z" style="fill:#fff; stroke-width:0px;"/><path d="m14.72715,21.98779c.00149.04639-.03319.08398-.08817.08398-.04904,0-.08371-.0376-.08371-.08398,0-.04834.03616-.08594.08668-.08594.05201,0,.0852.0376.0852.08594Zm-.15454.96484v-.75342h.13869v.75342h-.13869Z" style="fill:#fff; stroke-width:0px;"/><path d="m14.94262,22.40332c0-.07812-.00149-.1416-.00644-.2041h.12334l.00743.12451h.00347c.03764-.07129.12631-.1416.25261-.1416.1055,0,.26995.0625.26995.3208v.44971h-.13919v-.43408c0-.12158-.04557-.22266-.17683-.22266-.09114,0-.16247.06396-.18624.14014-.00594.01709-.00941.04053-.00941.06348v.45312h-.13869v-.54932Z" style="fill:#fff; stroke-width:0px;"/><path d="m15.89809,22.60107c.00297.18506.12284.26123.26203.26123.09956,0,.15949-.01709.2115-.03906l.02378.09814c-.04904.02197-.13275.04688-.2541.04688-.23528,0-.37595-.15234-.37595-.37988,0-.22705.13572-.40625.35861-.40625.24915,0,.31552.21631.31552.35498,0,.02783-.00297.0498-.00446.06396h-.53693Zm.40715-.09814c.00149-.0874-.03616-.22266-.19268-.22266-.14018,0-.20209.12744-.21299.22266h.40567Z" style="fill:#fff; stroke-width:0px;"/><path d="m28.25934,23.08643l-.0109-.09473h-.00495c-.0426.05908-.12482.11182-.23379.11182-.15454,0-.2333-.10742-.2333-.21631,0-.18213.16395-.28174.45916-.28027v-.01562c0-.06201-.01734-.17432-.17336-.17432-.07133,0-.14562.02197-.19912.05615l-.0317-.09033c.0634-.04053.15454-.06689.25113-.06689.23379,0,.29026.15723.29026.30811v.28174c0,.06543.00347.12939.01288.18066h-.12631Zm-.0208-.38428c-.15157-.00342-.32344.02295-.32344.16943,0,.08887.05993.13086.13126.13086.09906,0,.16247-.0625.18475-.12598.00446-.01416.00743-.02979.00743-.04395v-.13037Z" style="fill:#fff; stroke-width:0px;"/><path d="m29.14349,23.05859c-.03616.01855-.1164.04346-.21943.04346-.23032,0-.38041-.1543-.38041-.38428,0-.23193.16098-.40039.41062-.40039.08222,0,.15454.02051.19268.03906l-.0317.10596c-.03319-.01855-.0852-.03613-.16098-.03613-.17534,0-.26995.12793-.26995.28516,0,.17432.11343.28174.265.28174.07925,0,.13126-.02051.17089-.0376l.02328.10303Z" style="fill:#fff; stroke-width:0px;"/><path d="m29.84288,23.05859c-.03616.01855-.1164.04346-.21943.04346-.23032,0-.38041-.1543-.38041-.38428,0-.23193.16098-.40039.41062-.40039.08222,0,.15454.02051.19268.03906l-.0317.10596c-.03319-.01855-.0852-.03613-.16098-.03613-.17534,0-.26995.12793-.26995.28516,0,.17432.11343.28174.265.28174.07925,0,.13126-.02051.17089-.0376l.02328.10303Z" style="fill:#fff; stroke-width:0px;"/><path d="m30.07519,22.73486c.00297.18506.12284.26123.26203.26123.09956,0,.15949-.01709.2115-.03906l.02378.09814c-.04904.02197-.13275.04688-.2541.04688-.23528,0-.37595-.15234-.37595-.37988,0-.22705.13572-.40625.35861-.40625.24915,0,.31552.21631.31552.35498,0,.02783-.00297.0498-.00446.06396h-.53693Zm.40715-.09814c.00149-.0874-.03616-.22266-.19268-.22266-.14018,0-.20209.12744-.21299.22266h.40567Z" style="fill:#fff; stroke-width:0px;"/><path d="m30.79092,22.5791c0-.09668-.00347-.17432-.00644-.24609h.12482l.00594.12939h.00347c.05696-.0918.14662-.14648.27144-.14648.18475,0,.32394.1543.32394.38281,0,.271-.16742.40479-.34772.40479-.10105,0-.18921-.04346-.23528-.11816h-.00297v.40918h-.1372v-.81543Zm.1372.20068c0,.02051.00297.03906.00644.05615.02526.09473.10897.16016.20853.16016.14662,0,.23181-.11816.23181-.29102,0-.15088-.08024-.28027-.22735-.28027-.09461,0-.18327.06689-.21002.16992-.00446.01709-.00941.03711-.00941.05615v.12891Z" style="fill:#fff; stroke-width:0px;"/><path d="m31.85884,22.1167v.21631h.19862v.10449h-.19862v.40625c0,.09326.02675.146.10402.146.03616,0,.06291-.00439.08074-.00928l.00594.10303c-.02675.01074-.06935.01855-.12284.01855-.06489,0-.1169-.02051-.15008-.05762-.03963-.04053-.05399-.10742-.05399-.19629v-.41064h-.11838v-.10449h.11838v-.18018l.13621-.03613Z" style="fill:#fff; stroke-width:0px;"/><path d="m32.53099,22.94629c.04111.02637.11392.05469.18327.05469.10105,0,.1486-.0498.1486-.1123,0-.06543-.03963-.10107-.14216-.13818-.1372-.04834-.20209-.12305-.20209-.21338,0-.12158.09956-.22119.26351-.22119.07727,0,.14513.02197.18822.04688l-.03517.09961c-.02972-.01855-.0852-.04346-.15603-.04346-.08222,0-.12779.04639-.12779.10254,0,.06201.04557.09033.14513.12744.13275.0498.20061.11523.20061.22754,0,.13232-.10451.22559-.2858.22559-.08371,0-.16098-.02051-.21497-.05127l.03467-.10449Z" style="fill:#fff; stroke-width:0px;"/><path d="m33.25416,22.73486c.00297.18506.12284.26123.26203.26123.09956,0,.15949-.01709.2115-.03906l.02378.09814c-.04904.02197-.13275.04688-.2541.04688-.23528,0-.37595-.15234-.37595-.37988,0-.22705.13572-.40625.35861-.40625.24915,0,.31552.21631.31552.35498,0,.02783-.00297.0498-.00446.06396h-.53693Zm.40715-.09814c.00149-.0874-.03616-.22266-.19268-.22266-.14018,0-.20209.12744-.21299.22266h.40567Z" style="fill:#fff; stroke-width:0px;"/><path d="m33.9699,21.98145h.13869v1.10498h-.13869v-1.10498Z" style="fill:#fff; stroke-width:0px;"/><path d="m34.42064,22.73486c.00297.18506.12334.26123.26203.26123.09956,0,.15949-.01709.2115-.03906l.02378.09814c-.04904.02197-.13275.04688-.2541.04688-.23528,0-.37595-.15234-.37595-.37988,0-.22705.13572-.40625.35861-.40625.24915,0,.31552.21631.31552.35498,0,.02783-.00297.0498-.00446.06396h-.53693Zm.40715-.09814c.00149-.0874-.03616-.22266-.19268-.22266-.14018,0-.20209.12744-.21299.22266h.40567Z" style="fill:#fff; stroke-width:0px;"/><path d="m35.68074,23.05859c-.03616.01855-.1164.04346-.21943.04346-.23032,0-.38041-.1543-.38041-.38428,0-.23193.16098-.40039.41062-.40039.08222,0,.15454.02051.19268.03906l-.0317.10596c-.03319-.01855-.0852-.03613-.16098-.03613-.17534,0-.26995.12793-.26995.28516,0,.17432.11343.28174.265.28174.07925,0,.13126-.02051.17089-.0376l.02328.10303Z" style="fill:#fff; stroke-width:0px;"/><path d="m36.03291,22.1167v.21631h.19862v.10449h-.19862v.40625c0,.09326.02675.146.10402.146.03616,0,.06291-.00439.08024-.00928l.00644.10303c-.02675.01074-.06935.01855-.12284.01855-.06489,0-.1169-.02051-.15008-.05762-.03963-.04053-.05399-.10742-.05399-.19629v-.41064h-.11838v-.10449h.11838v-.18018l.13621-.03613Z" style="fill:#fff; stroke-width:0px;"/><path d="m36.3514,23.00537c0-.05762.03913-.09814.09461-.09814s.09312.04053.09312.09814c0,.05615-.03616.09814-.09461.09814-.05548,0-.09312-.04199-.09312-.09814Z" style="fill:#fff; stroke-width:0px;"/><path d="m47.27919,22.96973l-.0109-.09473h-.00396c-.0426.05908-.12482.11182-.23379.11182-.15553,0-.23379-.10742-.23379-.21631,0-.18213.16445-.28174.45966-.28027v-.01562c0-.06201-.01783-.17432-.17435-.17432-.07034,0-.14463.02197-.19912.05615l-.03071-.09033c.06241-.04053.15454-.06689.25063-.06689.23379,0,.29026.15723.29026.30811v.28174c0,.06543.00297.12939.01288.18066h-.1268Zm-.01981-.38428c-.15157-.00342-.32394.02295-.32394.16943,0,.08887.06043.13086.13076.13086.10005,0,.16247-.0625.18525-.12598.00495-.01416.00793-.02979.00793-.04395v-.13037Z" style="fill:#fff; stroke-width:0px;"/><path d="m48.16383,22.94189c-.03566.01855-.1169.04346-.21893.04346-.23082,0-.38041-.1543-.38041-.38428,0-.23193.16048-.40039.41013-.40039.08222,0,.15454.02051.19218.03906l-.0317.10596c-.03269-.01855-.0852-.03613-.16048-.03613-.17534,0-.27045.12793-.27045.28516,0,.17432.11392.28174.26549.28174.07925,0,.13076-.02051.17039-.0376l.02378.10303Z" style="fill:#fff; stroke-width:0px;"/><path d="m48.86323,22.94189c-.03566.01855-.1169.04346-.21893.04346-.23082,0-.38041-.1543-.38041-.38428,0-.23193.16048-.40039.41013-.40039.08222,0,.15454.02051.19218.03906l-.0317.10596c-.03269-.01855-.0852-.03613-.16048-.03613-.17534,0-.27045.12793-.27045.28516,0,.17432.11392.28174.26549.28174.07925,0,.13076-.02051.17039-.0376l.02378.10303Z" style="fill:#fff; stroke-width:0px;"/><path d="m49.09504,22.61816c.00396.18506.12383.26123.26252.26123.09906,0,.15949-.01709.212-.03906l.02278.09814c-.04854.02197-.13176.04688-.2536.04688-.23577,0-.37545-.15234-.37545-.37988,0-.22705.13572-.40625.35762-.40625.24964,0,.31602.21631.31602.35498,0,.02783-.00297.0498-.00495.06396h-.53693Zm.40814-.09814c.00099-.0874-.03665-.22266-.19318-.22266-.14067,0-.20209.12744-.21299.22266h.40616Z" style="fill:#fff; stroke-width:0px;"/><path d="m49.81028,22.4624c0-.09668-.00297-.17432-.00594-.24609h.12482l.00594.12939h.00297c.05746-.0918.14761-.14648.27243-.14648.18426,0,.32295.1543.32295.38281,0,.271-.16742.40479-.34673.40479-.10105,0-.1902-.04346-.23577-.11816h-.00297v.40918h-.1377v-.81543Zm.1377.20068c0,.02051.00297.03906.00594.05615.02576.09473.10897.16016.20903.16016.14662,0,.23181-.11816.23181-.29102,0-.15088-.08024-.28027-.22686-.28027-.0951,0-.18327.06689-.21002.16992-.00495.01709-.00991.03711-.00991.05615v.12891Z" style="fill:#fff; stroke-width:0px;"/><path d="m50.87819,22v.21631h.19912v.10449h-.19912v.40625c0,.09326.02675.146.10402.146.03665,0,.0634-.00439.08123-.00928l.00594.10303c-.02675.01074-.06935.01855-.12284.01855-.06538,0-.1169-.02051-.15058-.05762-.03864-.04053-.05349-.10742-.05349-.19629v-.41064h-.11789v-.10449h.11789v-.18018l.13572-.03613Z" style="fill:#fff; stroke-width:0px;"/><path d="m51.99366,22.96973l-.0109-.09473h-.00396c-.04359.05908-.12482.11182-.23379.11182-.15553,0-.23379-.10742-.23379-.21631,0-.18213.16445-.28174.45966-.28027v-.01562c0-.06201-.01783-.17432-.17435-.17432-.07034,0-.14463.02197-.19912.05615l-.03071-.09033c.06241-.04053.15454-.06689.25063-.06689.23379,0,.29026.15723.29026.30811v.28174c0,.06543.00297.12939.01288.18066h-.1268Zm-.01981-.38428c-.15157-.00342-.32394.02295-.32394.16943,0,.08887.06043.13086.13076.13086.10005,0,.16247-.0625.18525-.12598.00495-.01416.00793-.02979.00793-.04395v-.13037Z" style="fill:#fff; stroke-width:0px;"/><path d="m52.33345,21.86475h.13968v1.10498h-.13968v-1.10498Z" style="fill:#fff; stroke-width:0px;"/><path d="m52.70692,21.86475h.13968v1.10498h-.13968v-1.10498Z" style="fill:#fff; stroke-width:0px;"/><path d="m6.40771,9.80762v.45215h.52246v-.45215h.14062v1.08008h-.14062v-.50635h-.52246v.50635h-.13965v-1.08008h.13965Z" style="fill:#fff; stroke-width:0px;"/><path d="m7.38477,10.52539c.00342.19092.125.26953.26611.26953.10107,0,.16162-.01758.21484-.04004l.02393.10059c-.0498.02246-.13477.04834-.25781.04834-.23877,0-.38135-.15723-.38135-.39111s.1377-.41797.36377-.41797c.25293,0,.32031.22266.32031.36523,0,.02881-.00342.05127-.00488.06543h-.54492Zm.41357-.10059c.00146-.08984-.03711-.22949-.19531-.22949-.14258,0-.20508.13184-.21631.22949h.41162Z" style="fill:#fff; stroke-width:0px;"/><path d="m8.1084,10.354c0-.09131-.00195-.16943-.00684-.2417h.12354l.00488.15234h.00635c.03516-.10449.12012-.16992.21484-.16992.01611,0,.02734.00146.04004.00488v.13281c-.01465-.00342-.02881-.00488-.04834-.00488-.09912,0-.16943.0752-.18896.18115-.00293.01904-.00635.0415-.00635.06543v.41357h-.13916v-.53369Z" style="fill:#fff; stroke-width:0px;"/><path d="m8.69385,10.52539c.00342.19092.125.26953.26611.26953.10107,0,.16162-.01758.21484-.04004l.02393.10059c-.0498.02246-.13477.04834-.25781.04834-.23877,0-.38135-.15723-.38135-.39111s.1377-.41797.36377-.41797c.25293,0,.32031.22266.32031.36523,0,.02881-.00342.05127-.00488.06543h-.54492Zm.41357-.10059c.00146-.08984-.03711-.22949-.19531-.22949-.14258,0-.20508.13184-.21631.22949h.41162Z" style="fill:#fff; stroke-width:0px;"/><path d="m9.80811,10.1123l.16943.45801c.01758.05127.03711.1123.0498.15869h.00342c.01416-.04639.03027-.10547.04932-.16162l.15381-.45508h.14893l-.21143.55273c-.10059.26611-.16943.40234-.26562.48535-.06885.06104-.13818.08496-.17334.09131l-.03516-.11865c.03516-.01123.08154-.03369.12354-.06885.03857-.03027.08643-.08496.11865-.15674.00635-.01465.01123-.02588.01123-.03369,0-.0083-.00342-.01953-.00977-.03711l-.28662-.71436h.15381Z" style="fill:#fff; stroke-width:0px;"/><path d="m11.1958,10.49365c0,.28662-.19873.41162-.38623.41162-.20996,0-.37158-.15381-.37158-.39893,0-.25928.16943-.41162.38428-.41162.22266,0,.37354.16162.37354.39893Zm-.61523.00781c0,.16992.09766.29834.23535.29834.13477,0,.23535-.12695.23535-.30127,0-.13135-.06543-.29834-.23193-.29834-.16699,0-.23877.15381-.23877.30127Z" style="fill:#fff; stroke-width:0px;"/><path d="m12.02148,10.67627c0,.08008.00195.15039.00684.21143h-.125l-.0083-.12646h-.00293c-.03711.0625-.11865.14404-.25635.14404-.12207,0-.26758-.06738-.26758-.33984v-.45312h.14062v.4292c0,.14746.04492.24707.17334.24707.09424,0,.16016-.06592.18555-.12842.0083-.021.01318-.04639.01318-.07227v-.47559h.14062v.56396Z" style="fill:#fff; stroke-width:0px;"/><path d="m13.14648,10.85889c-.03711.01904-.11865.04492-.22314.04492-.23389,0-.38574-.15869-.38574-.396,0-.23877.16309-.41162.4165-.41162.08301,0,.15674.021.19531.04004l-.03223.10889c-.0332-.01904-.08643-.03662-.16309-.03662-.17773,0-.27393.13135-.27393.29297,0,.17969.11523.29004.26904.29004.08008,0,.13281-.021.17285-.03857l.02441.10596Z" style="fill:#fff; stroke-width:0px;"/><path d="m13.73975,10.8877l-.01123-.09766h-.00488c-.04297.06104-.12646.11523-.2373.11523-.15674,0-.23682-.11035-.23682-.22266,0-.1875.1665-.29004.46631-.28857v-.01562c0-.06445-.01758-.17969-.17627-.17969-.07227,0-.14746.02246-.20215.05762l-.03174-.09277c.06396-.0415.15674-.06885.25439-.06885.2373,0,.29492.16162.29492.31689v.29004c0,.06738.00342.1333.0127.18604h-.12793Zm-.021-.39551c-.15381-.00342-.32812.02393-.32812.17432,0,.09131.06055.13477.13281.13477.10107,0,.16504-.06396.1875-.12988.00488-.01416.00781-.03027.00781-.04492v-.13428Z" style="fill:#fff; stroke-width:0px;"/><path d="m14.08105,10.32227c0-.08008-.00195-.146-.00684-.20996h.125l.0083.12793h.00293c.03857-.07373.12842-.14551.25635-.14551.10742,0,.27393.06396.27393.33008v.46289h-.14062v-.44678c0-.125-.04639-.22949-.17969-.22949-.09277,0-.16504.06592-.18896.14453-.00635.01758-.00977.0415-.00977.06543v.46631h-.14062v-.56543Z" style="fill:#fff; stroke-width:0px;"/><path d="m15.73779,10.8877l-.01123-.09766h-.00488c-.04297.06104-.12646.11523-.2373.11523-.15674,0-.23682-.11035-.23682-.22266,0-.1875.1665-.29004.46631-.28857v-.01562c0-.06445-.01758-.17969-.17627-.17969-.07227,0-.14746.02246-.20215.05762l-.03174-.09277c.06396-.0415.15674-.06885.25439-.06885.2373,0,.29492.16162.29492.31689v.29004c0,.06738.00342.1333.0127.18604h-.12793Zm-.021-.39551c-.15381-.00342-.32812.02393-.32812.17432,0,.09131.06055.13477.13281.13477.10107,0,.16504-.06396.1875-.12988.00488-.01416.00781-.03027.00781-.04492v-.13428Z" style="fill:#fff; stroke-width:0px;"/><path d="m16.06055,10.74365c.0415.02686.11523.05615.18604.05615.10254,0,.15039-.05127.15039-.11572,0-.06738-.04004-.104-.14404-.14258-.13965-.04932-.20508-.12646-.20508-.21924,0-.125.10107-.22754.26758-.22754.07861,0,.14746.02246.19043.04785l-.03516.10254c-.03027-.01904-.08643-.04492-.15869-.04492-.08301,0-.12939.04834-.12939.10596,0,.06396.04639.09277.14697.13135.13477.05127.20361.11865.20361.23389,0,.13623-.10547.23242-.29004.23242-.08496,0-.16309-.021-.21777-.05273l.03516-.10742Z" style="fill:#fff; stroke-width:0px;"/><path d="m16.69434,10.74365c.0415.02686.11523.05615.18604.05615.10254,0,.15039-.05127.15039-.11572,0-.06738-.04004-.104-.14404-.14258-.13965-.04932-.20508-.12646-.20508-.21924,0-.125.10107-.22754.26758-.22754.07861,0,.14746.02246.19043.04785l-.03516.10254c-.03027-.01904-.08643-.04492-.15869-.04492-.08301,0-.12939.04834-.12939.10596,0,.06396.04639.09277.14697.13135.13477.05127.20361.11865.20361.23389,0,.13623-.10547.23242-.29004.23242-.08496,0-.16309-.021-.21777-.05273l.03516-.10742Z" style="fill:#fff; stroke-width:0px;"/><path d="m17.42578,10.52539c.00342.19092.125.26953.26611.26953.10107,0,.16162-.01758.21484-.04004l.02393.10059c-.0498.02246-.13477.04834-.25781.04834-.23877,0-.38135-.15723-.38135-.39111s.1377-.41797.36377-.41797c.25293,0,.32031.22266.32031.36523,0,.02881-.00342.05127-.00488.06543h-.54492Zm.41357-.10059c.00146-.08984-.03711-.22949-.19531-.22949-.14258,0-.20508.13184-.21631.22949h.41162Z" style="fill:#fff; stroke-width:0px;"/><path d="m18.12988,10.74365c.0415.02686.11523.05615.18604.05615.10254,0,.15039-.05127.15039-.11572,0-.06738-.04004-.104-.14404-.14258-.13965-.04932-.20508-.12646-.20508-.21924,0-.125.10107-.22754.26758-.22754.07861,0,.14746.02246.19043.04785l-.03516.10254c-.03027-.01904-.08643-.04492-.15869-.04492-.08301,0-.12939.04834-.12939.10596,0,.06396.04639.09277.14697.13135.13477.05127.20361.11865.20361.23389,0,.13623-.10547.23242-.29004.23242-.08496,0-.16309-.021-.21777-.05273l.03516-.10742Z" style="fill:#fff; stroke-width:0px;"/><path d="m18.76367,10.74365c.0415.02686.11523.05615.18604.05615.10254,0,.15039-.05127.15039-.11572,0-.06738-.04004-.104-.14404-.14258-.13965-.04932-.20508-.12646-.20508-.21924,0-.125.10107-.22754.26758-.22754.07861,0,.14746.02246.19043.04785l-.03516.10254c-.03027-.01904-.08643-.04492-.15869-.04492-.08301,0-.12939.04834-.12939.10596,0,.06396.04639.09277.14697.13135.13477.05127.20361.11865.20361.23389,0,.13623-.10547.23242-.29004.23242-.08496,0-.16309-.021-.21777-.05273l.03516-.10742Z" style="fill:#fff; stroke-width:0px;"/><path d="m20.18506,10.8877l-.01123-.09766h-.00488c-.04297.06104-.12646.11523-.2373.11523-.15674,0-.23682-.11035-.23682-.22266,0-.1875.1665-.29004.46631-.28857v-.01562c0-.06445-.01758-.17969-.17627-.17969-.07227,0-.14746.02246-.20215.05762l-.03174-.09277c.06396-.0415.15674-.06885.25439-.06885.2373,0,.29492.16162.29492.31689v.29004c0,.06738.00342.1333.0127.18604h-.12793Zm-.021-.39551c-.15381-.00342-.32812.02393-.32812.17432,0,.09131.06055.13477.13281.13477.10107,0,.16504-.06396.1875-.12988.00488-.01416.00781-.03027.00781-.04492v-.13428Z" style="fill:#fff; stroke-width:0px;"/><path d="m20.52734,10.32227c0-.08008-.00195-.146-.00684-.20996h.125l.0083.12793h.00293c.03857-.07373.12842-.14551.25635-.14551.10742,0,.27393.06396.27393.33008v.46289h-.14062v-.44678c0-.125-.04639-.22949-.17969-.22949-.09277,0-.16504.06592-.18896.14453-.00635.01758-.00977.0415-.00977.06543v.46631h-.14062v-.56543Z" style="fill:#fff; stroke-width:0px;"/><path d="m22.08447,9.75v.9375c0,.06885.00146.14746.00635.2002h-.12646l-.00635-.13477h-.00342c-.04297.08691-.1377.15234-.26416.15234-.1875,0-.33154-.15869-.33154-.39404-.00195-.25781.15869-.4165.34766-.4165.11865,0,.19873.05615.23389.11865h.00293v-.46338h.14111Zm-.14111.67773c0-.01758-.00146-.0415-.00635-.05908-.02051-.08984-.09766-.16357-.20361-.16357-.14551,0-.23193.12842-.23193.2998,0,.15674.07666.28662.229.28662.09473,0,.18115-.0625.20654-.16797.00488-.01953.00635-.03857.00635-.06104v-.13477Z" style="fill:#fff; stroke-width:0px;"/><path d="m23.20996,10.85889c-.03711.01904-.11865.04492-.22314.04492-.23389,0-.38574-.15869-.38574-.396,0-.23877.16309-.41162.4165-.41162.08301,0,.15674.021.19531.04004l-.03223.10889c-.0332-.01904-.08643-.03662-.16309-.03662-.17773,0-.27393.13135-.27393.29297,0,.17969.11523.29004.26904.29004.08008,0,.13281-.021.17285-.03857l.02441.10596Z" style="fill:#fff; stroke-width:0px;"/><path d="m24.02246,10.67627c0,.08008.00195.15039.00684.21143h-.125l-.0083-.12646h-.00293c-.03711.0625-.11865.14404-.25635.14404-.12207,0-.26758-.06738-.26758-.33984v-.45312h.14062v.4292c0,.14746.04492.24707.17334.24707.09424,0,.16016-.06592.18555-.12842.0083-.021.01318-.04639.01318-.07227v-.47559h.14062v.56396Z" style="fill:#fff; stroke-width:0px;"/><path d="m24.23535,10.74365c.0415.02686.11523.05615.18604.05615.10254,0,.15039-.05127.15039-.11572,0-.06738-.04004-.104-.14404-.14258-.13965-.04932-.20508-.12646-.20508-.21924,0-.125.10107-.22754.26758-.22754.07861,0,.14746.02246.19043.04785l-.03516.10254c-.03027-.01904-.08643-.04492-.15869-.04492-.08301,0-.12939.04834-.12939.10596,0,.06396.04639.09277.14697.13135.13477.05127.20361.11865.20361.23389,0,.13623-.10547.23242-.29004.23242-.08496,0-.16309-.021-.21777-.05273l.03516-.10742Z" style="fill:#fff; stroke-width:0px;"/><path d="m25.05811,9.88965v.22266h.20215v.10742h-.20215v.41797c0,.09619.02734.15088.10596.15088.03662,0,.06396-.00488.08154-.00977l.00635.10547c-.02686.01123-.07031.01953-.125.01953-.06543,0-.11816-.021-.15186-.05957-.04004-.0415-.05469-.11035-.05469-.20166v-.42285h-.12012v-.10742h.12012v-.18604l.1377-.03662Z" style="fill:#fff; stroke-width:0px;"/><path d="m26.11084,10.49365c0,.28662-.19873.41162-.38623.41162-.20996,0-.37158-.15381-.37158-.39893,0-.25928.16943-.41162.38428-.41162.22266,0,.37354.16162.37354.39893Zm-.61523.00781c0,.16992.09766.29834.23535.29834.13477,0,.23535-.12695.23535-.30127,0-.13135-.06543-.29834-.23193-.29834-.16699,0-.23877.15381-.23877.30127Z" style="fill:#fff; stroke-width:0px;"/><path d="m26.2876,10.32227c0-.08008-.00195-.146-.00684-.20996h.12354l.00635.125h.00488c.04346-.07373.11523-.14258.24365-.14258.10547,0,.18555.06396.21924.15527h.00342c.02393-.04346.0542-.07666.08643-.10107.04639-.03516.09766-.0542.17139-.0542.10254,0,.25488.06738.25488.33643v.45654h-.1377v-.43896c0-.14893-.05469-.23877-.16846-.23877-.08008,0-.14258.05908-.1665.12842-.00635.01904-.01123.04443-.01123.07031v.479h-.1377v-.46484c0-.12305-.05469-.21289-.16211-.21289-.08789,0-.15186.07031-.17432.14111-.0083.02051-.01123.04492-.01123.06885v.46777h-.1377v-.56543Z" style="fill:#fff; stroke-width:0px;"/><path d="m27.77881,9.89453c.00146.04785-.03369.08643-.08984.08643-.04932,0-.08496-.03857-.08496-.08643,0-.0498.03711-.08838.08838-.08838.05273,0,.08643.03857.08643.08838Zm-.15674.99316v-.77539h.14062v.77539h-.14062Z" style="fill:#fff; stroke-width:0px;"/><path d="m27.9082,10.80615l.35107-.45654c.03369-.04199.06543-.07861.10059-.12061v-.00293h-.41943v-.11377h.59082l-.00146.08789-.34619.4502c-.03174.04346-.06396.08203-.09912.12207v.00293h.45361v.1123h-.62988v-.08154Z" style="fill:#fff; stroke-width:0px;"/><path d="m28.74805,10.52539c.00342.19092.125.26953.26611.26953.10107,0,.16162-.01758.21484-.04004l.02393.10059c-.0498.02246-.13477.04834-.25781.04834-.23877,0-.38135-.15723-.38135-.39111s.1377-.41797.36377-.41797c.25293,0,.32031.22266.32031.36523,0,.02881-.00342.05127-.00488.06543h-.54492Zm.41357-.10059c.00146-.08984-.03711-.22949-.19531-.22949-.14258,0-.20508.13184-.21631.22949h.41162Z" style="fill:#fff; stroke-width:0px;"/><path d="m29.98047,9.88965v.22266h.20215v.10742h-.20215v.41797c0,.09619.02734.15088.10596.15088.03662,0,.06396-.00488.08154-.00977l.00635.10547c-.02686.01123-.07031.01953-.125.01953-.06543,0-.11816-.021-.15186-.05957-.04004-.0415-.05469-.11035-.05469-.20166v-.42285h-.12012v-.10742h.12012v-.18604l.1377-.03662Z" style="fill:#fff; stroke-width:0px;"/><path d="m30.34082,9.75h.14062v.48389h.00342c.02246-.04004.05762-.0752.10107-.09912.0415-.02393.09131-.04004.14404-.04004.104,0,.27051.06396.27051.33154v.46143h-.14062v-.44531c0-.125-.04639-.23096-.17969-.23096-.09131,0-.16357.06445-.18896.14111-.00781.01904-.00977.04004-.00977.06738v.46777h-.14062v-1.1377Z" style="fill:#fff; stroke-width:0px;"/><path d="m31.30713,10.52539c.00342.19092.125.26953.26611.26953.10107,0,.16162-.01758.21484-.04004l.02393.10059c-.0498.02246-.13477.04834-.25781.04834-.23877,0-.38135-.15723-.38135-.39111s.1377-.41797.36377-.41797c.25293,0,.32031.22266.32031.36523,0,.02881-.00342.05127-.00488.06543h-.54492Zm.41357-.10059c.00146-.08984-.03711-.22949-.19531-.22949-.14258,0-.20508.13184-.21631.22949h.41162Z" style="fill:#fff; stroke-width:0px;"/><path d="m32.35059,10.74365c.0415.02686.11523.05615.18604.05615.10254,0,.15039-.05127.15039-.11572,0-.06738-.04004-.104-.14404-.14258-.13965-.04932-.20508-.12646-.20508-.21924,0-.125.10107-.22754.26758-.22754.07861,0,.14746.02246.19043.04785l-.03516.10254c-.03027-.01904-.08643-.04492-.15869-.04492-.08301,0-.12939.04834-.12939.10596,0,.06396.04639.09277.14697.13135.13477.05127.20361.11865.20361.23389,0,.13623-.10547.23242-.29004.23242-.08496,0-.16309-.021-.21777-.05273l.03516-.10742Z" style="fill:#fff; stroke-width:0px;"/><path d="m33.08203,10.52539c.00293.19092.125.26953.26562.26953.10156,0,.16211-.01758.21484-.04004l.02441.10059c-.0498.02246-.13477.04834-.25781.04834-.23926,0-.38135-.15723-.38135-.39111s.13721-.41797.36377-.41797c.25293,0,.32031.22266.32031.36523,0,.02881-.00293.05127-.00488.06543h-.54492Zm.41309-.10059c.00195-.08984-.03613-.22949-.19531-.22949-.14258,0-.20508.13184-.21582.22949h.41113Z" style="fill:#fff; stroke-width:0px;"/><path d="m33.80566,10.354c0-.09131-.00195-.16943-.00684-.2417h.12402l.00391.15234h.00684c.03516-.10449.12012-.16992.21484-.16992.01562,0,.02734.00146.04004.00488v.13281c-.01465-.00342-.0293-.00488-.04785-.00488-.09961,0-.16992.0752-.18945.18115-.00293.01904-.00586.0415-.00586.06543v.41357h-.13965v-.53369Z" style="fill:#fff; stroke-width:0px;"/><path d="m34.42383,10.1123l.15137.43555c.02637.0708.04688.13477.0625.19873h.00488c.01758-.06396.04004-.12793.06641-.19873l.15039-.43555h.14746l-.30469.77539h-.13477l-.29492-.77539h.15137Z" style="fill:#fff; stroke-width:0px;"/><path d="m35.2959,9.89453c.00098.04785-.03418.08643-.08984.08643-.0498,0-.08496-.03857-.08496-.08643,0-.0498.03613-.08838.08789-.08838.05273,0,.08691.03857.08691.08838Zm-.15723.99316v-.77539h.14062v.77539h-.14062Z" style="fill:#fff; stroke-width:0px;"/><path d="m36.06543,10.85889c-.03711.01904-.11914.04492-.22266.04492-.23438,0-.38672-.15869-.38672-.396,0-.23877.16406-.41162.41699-.41162.08301,0,.15723.021.19531.04004l-.03223.10889c-.0332-.01904-.08594-.03662-.16309-.03662-.17773,0-.27441.13135-.27441.29297,0,.17969.11523.29004.26953.29004.08008,0,.13281-.021.17285-.03857l.02441.10596Z" style="fill:#fff; stroke-width:0px;"/><path d="m36.29785,10.52539c.00293.19092.125.26953.2666.26953.10059,0,.16113-.01758.21387-.04004l.02441.10059c-.0498.02246-.13477.04834-.25781.04834-.23926,0-.38184-.15723-.38184-.39111s.1377-.41797.36426-.41797c.25293,0,.32031.22266.32031.36523,0,.02881-.00293.05127-.00488.06543h-.54492Zm.41309-.10059c.00195-.08984-.03613-.22949-.19531-.22949-.14258,0-.20508.13184-.21582.22949h.41113Z" style="fill:#fff; stroke-width:0px;"/><path d="m37.00195,10.74365c.04199.02686.11523.05615.18555.05615.10254,0,.15137-.05127.15137-.11572,0-.06738-.04004-.104-.14453-.14258-.13965-.04932-.20508-.12646-.20508-.21924,0-.125.10059-.22754.26758-.22754.07812,0,.14746.02246.19043.04785l-.03516.10254c-.03027-.01904-.08691-.04492-.1582-.04492-.08398,0-.12988.04834-.12988.10596,0,.06396.0459.09277.14746.13135.13477.05127.20312.11865.20312.23389,0,.13623-.10547.23242-.29004.23242-.08496,0-.16309-.021-.21777-.05273l.03516-.10742Z" style="fill:#fff; stroke-width:0px;"/><path d="m38.16406,9.88965v.22266h.20117v.10742h-.20117v.41797c0,.09619.02734.15088.10547.15088.03711,0,.06445-.00488.08203-.00977l.00586.10547c-.02734.01123-.07031.01953-.125.01953-.06543,0-.11816-.021-.15234-.05957-.04004-.0415-.05371-.11035-.05371-.20166v-.42285h-.12012v-.10742h.12012v-.18604l.1377-.03662Z" style="fill:#fff; stroke-width:0px;"/><path d="m38.52344,9.75h.14062v.48389h.00293c.02246-.04004.05762-.0752.10156-.09912.04102-.02393.09082-.04004.14355-.04004.10449,0,.27148.06396.27148.33154v.46143h-.1416v-.44531c0-.125-.0459-.23096-.17871-.23096-.0918,0-.16406.06445-.18945.14111-.00781.01904-.00977.04004-.00977.06738v.46777h-.14062v-1.1377Z" style="fill:#fff; stroke-width:0px;"/><path d="m39.83984,10.8877l-.01074-.09766h-.00488c-.04297.06104-.12695.11523-.2373.11523-.15723,0-.2373-.11035-.2373-.22266,0-.1875.16699-.29004.4668-.28857v-.01562c0-.06445-.01758-.17969-.17676-.17969-.07129,0-.14746.02246-.20117.05762l-.03223-.09277c.06348-.0415.15723-.06885.25488-.06885.2373,0,.29492.16162.29492.31689v.29004c0,.06738.00293.1333.0127.18604h-.12891Zm-.02051-.39551c-.15332-.00342-.32812.02393-.32812.17432,0,.09131.06055.13477.13281.13477.10059,0,.16504-.06396.1875-.12988.00488-.01416.00781-.03027.00781-.04492v-.13428Z" style="fill:#fff; stroke-width:0px;"/><path d="m40.34668,9.88965v.22266h.20117v.10742h-.20117v.41797c0,.09619.02734.15088.10547.15088.03711,0,.06445-.00488.08203-.00977l.00586.10547c-.02734.01123-.07031.01953-.125.01953-.06543,0-.11816-.021-.15234-.05957-.04004-.0415-.05371-.11035-.05371-.20166v-.42285h-.12012v-.10742h.12012v-.18604l.1377-.03662Z" style="fill:#fff; stroke-width:0px;"/><path d="m41.10059,10.1123l.10254.39404c.02246.08643.04297.1665.05762.24658h.00488c.01758-.07812.04297-.16162.06934-.24512l.12598-.39551h.11914l.12012.3877c.02832.09277.05078.1748.06836.25293h.00488c.0127-.07812.03418-.16016.05957-.25146l.11035-.38916h.13965l-.25.77539h-.12793l-.11914-.37012c-.02734-.08643-.0498-.16357-.06836-.25488h-.00391c-.01855.09326-.04297.17334-.07031.25635l-.125.36865h-.12793l-.2334-.77539h.14355Z" style="fill:#fff; stroke-width:0px;"/><path d="m42.28418,10.52539c.00293.19092.125.26953.2666.26953.10059,0,.16113-.01758.21387-.04004l.02441.10059c-.0498.02246-.13477.04834-.25781.04834-.23926,0-.38184-.15723-.38184-.39111s.1377-.41797.36426-.41797c.25293,0,.32031.22266.32031.36523,0,.02881-.00293.05127-.00488.06543h-.54492Zm.41309-.10059c.00195-.08984-.03613-.22949-.19531-.22949-.14258,0-.20508.13184-.21582.22949h.41113Z" style="fill:#fff; stroke-width:0px;"/><path d="m43.11133,9.79004l-.02637.38477h-.08691l-.02539-.38477h.13867Z" style="fill:#fff; stroke-width:0px;"/><path d="m43.96582,9.75v.9375c0,.06885.00098.14746.00586.2002h-.12598l-.00684-.13477h-.00293c-.04395.08691-.1377.15234-.26465.15234-.1875,0-.33203-.15869-.33203-.39404-.00098-.25781.15918-.4165.34766-.4165.11914,0,.19922.05615.23438.11865h.00293v-.46338h.1416Zm-.1416.67773c0-.01758-.00098-.0415-.00586-.05908-.02148-.08984-.09766-.16357-.2041-.16357-.14551,0-.23242.12842-.23242.2998,0,.15674.07715.28662.22949.28662.09473,0,.18066-.0625.20703-.16797.00488-.01953.00586-.03857.00586-.06104v-.13477Z" style="fill:#fff; stroke-width:0px;"/><path d="m44.53711,9.75h.14062v1.1377h-.14062v-1.1377Z" style="fill:#fff; stroke-width:0px;"/><path d="m45.07227,9.89453c.00098.04785-.03418.08643-.08984.08643-.0498,0-.08496-.03857-.08496-.08643,0-.0498.03613-.08838.08789-.08838.05273,0,.08691.03857.08691.08838Zm-.15723.99316v-.77539h.14062v.77539h-.14062Z" style="fill:#fff; stroke-width:0px;"/><path d="m45.42773,10.46777h.00391c.01855-.02686.0459-.06055.06836-.08789l.22754-.26758h.16992l-.2998.31885.3418.45654h-.17188l-.26758-.37158-.07227.08008v.2915h-.13867v-1.1377h.13867v.71777Z" style="fill:#fff; stroke-width:0px;"/><path d="m46.11719,10.52539c.00293.19092.125.26953.26562.26953.10156,0,.16211-.01758.21484-.04004l.02441.10059c-.0498.02246-.13477.04834-.25781.04834-.23926,0-.38184-.15723-.38184-.39111s.1377-.41797.36426-.41797c.25293,0,.32031.22266.32031.36523,0,.02881-.00293.05127-.00488.06543h-.54492Zm.41309-.10059c.00195-.08984-.03613-.22949-.19531-.22949-.14258,0-.20508.13184-.21582.22949h.41113Z" style="fill:#fff; stroke-width:0px;"/><path d="m47.34961,9.88965v.22266h.20117v.10742h-.20117v.41797c0,.09619.02734.15088.10547.15088.03711,0,.06445-.00488.08203-.00977l.00586.10547c-.02734.01123-.07031.01953-.125.01953-.06543,0-.11816-.021-.15234-.05957-.04004-.0415-.05371-.11035-.05371-.20166v-.42285h-.12012v-.10742h.12012v-.18604l.1377-.03662Z" style="fill:#fff; stroke-width:0px;"/><path d="m48.40039,10.49365c0,.28662-.19824.41162-.38574.41162-.20996,0-.37207-.15381-.37207-.39893,0-.25928.16992-.41162.38477-.41162.22266,0,.37305.16162.37305.39893Zm-.61523.00781c0,.16992.09766.29834.23633.29834.13379,0,.23535-.12695.23535-.30127,0-.13135-.06641-.29834-.23242-.29834-.16699,0-.23926.15381-.23926.30127Z" style="fill:#fff; stroke-width:0px;"/><path d="m49.56445,10.67627c0,.08008.00195.15039.00684.21143h-.125l-.00781-.12646h-.00391c-.03613.0625-.11816.14404-.25586.14404-.12207,0-.26758-.06738-.26758-.33984v-.45312h.14062v.4292c0,.14746.04492.24707.17285.24707.09473,0,.16016-.06592.18652-.12842.00781-.021.0127-.04639.0127-.07227v-.47559h.14062v.56396Z" style="fill:#fff; stroke-width:0px;"/><path d="m49.77832,10.74365c.04199.02686.11523.05615.18555.05615.10254,0,.15137-.05127.15137-.11572,0-.06738-.04004-.104-.14453-.14258-.13965-.04932-.20508-.12646-.20508-.21924,0-.125.10059-.22754.26758-.22754.07812,0,.14746.02246.19043.04785l-.03516.10254c-.03027-.01904-.08691-.04492-.1582-.04492-.08398,0-.12988.04834-.12988.10596,0,.06396.0459.09277.14746.13135.13477.05127.20312.11865.20312.23389,0,.13623-.10547.23242-.29004.23242-.08496,0-.16309-.021-.21777-.05273l.03516-.10742Z" style="fill:#fff; stroke-width:0px;"/><path d="m50.50977,10.52539c.00293.19092.125.26953.26562.26953.10156,0,.16211-.01758.21484-.04004l.02441.10059c-.0498.02246-.13477.04834-.25781.04834-.23926,0-.38184-.15723-.38184-.39111s.1377-.41797.36426-.41797c.25293,0,.32031.22266.32031.36523,0,.02881-.00293.05127-.00488.06543h-.54492Zm.41309-.10059c.00195-.08984-.03613-.22949-.19531-.22949-.14258,0-.20508.13184-.21582.22949h.41113Z" style="fill:#fff; stroke-width:0px;"/><path d="m52.27344,10.49365c0,.28662-.19824.41162-.38574.41162-.20996,0-.37207-.15381-.37207-.39893,0-.25928.16992-.41162.38477-.41162.22266,0,.37305.16162.37305.39893Zm-.61523.00781c0,.16992.09766.29834.23633.29834.13379,0,.23535-.12695.23535-.30127,0-.13135-.06641-.29834-.23242-.29834-.16699,0-.23926.15381-.23926.30127Z" style="fill:#fff; stroke-width:0px;"/><path d="m52.4502,10.32227c0-.08008-.00195-.146-.00684-.20996h.125l.00781.12793h.00391c.03809-.07373.12793-.14551.25586-.14551.10742,0,.27441.06396.27441.33008v.46289h-.1416v-.44678c0-.125-.0459-.22949-.17871-.22949-.09375,0-.16504.06592-.18945.14453-.00684.01758-.00977.0415-.00977.06543v.46631h-.14062v-.56543Z" style="fill:#fff; stroke-width:0px;"/><path d="m53.84668,9.88965v.22266h.20117v.10742h-.20117v.41797c0,.09619.02734.15088.10547.15088.03711,0,.06445-.00488.08203-.00977l.00586.10547c-.02734.01123-.07031.01953-.125.01953-.06543,0-.11816-.021-.15234-.05957-.04004-.0415-.05371-.11035-.05371-.20166v-.42285h-.12012v-.10742h.12012v-.18604l.1377-.03662Z" style="fill:#fff; stroke-width:0px;"/><path d="m54.20605,9.75h.14062v.48389h.00293c.02246-.04004.05762-.0752.10156-.09912.04102-.02393.09082-.04004.14355-.04004.10449,0,.27148.06396.27148.33154v.46143h-.1416v-.44531c0-.125-.0459-.23096-.17871-.23096-.0918,0-.16406.06445-.18945.14111-.00781.01904-.00977.04004-.00977.06738v.46777h-.14062v-1.1377Z" style="fill:#fff; stroke-width:0px;"/><path d="m55.25098,9.89453c.00098.04785-.03418.08643-.08984.08643-.0498,0-.08496-.03857-.08496-.08643,0-.0498.03613-.08838.08789-.08838.05273,0,.08691.03857.08691.08838Zm-.15723.99316v-.77539h.14062v.77539h-.14062Z" style="fill:#fff; stroke-width:0px;"/><path d="m55.44824,10.74365c.04199.02686.11523.05615.18555.05615.10254,0,.15137-.05127.15137-.11572,0-.06738-.04004-.104-.14453-.14258-.13965-.04932-.20508-.12646-.20508-.21924,0-.125.10059-.22754.26758-.22754.07812,0,.14746.02246.19043.04785l-.03516.10254c-.03027-.01904-.08691-.04492-.1582-.04492-.08398,0-.12988.04834-.12988.10596,0,.06396.0459.09277.14746.13135.13477.05127.20312.11865.20312.23389,0,.13623-.10547.23242-.29004.23242-.08496,0-.16309-.021-.21777-.05273l.03516-.10742Z" style="fill:#fff; stroke-width:0px;"/><path d="m6.31934,12.03271l.10254.39404c.02246.08643.04346.1665.05762.24658h.00488c.01758-.07812.04346-.16162.06885-.24512l.12695-.39551h.11816l.12061.3877c.02881.09277.05127.1748.06885.25293h.00439c.01318-.07812.03369-.16016.05957-.25146l.11035-.38916h.13965l-.25.77539h-.12842l-.11816-.37012c-.02734-.08643-.0498-.16357-.06885-.25488h-.00342c-.01904.09326-.04346.17334-.07031.25635l-.125.36865h-.12842l-.23389-.77539h.14404Z" style="fill:#fff; stroke-width:0px;"/><path d="m7.50342,12.4458c.00342.19092.125.26953.26611.26953.10107,0,.16162-.01758.21484-.04004l.02393.10059c-.0498.02246-.13477.04834-.25781.04834-.23877,0-.38135-.15723-.38135-.39111s.1377-.41797.36377-.41797c.25293,0,.32031.22266.32031.36523,0,.02881-.00342.05127-.00488.06543h-.54492Zm.41357-.10059c.00146-.08984-.03711-.229-.19531-.229-.14258,0-.20508.13135-.21631.229h.41162Z" style="fill:#fff; stroke-width:0px;"/><path d="m8.22021,12.80811c.00342-.05273.00684-.13135.00684-.2002v-.9375h.13916v.4873h.00342c.04932-.08643.13916-.14258.26416-.14258.19238,0,.32861.16016.32666.39551,0,.27734-.17432.41504-.34766.41504-.11182,0-.20166-.04346-.25928-.146h-.00488l-.00635.12842h-.12207Zm.146-.31104c0,.01807.00342.03564.00635.05127.02734.09814.10889.16504.21143.16504.14746,0,.23584-.12012.23584-.29785,0-.15527-.08008-.28857-.23096-.28857-.09619,0-.18604.06592-.21484.17334-.00293.01611-.00781.03516-.00781.05762v.13916Z" style="fill:#fff; stroke-width:0px;"/><path d="m9.11768,12.66406c.0415.02686.11523.05615.18604.05615.10254,0,.15039-.05127.15039-.11572,0-.06738-.04004-.104-.14404-.14258-.13965-.04932-.20508-.12646-.20508-.21924,0-.125.10107-.22754.26758-.22754.07861,0,.14746.02246.19043.04785l-.03516.10254c-.03027-.01904-.08643-.04492-.15869-.04492-.08301,0-.12939.04834-.12939.10596,0,.06396.04639.09277.14697.13135.13477.05127.20361.11865.20361.23389,0,.13623-.10547.23242-.29004.23242-.08496,0-.16309-.021-.21777-.05273l.03516-.10742Z" style="fill:#fff; stroke-width:0px;"/><path d="m9.92773,11.81494c.00146.04785-.03369.08643-.08984.08643-.04932,0-.08496-.03857-.08496-.08643,0-.0498.03711-.08838.08838-.08838.05273,0,.08643.03857.08643.08838Zm-.15674.99316v-.77539h.14062v.77539h-.14062Z" style="fill:#fff; stroke-width:0px;"/><path d="m10.31494,11.81006v.22266h.20215v.10742h-.20215v.41797c0,.09619.02734.15088.10596.15088.03662,0,.06396-.00488.08154-.00977l.00635.10547c-.02686.01123-.07031.01953-.125.01953-.06543,0-.11816-.021-.15186-.05957-.04004-.0415-.05469-.11035-.05469-.20166v-.42285h-.12012v-.10742h.12012v-.18604l.1377-.03662Z" style="fill:#fff; stroke-width:0px;"/><path d="m10.74414,12.4458c.00342.19092.125.26953.26611.26953.10107,0,.16162-.01758.21484-.04004l.02393.10059c-.0498.02246-.13477.04834-.25781.04834-.23877,0-.38135-.15723-.38135-.39111s.1377-.41797.36377-.41797c.25293,0,.32031.22266.32031.36523,0,.02881-.00342.05127-.00488.06543h-.54492Zm.41357-.10059c.00146-.08984-.03711-.229-.19531-.229-.14258,0-.20508.13135-.21631.229h.41162Z" style="fill:#fff; stroke-width:0px;"/><path d="m11.41455,12.72461c0-.05908.04004-.10059.09619-.10059.05566,0,.09424.0415.09424.10059,0,.05762-.03662.10107-.09619.10107-.05615,0-.09424-.04346-.09424-.10107Z" style="fill:#fff; stroke-width:0px;"/><path d="m12.29053,12.80811v-.45801l-.34131-.62207h.1582l.15234.29834c.04199.08154.07373.14746.10742.22266h.00342c.03027-.0708.06689-.14111.10889-.22266l.15527-.29834h.15869l-.3623.62012v.45996h-.14062Z" style="fill:#fff; stroke-width:0px;"/><path d="m13.49121,12.41406c0,.28662-.19873.41162-.38623.41162-.20996,0-.37158-.15381-.37158-.39893,0-.25977.16992-.41162.38428-.41162.22266,0,.37354.16162.37354.39893Zm-.61523.00781c0,.16992.09766.29834.23535.29834.13477,0,.23535-.12695.23535-.30127,0-.13135-.06543-.29834-.23193-.29834-.16699,0-.23877.15381-.23877.30127Z" style="fill:#fff; stroke-width:0px;"/><path d="m14.31641,12.59668c0,.08008.00195.15039.00684.21143h-.125l-.0083-.12646h-.00293c-.03711.0625-.11865.14404-.25635.14404-.12207,0-.26758-.06738-.26758-.33984v-.45312h.14062v.4292c0,.14746.04492.24707.17334.24707.09424,0,.16016-.06592.18555-.12842.0083-.021.01318-.04639.01318-.07227v-.47559h.14062v.56396Z" style="fill:#fff; stroke-width:0px;"/><path d="m14.65332,11.71045l-.02734.38477h-.08643l-.02588-.38477h.13965Z" style="fill:#fff; stroke-width:0px;"/><path d="m14.8501,12.27441c0-.09131-.00195-.16943-.00684-.2417h.12354l.00488.15234h.00635c.03516-.10449.12012-.16992.21484-.16992.01611,0,.02686.00146.04004.00488v.13281c-.01465-.00342-.02881-.00488-.04834-.00488-.09912,0-.16992.0752-.18896.18115-.00293.01904-.00635.0415-.00635.06543v.41357h-.13916v-.53369Z" style="fill:#fff; stroke-width:0px;"/><path d="m15.43555,12.4458c.00342.19092.125.26953.26611.26953.10107,0,.16162-.01758.21484-.04004l.02393.10059c-.0498.02246-.13477.04834-.25781.04834-.23877,0-.38135-.15723-.38135-.39111s.1377-.41797.36377-.41797c.25293,0,.32031.22266.32031.36523,0,.02881-.00342.05127-.00488.06543h-.54492Zm.41357-.10059c.00146-.08984-.03711-.229-.19531-.229-.14258,0-.20508.13135-.21631.229h.41162Z" style="fill:#fff; stroke-width:0px;"/><path d="m16.65527,11.81494c.00146.04785-.03369.08643-.08984.08643-.04932,0-.08496-.03857-.08496-.08643,0-.0498.03711-.08838.08838-.08838.05273,0,.08643.03857.08643.08838Zm-.15674.99316v-.77539h.14062v.77539h-.14062Z" style="fill:#fff; stroke-width:0px;"/><path d="m16.87305,12.24268c0-.08008-.00195-.146-.00684-.20996h.125l.0083.12793h.00293c.03857-.07373.12842-.14551.25635-.14551.10742,0,.27393.06396.27393.33008v.46289h-.14062v-.44678c0-.125-.04639-.22949-.17969-.22949-.09277,0-.16504.06592-.18896.14453-.00635.01758-.00977.0415-.00977.06543v.46631h-.14062v-.56543Z" style="fill:#fff; stroke-width:0px;"/><path d="m18.65332,12.7793c-.03711.01904-.11865.04492-.22314.04492-.23389,0-.38574-.15869-.38574-.396,0-.23877.16309-.41162.4165-.41162.08301,0,.15674.021.19531.04004l-.03223.10889c-.0332-.01904-.08643-.03662-.16309-.03662-.17773,0-.27393.13135-.27393.29297,0,.17969.11523.29004.26904.29004.08008,0,.13281-.021.17285-.03857l.02441.10596Z" style="fill:#fff; stroke-width:0px;"/><path d="m18.81738,11.67041h.14062v.48389h.00342c.02246-.04004.05762-.0752.10107-.09912.0415-.02393.09131-.04004.14404-.04004.104,0,.27051.06396.27051.33154v.46143h-.14062v-.44531c0-.125-.04639-.23096-.17969-.23096-.09131,0-.16357.06445-.18896.14111-.00781.01904-.00977.04004-.00977.06738v.46777h-.14062v-1.1377Z" style="fill:#fff; stroke-width:0px;"/><path d="m20.13477,12.80811l-.01123-.09766h-.00488c-.04346.06104-.12646.11523-.2373.11523-.15674,0-.23682-.11035-.23682-.22266,0-.1875.1665-.29004.46631-.28857v-.01562c0-.06445-.01758-.17969-.17627-.17969-.07227,0-.14746.02246-.20215.05762l-.03174-.09277c.06396-.0415.15674-.06885.25439-.06885.2373,0,.29492.16162.29492.31689v.29004c0,.06738.00342.1333.0127.18604h-.12793Zm-.021-.39551c-.15381-.00342-.32812.02393-.32812.17432,0,.09131.06055.13477.13281.13477.10107,0,.16504-.06396.1875-.12988.00488-.01465.00781-.03027.00781-.04492v-.13428Z" style="fill:#fff; stroke-width:0px;"/><path d="m20.47656,12.27441c0-.09131-.00195-.16943-.00684-.2417h.12354l.00488.15234h.00635c.03516-.10449.12012-.16992.21484-.16992.01611,0,.02734.00146.04004.00488v.13281c-.01465-.00342-.02881-.00488-.04834-.00488-.09912,0-.16943.0752-.18896.18115-.00293.01904-.00635.0415-.00635.06543v.41357h-.13916v-.53369Z" style="fill:#fff; stroke-width:0px;"/><path d="m21.65527,12.03271c-.00342.05615-.00635.11865-.00635.21289v.4502c0,.17822-.03564.28711-.11084.354-.0752.0708-.18408.09326-.28174.09326-.09326,0-.1958-.02246-.2583-.06396l.03564-.10742c.05127.03174.13135.06055.22754.06055.14404,0,.24951-.0752.24951-.27051v-.08643h-.00293c-.04346.07178-.12646.12939-.24658.12939-.19238,0-.33008-.16309-.33008-.37793,0-.2627.17139-.41162.34912-.41162.13477,0,.2085.07031.2417.13428h.00342l.00635-.1167h.12354Zm-.146.30615c0-.02441-.00146-.04492-.00781-.06445-.02588-.08154-.09473-.14893-.19727-.14893-.13428,0-.23047.11377-.23047.29346,0,.15186.07666.27881.229.27881.08643,0,.16504-.05469.19531-.14453.0083-.02393.01123-.05127.01123-.0752v-.13916Z" style="fill:#fff; stroke-width:0px;"/><path d="m21.95996,12.4458c.00342.19092.125.26953.26611.26953.10107,0,.16162-.01758.21484-.04004l.02393.10059c-.0498.02246-.13477.04834-.25781.04834-.23877,0-.38135-.15723-.38135-.39111s.1377-.41797.36377-.41797c.25293,0,.32031.22266.32031.36523,0,.02881-.00342.05127-.00488.06543h-.54492Zm.41357-.10059c.00146-.08984-.03711-.229-.19531-.229-.14258,0-.20508.13135-.21631.229h.41162Z" style="fill:#fff; stroke-width:0px;"/><path d="m22.65625,12.72656c0-.05762.04004-.09961.09424-.09961.05762,0,.09473.04199.09473.09961,0,.05566-.03711.09912-.09473.09912-.05615,0-.09424-.04346-.09424-.09912Zm.04004-.22949l-.02246-.76904h.15381l-.02246.76904h-.10889Z" style="fill:#fff; stroke-width:0px;"/><path d="m23.95508,12.30176h-.41992v.38916h.46777v.11719h-.60742v-1.08008h.5835v.11719h-.44385v.34131h.41992v.11523Z" style="fill:#fff; stroke-width:0px;"/><path d="m24.17822,12.24268c0-.08008-.00195-.146-.00684-.20996h.125l.0083.12793h.00293c.03857-.07373.12842-.14551.25635-.14551.10742,0,.27393.06396.27393.33008v.46289h-.14062v-.44678c0-.125-.04688-.22949-.17969-.22949-.09277,0-.16504.06592-.18896.14453-.00635.01758-.00977.0415-.00977.06543v.46631h-.14062v-.56543Z" style="fill:#fff; stroke-width:0px;"/><path d="m25.49561,12.80811l-.01123-.09766h-.00488c-.04297.06104-.12646.11523-.2373.11523-.15674,0-.23682-.11035-.23682-.22266,0-.1875.1665-.29004.46631-.28857v-.01562c0-.06445-.01758-.17969-.17627-.17969-.07227,0-.14746.02246-.20215.05762l-.03174-.09277c.06396-.0415.15674-.06885.25439-.06885.2373,0,.29492.16162.29492.31689v.29004c0,.06738.00342.1333.0127.18604h-.12793Zm-.021-.39551c-.15381-.00342-.32812.02393-.32812.17432,0,.09131.06055.13477.13281.13477.10107,0,.16504-.06396.1875-.12988.00488-.01465.00781-.03027.00781-.04492v-.13428Z" style="fill:#fff; stroke-width:0px;"/><path d="m25.83057,12.80811c.00342-.05273.00684-.13135.00684-.2002v-.9375h.13916v.4873h.00342c.04932-.08643.13916-.14258.26416-.14258.19238,0,.32861.16016.32666.39551,0,.27734-.17432.41504-.34766.41504-.11182,0-.20166-.04346-.25928-.146h-.00488l-.00635.12842h-.12207Zm.146-.31104c0,.01807.00342.03564.00635.05127.02734.09814.10889.16504.21143.16504.14746,0,.23584-.12012.23584-.29785,0-.15527-.08008-.28857-.23096-.28857-.09619,0-.18604.06592-.21484.17334-.00293.01611-.00781.03516-.00781.05762v.13916Z" style="fill:#fff; stroke-width:0px;"/><path d="m26.74756,11.67041h.14062v1.1377h-.14062v-1.1377Z" style="fill:#fff; stroke-width:0px;"/><path d="m27.20312,12.4458c.00342.19092.125.26953.26611.26953.10107,0,.16162-.01758.21484-.04004l.02393.10059c-.0498.02246-.13477.04834-.25781.04834-.23877,0-.38135-.15723-.38135-.39111s.1377-.41797.36377-.41797c.25293,0,.32031.22266.32031.36523,0,.02881-.00342.05127-.00488.06543h-.54492Zm.41357-.10059c.00146-.08984-.03711-.229-.19531-.229-.14258,0-.20508.13135-.21631.229h.41162Z" style="fill:#fff; stroke-width:0px;"/><path d="m28.96777,12.41406c0,.28662-.19873.41162-.38623.41162-.20996,0-.37158-.15381-.37158-.39893,0-.25977.16992-.41162.38428-.41162.22266,0,.37354.16162.37354.39893Zm-.61523.00781c0,.16992.09766.29834.23535.29834.13477,0,.23535-.12695.23535-.30127,0-.13135-.06543-.29834-.23193-.29834-.16699,0-.23877.15381-.23877.30127Z" style="fill:#fff; stroke-width:0px;"/><path d="m29.14453,12.27441c0-.09131-.00195-.16943-.00684-.2417h.12354l.00488.15234h.00635c.03516-.10449.12012-.16992.21484-.16992.01611,0,.02734.00146.04004.00488v.13281c-.01465-.00342-.02881-.00488-.04834-.00488-.09912,0-.16943.0752-.18896.18115-.00293.01904-.00635.0415-.00635.06543v.41357h-.13916v-.53369Z" style="fill:#fff; stroke-width:0px;"/><path d="m30.67676,11.67041v.9375c0,.06885.00146.14746.00635.2002h-.12646l-.00635-.13477h-.00342c-.04297.08691-.1377.15234-.26416.15234-.1875,0-.33154-.15869-.33154-.39404-.00195-.25781.15869-.4165.34766-.4165.11865,0,.19873.05615.23389.11865h.00293v-.46338h.14111Zm-.14111.67773c0-.01758-.00146-.0415-.00635-.05908-.02051-.08984-.09766-.16357-.20312-.16357-.146,0-.23242.12842-.23242.2998,0,.15674.07666.28662.229.28662.09473,0,.18115-.0625.20654-.16797.00488-.01953.00635-.03857.00635-.06104v-.13477Z" style="fill:#fff; stroke-width:0px;"/><path d="m31.06641,11.81494c.00146.04785-.03369.08643-.08984.08643-.04932,0-.08496-.03857-.08496-.08643,0-.0498.03711-.08838.08838-.08838.05273,0,.08643.03857.08643.08838Zm-.15674.99316v-.77539h.14062v.77539h-.14062Z" style="fill:#fff; stroke-width:0px;"/><path d="m31.26465,12.66406c.0415.02686.11523.05615.18604.05615.10254,0,.15039-.05127.15039-.11572,0-.06738-.04004-.104-.14404-.14258-.13965-.04932-.20508-.12646-.20508-.21924,0-.125.10107-.22754.26758-.22754.07861,0,.14746.02246.19043.04785l-.03516.10254c-.03027-.01904-.08643-.04492-.15869-.04492-.08301,0-.12939.04834-.12939.10596,0,.06396.04639.09277.14697.13135.13477.05127.20361.11865.20361.23389,0,.13623-.10547.23242-.29004.23242-.08496,0-.16309-.021-.21777-.05273l.03516-.10742Z" style="fill:#fff; stroke-width:0px;"/><path d="m32.34717,12.80811l-.01123-.09766h-.00488c-.04297.06104-.12646.11523-.2373.11523-.15674,0-.23682-.11035-.23682-.22266,0-.1875.1665-.29004.46631-.28857v-.01562c0-.06445-.01758-.17969-.17627-.17969-.07227,0-.14746.02246-.20215.05762l-.03174-.09277c.06396-.0415.15674-.06885.25439-.06885.2373,0,.29492.16162.29492.31689v.29004c0,.06738.00342.1333.0127.18604h-.12793Zm-.021-.39551c-.15381-.00342-.32812.02393-.32812.17432,0,.09131.06055.13477.13281.13477.10107,0,.16504-.06396.1875-.12988.00488-.01465.00781-.03027.00781-.04492v-.13428Z" style="fill:#fff; stroke-width:0px;"/><path d="m32.68213,12.80811c.00342-.05273.00684-.13135.00684-.2002v-.9375h.13916v.4873h.00342c.04932-.08643.13916-.14258.26416-.14258.19238,0,.32812.16016.32715.39551,0,.27734-.1748.41504-.34766.41504-.1123,0-.20215-.04346-.25977-.146h-.00488l-.00635.12842h-.12207Zm.146-.31104c0,.01807.00342.03564.00635.05127.02734.09814.10889.16504.21143.16504.14746,0,.23535-.12012.23535-.29785,0-.15527-.08008-.28857-.23047-.28857-.09619,0-.18604.06592-.21484.17334-.00293.01611-.00781.03516-.00781.05762v.13916Z" style="fill:#fff; stroke-width:0px;"/><path d="m33.59961,11.67041h.14062v1.1377h-.14062v-1.1377Z" style="fill:#fff; stroke-width:0px;"/><path d="m34.05566,12.4458c.00293.19092.125.26953.2666.26953.10059,0,.16113-.01758.21387-.04004l.02441.10059c-.0498.02246-.13477.04834-.25781.04834-.23926,0-.38184-.15723-.38184-.39111s.1377-.41797.36426-.41797c.25293,0,.32031.22266.32031.36523,0,.02881-.00293.05127-.00488.06543h-.54492Zm.41309-.10059c.00195-.08984-.03613-.229-.19531-.229-.14258,0-.20508.13135-.21582.229h.41113Z" style="fill:#fff; stroke-width:0px;"/><path d="m35.09863,12.66406c.04199.02686.11523.05615.18555.05615.10254,0,.15137-.05127.15137-.11572,0-.06738-.04004-.104-.14453-.14258-.13965-.04932-.20508-.12646-.20508-.21924,0-.125.10059-.22754.26758-.22754.07812,0,.14746.02246.19043.04785l-.03516.10254c-.03027-.01904-.08691-.04492-.1582-.04492-.08398,0-.12988.04834-.12988.10596,0,.06396.0459.09277.14746.13135.13477.05127.20312.11865.20312.23389,0,.13623-.10547.23242-.29004.23242-.08496,0-.16309-.021-.21777-.05273l.03516-.10742Z" style="fill:#fff; stroke-width:0px;"/><path d="m35.83008,12.4458c.00293.19092.125.26953.26562.26953.10156,0,.16211-.01758.21484-.04004l.02441.10059c-.0498.02246-.13477.04834-.25781.04834-.23926,0-.38184-.15723-.38184-.39111s.1377-.41797.36426-.41797c.25293,0,.32031.22266.32031.36523,0,.02881-.00293.05127-.00488.06543h-.54492Zm.41309-.10059c.00195-.08984-.03613-.229-.19531-.229-.14258,0-.20508.13135-.21582.229h.41113Z" style="fill:#fff; stroke-width:0px;"/><path d="m36.55371,12.27441c0-.09131-.00195-.16943-.00684-.2417h.12402l.00391.15234h.00684c.03516-.10449.12012-.16992.21484-.16992.01562,0,.02734.00146.04004.00488v.13281c-.01465-.00342-.0293-.00488-.04785-.00488-.09961,0-.16992.0752-.18945.18115-.00293.01904-.00586.0415-.00586.06543v.41357h-.13965v-.53369Z" style="fill:#fff; stroke-width:0px;"/><path d="m37.17188,12.03271l.15137.43555c.02637.0708.04688.13477.0625.19873h.00488c.01758-.06396.04004-.12793.06641-.19873l.15039-.43555h.14746l-.30469.77539h-.13477l-.29492-.77539h.15137Z" style="fill:#fff; stroke-width:0px;"/><path d="m38.04395,11.81494c.00098.04785-.03418.08643-.08984.08643-.0498,0-.08496-.03857-.08496-.08643,0-.0498.03613-.08838.08789-.08838.05273,0,.08691.03857.08691.08838Zm-.15723.99316v-.77539h.14062v.77539h-.14062Z" style="fill:#fff; stroke-width:0px;"/><path d="m38.81348,12.7793c-.03711.01904-.11914.04492-.22266.04492-.23438,0-.38672-.15869-.38672-.396,0-.23877.16406-.41162.41699-.41162.08301,0,.15723.021.19531.04004l-.03223.10889c-.0332-.01904-.08594-.03662-.16309-.03662-.17773,0-.27441.13135-.27441.29297,0,.17969.11523.29004.26953.29004.08008,0,.13281-.021.17285-.03857l.02441.10596Z" style="fill:#fff; stroke-width:0px;"/><path d="m39.0459,12.4458c.00293.19092.125.26953.2666.26953.10059,0,.16113-.01758.21387-.04004l.02441.10059c-.0498.02246-.13477.04834-.25781.04834-.23926,0-.38184-.15723-.38184-.39111s.1377-.41797.36426-.41797c.25293,0,.32031.22266.32031.36523,0,.02881-.00293.05127-.00488.06543h-.54492Zm.41309-.10059c.00195-.08984-.03613-.229-.19531-.229-.14258,0-.20508.13135-.21582.229h.41113Z" style="fill:#fff; stroke-width:0px;"/><path d="m39.75,12.66406c.04199.02686.11523.05615.18555.05615.10254,0,.15137-.05127.15137-.11572,0-.06738-.04004-.104-.14453-.14258-.13965-.04932-.20508-.12646-.20508-.21924,0-.125.10059-.22754.26758-.22754.07812,0,.14746.02246.19043.04785l-.03516.10254c-.03027-.01904-.08691-.04492-.1582-.04492-.08398,0-.12988.04834-.12988.10596,0,.06396.0459.09277.14746.13135.13477.05127.20312.11865.20312.23389,0,.13623-.10547.23242-.29004.23242-.08496,0-.16309-.021-.21777-.05273l.03516-.10742Z" style="fill:#fff; stroke-width:0px;"/><path d="m41.1709,12.80811l-.01074-.09766h-.00488c-.04297.06104-.12695.11523-.2373.11523-.15723,0-.2373-.11035-.2373-.22266,0-.1875.16699-.29004.4668-.28857v-.01562c0-.06445-.01758-.17969-.17676-.17969-.07129,0-.14746.02246-.20117.05762l-.03223-.09277c.06348-.0415.15723-.06885.25488-.06885.2373,0,.29492.16162.29492.31689v.29004c0,.06738.00293.1333.0127.18604h-.12891Zm-.02051-.39551c-.15332-.00342-.32812.02393-.32812.17432,0,.09131.06055.13477.13281.13477.10059,0,.16504-.06396.1875-.12988.00488-.01465.00781-.03027.00781-.04492v-.13428Z" style="fill:#fff; stroke-width:0px;"/><path d="m41.49414,12.66406c.04199.02686.11523.05615.18555.05615.10254,0,.15137-.05127.15137-.11572,0-.06738-.04004-.104-.14453-.14258-.13965-.04932-.20508-.12646-.20508-.21924,0-.125.10059-.22754.26758-.22754.07812,0,.14746.02246.19043.04785l-.03516.10254c-.03027-.01904-.08691-.04492-.1582-.04492-.08398,0-.12988.04834-.12988.10596,0,.06396.0459.09277.14746.13135.13477.05127.20312.11865.20312.23389,0,.13623-.10547.23242-.29004.23242-.08496,0-.16309-.021-.21777-.05273l.03516-.10742Z" style="fill:#fff; stroke-width:0px;"/><path d="m42.53711,12.03271l.16992.45801c.01758.05127.03711.1123.0498.15869h.00293c.01465-.04639.03027-.10547.0498-.16162l.1543-.45508h.14844l-.21094.55273c-.10156.26611-.16992.40186-.2666.48535-.06836.06104-.1377.08496-.17285.09131l-.03516-.11865c.03516-.01123.08203-.03369.12305-.06885.03906-.03027.08691-.08496.11914-.15674.00586-.01465.01074-.02588.01074-.03369,0-.0083-.00293-.01953-.00977-.03711l-.28613-.71436h.15332Z" style="fill:#fff; stroke-width:0px;"/><path d="m43.92578,12.41406c0,.28662-.19824.41162-.38574.41162-.20996,0-.37207-.15381-.37207-.39893,0-.25977.16992-.41162.38477-.41162.22266,0,.37305.16162.37305.39893Zm-.61523.00781c0,.16992.09766.29834.23633.29834.13379,0,.23535-.12695.23535-.30127,0-.13135-.06641-.29834-.23242-.29834-.16699,0-.23926.15381-.23926.30127Z" style="fill:#fff; stroke-width:0px;"/><path d="m44.75098,12.59668c0,.08008.00195.15039.00684.21143h-.125l-.00781-.12646h-.00391c-.03613.0625-.11816.14404-.25586.14404-.12207,0-.26758-.06738-.26758-.33984v-.45312h.14062v.4292c0,.14746.04492.24707.17285.24707.09473,0,.16016-.06592.18652-.12842.00781-.021.0127-.04639.0127-.07227v-.47559h.14062v.56396Z" style="fill:#fff; stroke-width:0px;"/><path d="m45.30371,12.66406c.04199.02686.11523.05615.18555.05615.10254,0,.15137-.05127.15137-.11572,0-.06738-.04004-.104-.14453-.14258-.13965-.04932-.20508-.12646-.20508-.21924,0-.125.10059-.22754.26758-.22754.07812,0,.14746.02246.19043.04785l-.03516.10254c-.03027-.01904-.08691-.04492-.1582-.04492-.08398,0-.12988.04834-.12988.10596,0,.06396.0459.09277.14746.13135.13477.05127.20312.11865.20312.23389,0,.13623-.10547.23242-.29004.23242-.08496,0-.16309-.021-.21777-.05273l.03516-.10742Z" style="fill:#fff; stroke-width:0px;"/><path d="m46.03516,12.4458c.00293.19092.125.26953.26562.26953.10156,0,.16211-.01758.21484-.04004l.02441.10059c-.0498.02246-.13477.04834-.25781.04834-.23926,0-.38184-.15723-.38184-.39111s.1377-.41797.36426-.41797c.25293,0,.32031.22266.32031.36523,0,.02881-.00293.05127-.00488.06543h-.54492Zm.41309-.10059c.00195-.08984-.03613-.229-.19531-.229-.14258,0-.20508.13135-.21582.229h.41113Z" style="fill:#fff; stroke-width:0px;"/><path d="m46.83691,12.4458c.00293.19092.125.26953.2666.26953.10059,0,.16113-.01758.21387-.04004l.02441.10059c-.0498.02246-.13477.04834-.25781.04834-.23926,0-.38184-.15723-.38184-.39111s.1377-.41797.36426-.41797c.25293,0,.32031.22266.32031.36523,0,.02881-.00293.05127-.00488.06543h-.54492Zm.41309-.10059c.00195-.08984-.03613-.229-.19531-.229-.14258,0-.20508.13135-.21582.229h.41113Z" style="fill:#fff; stroke-width:0px;"/><path d="m47.91406,12.80811v-.66797h-.10938v-.10742h.10938v-.0415c0-.20508.12012-.33838.33789-.33838.07227,0,.15625.02246.19727.05127l-.04102.10742c-.0332-.02393-.09375-.04492-.16309-.04492-.14844,0-.19238.104-.19238.22754v.03857h.4502v.77539h-.13867v-.66797h-.31152v.66797h-.13867Z" style="fill:#fff; stroke-width:0px;"/><path d="m48.90625,11.81006v.22266h.20117v.10742h-.20117v.41797c0,.09619.02734.15088.10547.15088.03711,0,.06445-.00488.08203-.00977l.00586.10547c-.02734.01123-.07031.01953-.125.01953-.06543,0-.11816-.021-.15234-.05957-.04004-.0415-.05371-.11035-.05371-.20166v-.42285h-.12012v-.10742h.12012v-.18604l.1377-.03662Z" style="fill:#fff; stroke-width:0px;"/><path d="m49.22656,12.72461c0-.05908.04004-.10059.09668-.10059.05566,0,.09473.0415.09473.10059,0,.05762-.03711.10107-.09668.10107-.05566,0-.09473-.04346-.09473-.10107Z" style="fill:#fff; stroke-width:0px;"/><path d="m50.0752,11.84668h-.3291v-.11865h.7998v.11865h-.33008v.96143h-.14062v-.96143Z" style="fill:#fff; stroke-width:0px;"/><path d="m51.24707,12.41406c0,.28662-.19824.41162-.38574.41162-.20996,0-.37207-.15381-.37207-.39893,0-.25977.16992-.41162.38477-.41162.22266,0,.37305.16162.37305.39893Zm-.61523.00781c0,.16992.09766.29834.23633.29834.13379,0,.23535-.12695.23535-.30127,0-.13135-.06641-.29834-.23242-.29834-.16699,0-.23926.15381-.23926.30127Z" style="fill:#fff; stroke-width:0px;"/><path d="m51.7627,11.67041h.14062v1.1377h-.14062v-1.1377Z" style="fill:#fff; stroke-width:0px;"/><path d="m52.21875,12.4458c.00293.19092.125.26953.26562.26953.10156,0,.16211-.01758.21484-.04004l.02441.10059c-.0498.02246-.13477.04834-.25781.04834-.23926,0-.38184-.15723-.38184-.39111s.1377-.41797.36426-.41797c.25293,0,.32031.22266.32031.36523,0,.02881-.00293.05127-.00488.06543h-.54492Zm.41309-.10059c.00195-.08984-.03613-.229-.19531-.229-.14258,0-.20508.13135-.21582.229h.41113Z" style="fill:#fff; stroke-width:0px;"/><path d="m53.37109,12.80811l-.01074-.09766h-.00488c-.04297.06104-.12695.11523-.2373.11523-.15723,0-.2373-.11035-.2373-.22266,0-.1875.16699-.29004.4668-.28857v-.01562c0-.06445-.01758-.17969-.17676-.17969-.07129,0-.14746.02246-.20117.05762l-.03223-.09277c.06348-.0415.15723-.06885.25488-.06885.2373,0,.29492.16162.29492.31689v.29004c0,.06738.00293.1333.0127.18604h-.12891Zm-.02051-.39551c-.15332-.00342-.32812.02393-.32812.17432,0,.09131.06055.13477.13281.13477.10059,0,.16504-.06396.1875-.12988.00488-.01465.00781-.03027.00781-.04492v-.13428Z" style="fill:#fff; stroke-width:0px;"/><path d="m53.71387,12.27441c0-.09131-.00195-.16943-.00684-.2417h.12402l.00391.15234h.00684c.03516-.10449.12012-.16992.21484-.16992.01562,0,.02734.00146.04004.00488v.13281c-.01465-.00342-.0293-.00488-.04785-.00488-.09961,0-.16992.0752-.18945.18115-.00293.01904-.00586.0415-.00586.06543v.41357h-.13965v-.53369Z" style="fill:#fff; stroke-width:0px;"/><path d="m54.24414,12.24268c0-.08008-.00195-.146-.00684-.20996h.125l.00781.12793h.00391c.03809-.07373.12793-.14551.25586-.14551.10742,0,.27441.06396.27441.33008v.46289h-.1416v-.44678c0-.125-.0459-.22949-.17871-.22949-.09375,0-.16504.06592-.18945.14453-.00684.01758-.00977.0415-.00977.06543v.46631h-.14062v-.56543Z" style="fill:#fff; stroke-width:0px;"/><path d="m6.26367,14.1626c0-.08008-.00195-.146-.00684-.20996h.12354l.00635.125h.00488c.04346-.07373.11523-.14258.24365-.14258.10547,0,.18555.06396.21924.15527h.00342c.02393-.04346.0542-.07666.08643-.10107.04639-.03516.09766-.0542.17139-.0542.10254,0,.25488.06738.25488.33643v.45654h-.1377v-.43896c0-.14893-.05469-.23877-.16846-.23877-.08008,0-.14258.05908-.1665.12842-.00635.01904-.01123.04443-.01123.07031v.479h-.1377v-.46484c0-.12305-.05469-.21289-.16211-.21289-.08789,0-.15186.07031-.17432.14111-.0083.02051-.01123.04492-.01123.06885v.46777h-.1377v-.56543Z" style="fill:#fff; stroke-width:0px;"/><path d="m8.2998,14.33398c0,.28662-.19873.41162-.38623.41162-.20996,0-.37158-.15381-.37158-.39893,0-.25977.16992-.41162.38428-.41162.22266,0,.37354.16162.37354.39893Zm-.61523.00781c0,.16992.09766.29834.23535.29834.13477,0,.23535-.12695.23535-.30127,0-.13135-.06543-.29834-.23193-.29834-.16699,0-.23877.15381-.23877.30127Z" style="fill:#fff; stroke-width:0px;"/><path d="m8.47656,14.19434c0-.09131-.00195-.16943-.00684-.2417h.12354l.00488.15234h.00635c.03516-.10449.12012-.16992.21484-.16992.01611,0,.02734.00146.04004.00488v.13281c-.01465-.00342-.02881-.00488-.04834-.00488-.09912,0-.16943.0752-.18896.18115-.00293.01904-.00635.0415-.00635.06543v.41357h-.13916v-.53369Z" style="fill:#fff; stroke-width:0px;"/><path d="m9.06201,14.36572c.00342.19092.125.26953.26611.26953.10107,0,.16162-.01758.21484-.04004l.02393.10059c-.0498.02246-.13477.04834-.25781.04834-.23877,0-.38135-.15723-.38135-.39111s.1377-.41797.36377-.41797c.25293,0,.32031.22266.32031.36523,0,.02881-.00342.05127-.00488.06543h-.54492Zm.41357-.10059c.00146-.08984-.03711-.229-.19531-.229-.14258,0-.20508.13135-.21631.229h.41162Z" style="fill:#fff; stroke-width:0px;"/><path d="m9.6748,14.92529c.03564-.09473.07861-.26611.09619-.3833l.15723-.01562c-.03711.13574-.10742.31396-.15234.38916l-.10107.00977Z" style="fill:#fff; stroke-width:0px;"/><path d="m10.43701,14.20557c0-.09912-.00342-.1792-.00684-.25293h.12695l.00635.13281h.00293c.05762-.09424.14893-.15039.27588-.15039.1875,0,.32812.15869.32812.39404,0,.27881-.16943.4165-.35254.4165-.10254,0-.19189-.04492-.23828-.12158h-.00342v.42139h-.13916v-.83984Zm.13916.20703c0,.02051.00342.04004.00635.05762.02588.09766.11084.16504.21143.16504.14893,0,.23584-.12207.23584-.2998,0-.15527-.08203-.28857-.23096-.28857-.09619,0-.18604.06934-.21289.1748-.00488.01758-.00977.03857-.00977.05762v.1333Z" style="fill:#fff; stroke-width:0px;"/><path d="m11.34717,13.59033h.14062v1.1377h-.14062v-1.1377Z" style="fill:#fff; stroke-width:0px;"/><path d="m11.80273,14.36572c.00342.19092.125.26953.26611.26953.10107,0,.16162-.01758.21484-.04004l.02393.10059c-.0498.02246-.13477.04834-.25781.04834-.23877,0-.38135-.15723-.38135-.39111s.1377-.41797.36377-.41797c.25293,0,.32031.22266.32031.36523,0,.02881-.00342.05127-.00488.06543h-.54492Zm.41357-.10059c.00146-.08984-.03711-.229-.19531-.229-.14258,0-.20508.13135-.21631.229h.41162Z" style="fill:#fff; stroke-width:0px;"/><path d="m12.95557,14.72803l-.01123-.09766h-.00488c-.04297.06104-.12646.11523-.2373.11523-.15674,0-.23682-.11035-.23682-.22266,0-.1875.1665-.29004.46631-.28857v-.01562c0-.06445-.01758-.17969-.17627-.17969-.07227,0-.14746.02246-.20215.05762l-.03174-.09277c.06396-.0415.15674-.06885.25439-.06885.2373,0,.29492.16162.29492.31689v.29004c0,.06738.00342.1333.0127.18604h-.12793Zm-.021-.39551c-.15381-.00342-.32812.02393-.32812.17432,0,.09131.06055.13477.13281.13477.10107,0,.16504-.06396.1875-.12988.00488-.01465.00781-.03027.00781-.04492v-.13428Z" style="fill:#fff; stroke-width:0px;"/><path d="m13.27783,14.58398c.0415.02686.11523.05615.18604.05615.10254,0,.15039-.05127.15039-.11572,0-.06738-.04004-.104-.14404-.14258-.13965-.04932-.20508-.12646-.20508-.21924,0-.125.10107-.22754.26758-.22754.07861,0,.14746.02246.19043.04785l-.03516.10254c-.03027-.01904-.08643-.04492-.15869-.04492-.08301,0-.12939.04834-.12939.10596,0,.06396.04639.09277.14697.13135.13477.05127.20361.11865.20361.23389,0,.13623-.10547.23242-.29004.23242-.08496,0-.16309-.021-.21777-.05273l.03516-.10742Z" style="fill:#fff; stroke-width:0px;"/><path d="m14.00928,14.36572c.00342.19092.125.26953.26611.26953.10107,0,.16162-.01758.21484-.04004l.02393.10059c-.0498.02246-.13477.04834-.25781.04834-.23877,0-.38135-.15723-.38135-.39111s.1377-.41797.36377-.41797c.25293,0,.32031.22266.32031.36523,0,.02881-.00342.05127-.00488.06543h-.54492Zm.41357-.10059c.00146-.08984-.03711-.229-.19531-.229-.14258,0-.20508.13135-.21631.229h.41162Z" style="fill:#fff; stroke-width:0px;"/><path d="m15.07227,14.19434c0-.09131-.00195-.16943-.00684-.2417h.12354l.00488.15234h.00635c.03516-.10449.12012-.16992.21484-.16992.01611,0,.02734.00146.04004.00488v.13281c-.01465-.00342-.02881-.00488-.04834-.00488-.09912,0-.16943.0752-.18896.18115-.00293.01904-.00635.0415-.00635.06543v.41357h-.13916v-.53369Z" style="fill:#fff; stroke-width:0px;"/><path d="m15.65771,14.36572c.00342.19092.125.26953.26611.26953.10107,0,.16162-.01758.21484-.04004l.02393.10059c-.0498.02246-.13477.04834-.25781.04834-.23877,0-.38135-.15723-.38135-.39111s.1377-.41797.36377-.41797c.25293,0,.32031.22266.32031.36523,0,.02881-.00342.05127-.00488.06543h-.54492Zm.41357-.10059c.00146-.08984-.03711-.229-.19531-.229-.14258,0-.20508.13135-.21631.229h.41162Z" style="fill:#fff; stroke-width:0px;"/><path d="m16.81055,14.72803l-.01123-.09766h-.00488c-.04346.06104-.12646.11523-.2373.11523-.15674,0-.23682-.11035-.23682-.22266,0-.1875.1665-.29004.46631-.28857v-.01562c0-.06445-.01758-.17969-.17627-.17969-.07227,0-.14746.02246-.20215.05762l-.03174-.09277c.06396-.0415.15674-.06885.25439-.06885.2373,0,.29492.16162.29492.31689v.29004c0,.06738.00342.1333.0127.18604h-.12793Zm-.021-.39551c-.15381-.00342-.32812.02393-.32812.17432,0,.09131.06055.13477.13281.13477.10107,0,.16504-.06396.1875-.12988.00488-.01465.00781-.03027.00781-.04492v-.13428Z" style="fill:#fff; stroke-width:0px;"/><path d="m17.82178,13.59033v.9375c0,.06885.00146.14746.00635.2002h-.12646l-.00635-.13477h-.00342c-.04297.08691-.1377.15234-.26416.15234-.1875,0-.33154-.15869-.33154-.39404-.00195-.25781.15869-.4165.34766-.4165.11865,0,.19873.05615.23389.11865h.00293v-.46338h.14111Zm-.14111.67773c0-.01758-.00146-.0415-.00635-.05908-.02051-.08984-.09766-.16357-.20361-.16357-.14551,0-.23193.12842-.23193.2998,0,.15674.07666.28662.229.28662.09473,0,.18115-.0625.20654-.16797.00488-.01953.00635-.03857.00635-.06104v-.13477Z" style="fill:#fff; stroke-width:0px;"/><path d="m19.0957,14.33398c0,.28662-.19873.41162-.38623.41162-.20996,0-.37158-.15381-.37158-.39893,0-.25977.16992-.41162.38428-.41162.22266,0,.37354.16162.37354.39893Zm-.61523.00781c0,.16992.09766.29834.23535.29834.13477,0,.23535-.12695.23535-.30127,0-.13135-.06543-.29834-.23193-.29834-.16699,0-.23877.15381-.23877.30127Z" style="fill:#fff; stroke-width:0px;"/><path d="m19.9209,14.5166c0,.08008.00195.15039.00684.21143h-.125l-.0083-.12646h-.00293c-.03711.0625-.11865.14404-.25635.14404-.12207,0-.26758-.06738-.26758-.33984v-.45312h.14062v.4292c0,.14746.04492.24707.17334.24707.09424,0,.16016-.06592.18555-.12842.0083-.021.01318-.04639.01318-.07227v-.47559h.14062v.56396Z" style="fill:#fff; stroke-width:0px;"/><path d="m20.15381,14.19434c0-.09131-.00195-.16943-.00684-.2417h.12354l.00488.15234h.00635c.03516-.10449.12012-.16992.21484-.16992.01611,0,.02686.00146.04004.00488v.13281c-.01465-.00342-.02881-.00488-.04834-.00488-.09912,0-.16992.0752-.18896.18115-.00293.01904-.00635.0415-.00635.06543v.41357h-.13916v-.53369Z" style="fill:#fff; stroke-width:0px;"/><path d="m21.0166,14.20557c0-.09912-.00342-.1792-.00684-.25293h.12695l.00635.13281h.00293c.05762-.09424.14893-.15039.27588-.15039.1875,0,.32812.15869.32812.39404,0,.27881-.16943.4165-.35254.4165-.10254,0-.19189-.04492-.23828-.12158h-.00342v.42139h-.13916v-.83984Zm.13916.20703c0,.02051.00342.04004.00635.05762.02588.09766.11084.16504.21143.16504.14893,0,.23584-.12207.23584-.2998,0-.15527-.08203-.28857-.23096-.28857-.09619,0-.18604.06934-.21289.1748-.00488.01758-.00977.03857-.00977.05762v.1333Z" style="fill:#1a936f; stroke-width:0px;"/><path d="m21.92676,14.19434c0-.09131-.00195-.16943-.00684-.2417h.12354l.00488.15234h.00635c.03516-.10449.12012-.16992.21484-.16992.01611,0,.02734.00146.04004.00488v.13281c-.01465-.00342-.02881-.00488-.04834-.00488-.09912,0-.16943.0752-.18896.18115-.00293.01904-.00635.0415-.00635.06543v.41357h-.13916v-.53369Z" style="fill:#1a936f; stroke-width:0px;"/><path d="m22.61279,13.73486c.00146.04785-.03369.08643-.08984.08643-.04932,0-.08496-.03857-.08496-.08643,0-.0498.03711-.08838.08838-.08838.05273,0,.08643.03857.08643.08838Zm-.15674.99316v-.77539h.14062v.77539h-.14062Z" style="fill:#1a936f; stroke-width:0px;"/><path d="m22.88477,13.95264l.15234.43555c.02539.0708.04639.13477.0625.19873h.00488c.01758-.06396.04004-.12793.06543-.19873l.15088-.43555h.14697l-.3042.77539h-.13477l-.29443-.77539h.15039Z" style="fill:#1a936f; stroke-width:0px;"/><path d="m24.02295,14.72803l-.01123-.09766h-.00488c-.04297.06104-.12646.11523-.2373.11523-.15674,0-.23682-.11035-.23682-.22266,0-.1875.1665-.29004.46631-.28857v-.01562c0-.06445-.01758-.17969-.17627-.17969-.07227,0-.14746.02246-.20215.05762l-.03174-.09277c.06396-.0415.15674-.06885.25439-.06885.2373,0,.29492.16162.29492.31689v.29004c0,.06738.00342.1333.0127.18604h-.12793Zm-.021-.39551c-.15381-.00342-.32812.02393-.32812.17432,0,.09131.06055.13477.13281.13477.10107,0,.16504-.06396.1875-.12988.00488-.01465.00781-.03027.00781-.04492v-.13428Z" style="fill:#1a936f; stroke-width:0px;"/><path d="m24.91748,14.69922c-.03711.01904-.11865.04492-.22314.04492-.23389,0-.38574-.15869-.38574-.396,0-.23877.16309-.41162.4165-.41162.08301,0,.15674.021.19531.04004l-.03174.10889c-.03369-.01904-.08691-.03662-.16357-.03662-.17773,0-.27393.13135-.27393.29297,0,.17969.11523.29004.26904.29004.08008,0,.13281-.021.17285-.03857l.02441.10596Z" style="fill:#1a936f; stroke-width:0px;"/><path d="m25.16162,13.95264l.16943.45801c.01758.05127.03711.1123.0498.15869h.00342c.01416-.04639.03027-.10547.04932-.16162l.15381-.45508h.14893l-.21143.55273c-.10059.26611-.16943.40186-.26562.48535-.06885.06104-.13818.08496-.17334.09131l-.03516-.11865c.03516-.01123.08154-.03369.12354-.06885.03857-.03027.08643-.08496.11865-.15674.00635-.01465.01123-.02588.01123-.03369,0-.0083-.00342-.01953-.00977-.03711l-.28662-.71436h.15381Z" style="fill:#1a936f; stroke-width:0px;"/><path d="m26.20312,14.20557c0-.09912-.00342-.1792-.00684-.25293h.12695l.00635.13281h.00293c.05762-.09424.14893-.15039.27588-.15039.1875,0,.32812.15869.32812.39404,0,.27881-.16943.4165-.35254.4165-.10254,0-.19189-.04492-.23828-.12158h-.00342v.42139h-.13916v-.83984Zm.13916.20703c0,.02051.00342.04004.00635.05762.02588.09766.11084.16504.21143.16504.14893,0,.23584-.12207.23584-.2998,0-.15527-.08203-.28857-.23096-.28857-.09619,0-.18604.06934-.21289.1748-.00488.01758-.00977.03857-.00977.05762v.1333Z" style="fill:#1a936f; stroke-width:0px;"/><path d="m27.81494,14.33398c0,.28662-.19873.41162-.38623.41162-.20996,0-.37158-.15381-.37158-.39893,0-.25977.16943-.41162.38428-.41162.22266,0,.37354.16162.37354.39893Zm-.61523.00781c0,.16992.09766.29834.23535.29834.13477,0,.23535-.12695.23535-.30127,0-.13135-.06543-.29834-.23193-.29834-.16699,0-.23877.15381-.23877.30127Z" style="fill:#1a936f; stroke-width:0px;"/><path d="m27.9917,13.59033h.14062v1.1377h-.14062v-1.1377Z" style="fill:#1a936f; stroke-width:0px;"/><path d="m28.52588,13.73486c.00146.04785-.03369.08643-.08984.08643-.04932,0-.08496-.03857-.08496-.08643,0-.0498.03711-.08838.08838-.08838.05273,0,.08643.03857.08643.08838Zm-.15674.99316v-.77539h.14062v.77539h-.14062Z" style="fill:#1a936f; stroke-width:0px;"/><path d="m29.29639,14.69922c-.03711.01904-.11865.04492-.22314.04492-.23389,0-.38574-.15869-.38574-.396,0-.23877.16309-.41162.4165-.41162.08301,0,.15674.021.19531.04004l-.03174.10889c-.03369-.01904-.08691-.03662-.16357-.03662-.17773,0-.27393.13135-.27393.29297,0,.17969.11523.29004.26904.29004.08008,0,.13281-.021.17285-.03857l.02441.10596Z" style="fill:#1a936f; stroke-width:0px;"/><path d="m29.54053,13.95264l.16943.45801c.01758.05127.03711.1123.0498.15869h.00342c.01416-.04639.03027-.10547.04932-.16162l.15381-.45508h.14893l-.21143.55273c-.10059.26611-.16943.40186-.26562.48535-.06885.06104-.13818.08496-.17334.09131l-.03516-.11865c.03516-.01123.08154-.03369.12354-.06885.03857-.03027.08643-.08496.11865-.15674.00635-.01465.01123-.02588.01123-.03369,0-.0083-.00342-.01953-.00977-.03711l-.28662-.71436h.15381Z" style="fill:#1a936f; stroke-width:0px;"/><path d="m30.14648,14.64453c0-.05908.04004-.10059.0957-.10059.05615,0,.09473.0415.09473.10059,0,.05762-.03662.10107-.09619.10107-.05615,0-.09424-.04346-.09424-.10107Z" style="fill:#fff; stroke-width:0px;"/></svg>