<?xml version="1.0" encoding="UTF-8"?><svg id="uuid-bad59e66-5764-429e-a686-80709bbf4ca8" xmlns="http://www.w3.org/2000/svg" width="64" height="38.4" viewBox="0 0 64 38.4"><rect width="64" height="38.4" style="fill:#fff; stroke-width:0px;"/><rect x="3.2" y="25.6" width="16.45714" height="9.6" style="fill:#777; stroke-width:0px;"/><rect x="23.77143" y="25.6" width="16.45714" height="9.6" style="fill:#777; stroke-width:0px;"/><rect x="44.34286" y="25.6" width="16.45714" height="9.6" style="fill:#777; stroke-width:0px;"/><path d="m3.59375,7.24736c.18555.11475.45703.21045.74268.21045.42383,0,.67139-.22461.67139-.54932,0-.30127-.17139-.47314-.60449-.64014-.52393-.18604-.84766-.4585-.84766-.91211,0-.50146.41406-.87402,1.03809-.87402.32812,0,.56641.07617.70898.15771l-.11426.33887c-.10449-.05713-.31885-.15283-.60938-.15283-.43799,0-.60449.2627-.60449.48242,0,.30078.19531.44873.6377.62109.54297.20996.81934.47266.81934.94531,0,.49707-.3667.92676-1.12402.92676-.30908,0-.64746-.09082-.81836-.20557l.10449-.34863h-.00001Z" style="fill:#444; stroke-width:0px;"/><path d="m6.24512,6.67412c.00977.56836.37158.80273.79053.80273.2998,0,.48096-.05273.63818-.11963l.07129.30078c-.14746.06689-.3999.14355-.7666.14355-.70947,0-1.13281-.46826-1.13281-1.16553s.40918-1.24658,1.08057-1.24658c.75195,0,.95215.66406.95215,1.08887,0,.08594-.00977.15283-.01416.1958h-1.61915Zm1.22852-.30078c.00488-.26758-.10938-.68311-.58105-.68311-.42334,0-.60938.39209-.64258.68311,0,0,1.22363,0,1.22363,0Z" style="fill:#444; stroke-width:0px;"/><path d="m8.39697,6.16338c0-.27246-.00488-.50635-.01904-.72119h.36621l.01465.45361h.01904c.10449-.31055.35693-.50635.6377-.50635.04785,0,.08105.00488.11914.01465v.396c-.04297-.00928-.08545-.01416-.14307-.01416-.29492,0-.50439.22461-.56152.53955-.00977.05762-.01904.12451-.01904.1958v1.23242h-.41406v-1.59033h-.00001Z" style="fill:#444; stroke-width:0px;"/><path d="m10.23437,5.44219l.45215,1.29883c.07617.21045.13818.40137.18604.59229h.01416c.05225-.19092.11914-.38184.19531-.59229l.44727-1.29883h.43799l-.9043,2.31152h-.3999l-.87598-2.31152h.44727-.00001Z" style="fill:#444; stroke-width:0px;"/><path d="m12.82861,4.79277c.00488.14307-.1001.25781-.2666.25781-.14746,0-.25244-.11475-.25244-.25781,0-.14844.10986-.2627.26221-.2627.15674,0,.25684.11426.25683.2627Zm-.46631,2.96094v-2.31152h.41895v2.31152h-.41895Z" style="fill:#444; stroke-width:0px;"/><path d="m15.11914,7.66777c-.10986.05713-.35254.13379-.66211.13379-.69482,0-1.14746-.47314-1.14746-1.17969,0-.71191.48584-1.22754,1.23828-1.22754.24707,0,.46631.06201.58057.11963l-.09521.32471c-.1001-.05762-.25684-.10986-.48535-.10986-.52881,0-.81445.3916-.81445.87402,0,.53467.34277.86426.7998.86426.23828,0,.39551-.06201.51416-.11475l.07178.31543h-.00001Z" style="fill:#444; stroke-width:0px;"/><path d="m15.81348,6.67412c.00977.56836.37158.80273.79053.80273.2998,0,.48096-.05273.63818-.11963l.07129.30078c-.14746.06689-.3999.14355-.7666.14355-.70947,0-1.13281-.46826-1.13281-1.16553s.40918-1.24658,1.08057-1.24658c.75195,0,.95215.66406.95215,1.08887,0,.08594-.00977.15283-.01416.1958h-1.61915Zm1.22852-.30078c.00488-.26758-.10938-.68311-.58105-.68311-.42334,0-.60938.39209-.64258.68311,0,0,1.22363,0,1.22363,0Z" style="fill:#444; stroke-width:0px;"/><path d="m17.9082,7.32402c.12354.08105.34277.16699.55225.16699.30469,0,.44727-.15283.44727-.34375,0-.20068-.11865-.31055-.42822-.42529-.41406-.14795-.60938-.37695-.60938-.6543,0-.37256.2998-.67822.79492-.67822.2334,0,.43799.06689.56641.14355l-.10449.30566c-.09082-.05762-.25732-.13379-.47168-.13379-.24707,0-.38525.14307-.38525.31494,0,.19141.13818.27734.43799.3916.3999.15283.60449.35352.60449.69775,0,.40576-.31445.69238-.86182.69238-.25244,0-.48535-.06201-.64746-.15771,0,0,.10498-.31982.10497-.31981Z" style="fill:#444; stroke-width:0px;"/><path d="m21.02637,5.44219l.30469,1.1748c.06641.25781.12842.49658.17139.73535h.01416c.05273-.23389.12891-.48242.20508-.73047l.37598-1.17969h.35205l.35693,1.15576c.08594.27686.15234.52051.20508.75439h.01416c.03809-.23389.1001-.47754.17627-.74951l.32812-1.16064h.41455l-.74268,2.31152h-.38086l-.35254-1.10303c-.08105-.2583-.14746-.4873-.20459-.75977h-.00928c-.05762.27734-.12891.51611-.20996.76416l-.37109,1.09863h-.38086l-.69531-2.31152h.42871v.00002Z" style="fill:#444; stroke-width:0px;"/><path d="m24.54883,6.67412c.00977.56836.37158.80273.79053.80273.2998,0,.48096-.05273.63818-.11963l.07129.30078c-.14746.06689-.3999.14355-.7666.14355-.70947,0-1.13281-.46826-1.13281-1.16553s.40918-1.24658,1.08057-1.24658c.75195,0,.95215.66406.95215,1.08887,0,.08594-.00977.15283-.01416.1958h-1.61915Zm1.22852-.30078c.00488-.26758-.10938-.68311-.58105-.68311-.42334,0-.60938.39209-.64258.68311,0,0,1.22363,0,1.22363,0Z" style="fill:#444; stroke-width:0px;"/><path d="m27.87646,5.44219l.30469,1.1748c.06689.25781.12842.49658.17139.73535h.01416c.05225-.23389.12842-.48242.20459-.73047l.37646-1.17969h.35205l.35742,1.15576c.08545.27686.15234.52051.20459.75439h.01416c.03809-.23389.1001-.47754.17627-.74951l.32861-1.16064h.41406l-.74268,2.31152h-.38086l-.35254-1.10303c-.08057-.2583-.14746-.4873-.20459-.75977h-.00977c-.05664.27734-.12842.51611-.20898.76416l-.37158,1.09863h-.38086l-.69482-2.31152h.42822v.00002Z" style="fill:#444; stroke-width:0px;"/><path d="m33.25098,6.57891c0,.85498-.59033,1.22754-1.14746,1.22754-.62354,0-1.10449-.4585-1.10449-1.18945,0-.77344.50488-1.22754,1.14258-1.22754.66211,0,1.10938.48242,1.10937,1.18945Zm-1.82812.02393c0,.50635.29053.88818.7002.88818.39941,0,.69971-.37744.69971-.89795,0-.3916-.19531-.88818-.69043-.88818s-.70947.4585-.70947.89795h-.00001Z" style="fill:#444; stroke-width:0px;"/><path d="m35.70801,7.12334c0,.23877.00439.44873.01855.63037h-.37109l-.02393-.37744h-.00928c-.10938.18652-.35254.43018-.76172.43018-.36182,0-.79492-.20068-.79492-1.0127v-1.35156h.41895v1.27979c0,.43945.13281.73584.51367.73584.28125,0,.47656-.1958.55273-.38232.02344-.06201.03809-.13867.03809-.21484v-1.41846h.41895v1.68115h0Z" style="fill:#444; stroke-width:0px;"/><path d="m36.40234,4.3626h.41895v3.39111h-.41895v-3.39111Z" style="fill:#444; stroke-width:0px;"/><path d="m39.51562,4.3626v2.79395c0,.20557.00488.43945.01904.59717h-.37598l-.01904-.40137h-.00977c-.12842.2583-.40918.4541-.78516.4541-.55713,0-.98535-.47314-.98535-1.17529-.00488-.76855.47119-1.2417,1.03271-1.2417.35254,0,.59033.16748.69531.35352h.00928v-1.38037h.41896Zm-.41895,2.02051c0-.05273-.00488-.12451-.01904-.17676-.06201-.26758-.29053-.4873-.60449-.4873-.43311,0-.69043.38232-.69043.89307,0,.46826.22852.85498.68115.85498.28076,0,.5376-.18604.61377-.50146.01416-.05713.01904-.11475.01904-.18164v-.40089Z" style="fill:#444; stroke-width:0px;"/><path d="m41.21973,4.3626h.41895v3.39111h-.41895v-3.39111Z" style="fill:#444; stroke-width:0px;"/><path d="m42.81055,4.79277c.00391.14307-.10059.25781-.2666.25781-.14746,0-.25293-.11475-.25293-.25781,0-.14844.10938-.2627.26172-.2627.15723,0,.25781.11426.25781.2627Zm-.4668,2.96094v-2.31152h.41895v2.31152h-.41895Z" style="fill:#444; stroke-width:0px;"/><path d="m43.87109,6.50225h.00977c.05664-.08105.1377-.18115.2041-.2627l.67676-.79736h.50391l-.88965.9502,1.01367,1.36133h-.50879l-.7959-1.10791-.21387.23877v.86914h-.41406v-3.39111h.41406v2.13965h0Z" style="fill:#444; stroke-width:0px;"/><path d="m45.92383,6.67412c.00977.56836.37109.80273.79004.80273.2998,0,.48047-.05273.6377-.11963l.07129.30078c-.14746.06689-.39941.14355-.7666.14355-.70898,0-1.13281-.46826-1.13281-1.16553s.41016-1.24658,1.08105-1.24658c.75195,0,.95215.66406.95215,1.08887,0,.08594-.00977.15283-.01465.1958h-1.61817Zm1.22852-.30078c.00391-.26758-.11035-.68311-.58105-.68311-.42383,0-.60938.39209-.64258.68311,0,0,1.22363,0,1.22363,0Z" style="fill:#444; stroke-width:0px;"/><path d="m49.58887,4.77812v.66406h.59961v.31982h-.59961v1.24658c0,.28662.08105.44922.31348.44922.10938,0,.19043-.01465.24316-.02881l.01855.31494c-.08008.03369-.20898.05762-.37109.05762-.19531,0-.35156-.06201-.45215-.17676-.11914-.12402-.16211-.32959-.16211-.60205v-1.26074h-.35645v-.31982h.35645v-.5542s.41016-.10986.41016-.10986Z" style="fill:#444; stroke-width:0px;"/><path d="m52.71582,6.57891c0,.85498-.58984,1.22754-1.14746,1.22754-.62305,0-1.10449-.4585-1.10449-1.18945,0-.77344.50488-1.22754,1.14258-1.22754.66211,0,1.10938.48242,1.10938,1.18945h-.00001Zm-1.82812.02393c0,.50635.29004.88818.7002.88818.39941,0,.69922-.37744.69922-.89795,0-.3916-.19531-.88818-.68945-.88818-.49609,0-.70996.4585-.70997.89795Z" style="fill:#444; stroke-width:0px;"/><path d="m56.18164,7.12334c0,.23877.00488.44873.01953.63037h-.37109l-.02441-.37744h-.00977c-.10938.18652-.35156.43018-.76172.43018-.36133,0-.79492-.20068-.79492-1.0127v-1.35156h.41895v1.27979c0,.43945.13379.73584.51465.73584.28027,0,.47559-.1958.55176-.38232.02441-.06201.03809-.13867.03809-.21484v-1.41846h.41895v1.68115h-.00002Z" style="fill:#444; stroke-width:0px;"/><path d="m56.81934,7.32402c.12402.08105.34277.16699.55273.16699.30469,0,.44727-.15283.44727-.34375,0-.20068-.11914-.31055-.42871-.42529-.41406-.14795-.60938-.37695-.60938-.6543,0-.37256.30078-.67822.79492-.67822.2334,0,.43848.06689.56738.14355l-.10547.30566c-.08984-.05762-.25684-.13379-.4707-.13379-.24805,0-.38574.14307-.38574.31494,0,.19141.1377.27734.4375.3916.40039.15283.60547.35352.60547.69775,0,.40576-.31445.69238-.8623.69238-.25195,0-.48535-.06201-.64746-.15771,0,0,.10449-.31982.10449-.31981Z" style="fill:#444; stroke-width:0px;"/><path d="m58.99512,6.67412c.00879.56836.37109.80273.79004.80273.2998,0,.48047-.05273.6377-.11963l.07129.30078c-.14746.06689-.39941.14355-.76562.14355-.70996,0-1.13379-.46826-1.13379-1.16553s.40918-1.24658,1.08105-1.24658c.75195,0,.95215.66406.95215,1.08887,0,.08594-.00977.15283-.01465.1958h-1.61817Zm1.22754-.30078c.00488-.26758-.10938-.68311-.58008-.68311-.42383,0-.60938.39209-.64258.68311,0,0,1.22266,0,1.22266,0Z" style="fill:#444; stroke-width:0px;"/><path d="m3.65381,9.99541v.70557h.81592v-.70557h.22021v1.68652h-.22021v-.79053h-.81592v.79053h-.21729v-1.68652h.21729Z" style="fill:#444; stroke-width:0px;"/><path d="m5.17871,11.1165c.00488.29785.19531.42041.41553.42041.15771,0,.25293-.02783.33545-.0625l.0376.15723c-.07764.03516-.21045.0752-.40283.0752-.37305,0-.5957-.24512-.5957-.61035s.21484-.65332.56787-.65332c.39551,0,.50049.34766.50049.5708,0,.04492-.00488.08008-.00732.10254h-.85109Zm.64551-.15771c.00293-.14014-.05713-.35791-.30518-.35791-.22266,0-.32031.20508-.33789.35791h.64307Z" style="fill:#444; stroke-width:0px;"/><path d="m6.30664,10.84844c0-.14258-.00244-.26514-.00977-.37793h.19238l.00781.23779h.00977c.05518-.1626.1875-.26514.33545-.26514.0249,0,.04248.00244.0625.00781v.20752c-.02246-.00488-.04492-.00732-.0752-.00732-.15479,0-.26514.11719-.29541.28271-.00488.02979-.00977.06494-.00977.10254v.64551h-.21777v-.8335h.00001Z" style="fill:#444; stroke-width:0px;"/><path d="m7.2207,11.1165c.00488.29785.19531.42041.41553.42041.15771,0,.25293-.02783.33545-.0625l.0376.15723c-.07764.03516-.21045.0752-.40283.0752-.37305,0-.5957-.24512-.5957-.61035s.21484-.65332.56787-.65332c.39551,0,.50049.34766.50049.5708,0,.04492-.00488.08008-.00732.10254h-.85109Zm.64551-.15771c.00293-.14014-.05713-.35791-.30518-.35791-.22266,0-.32031.20508-.33789.35791h.64307Z" style="fill:#444; stroke-width:0px;"/><path d="m8.95801,10.47051l.26514.71582c.02783.08008.05762.17529.07764.24805h.00488c.02295-.07275.04785-.16553.07764-.25293l.24023-.71094h.23291l-.33008.86377c-.15771.41504-.26562.62793-.41553.7583-.10791.09473-.21533.13232-.27051.14258l-.05518-.18555c.05518-.01758.12793-.05225.19287-.10742.06006-.04736.13525-.13281.18506-.24512.01025-.02246.01758-.04004.01758-.05273s-.00488-.02979-.01465-.05762l-.44824-1.11621h.24024Z" style="fill:#444; stroke-width:0px;"/><path d="m11.125,11.06621c0,.44824-.31055.64307-.60303.64307-.32812,0-.58057-.24023-.58057-.62305,0-.40527.26514-.64307.60059-.64307.34766,0,.58301.25293.58301.62305Zm-.96094.0127c0,.26514.15234.46533.36768.46533.21045,0,.36816-.19775.36816-.47021,0-.20557-.10303-.46582-.36279-.46582-.26074,0-.37305.24023-.37305.4707Z" style="fill:#444; stroke-width:0px;"/><path d="m12.4126,11.35137c0,.12549.00244.23535.00977.33057h-.19482l-.0127-.19775h-.00488c-.05762.09766-.18555.2251-.40039.2251-.19043,0-.41797-.10498-.41797-.53027v-.7085h.22021v.6709c0,.23047.06982.38525.27002.38525.14795,0,.25049-.10254.29053-.2002.01221-.03223.02002-.07227.02002-.1123v-.74365h.22021v.88086h0Z" style="fill:#444; stroke-width:0px;"/><path d="m14.16699,11.63701c-.05762.02979-.18506.06982-.34766.06982-.36523,0-.60303-.24756-.60303-.61816,0-.37256.25537-.64307.65039-.64307.13037,0,.24561.03271.30518.0625l-.0498.17041c-.05273-.03027-.13525-.05762-.25537-.05762-.27783,0-.42773.20508-.42773.45801,0,.28027.18018.45312.42041.45312.125,0,.20752-.03271.27002-.06055,0,0,.0376.16553.03759.16554Z" style="fill:#444; stroke-width:0px;"/><path d="m15.09277,11.68193l-.01758-.15283h-.00781c-.06738.09521-.19727.18018-.37012.18018-.24512,0-.37061-.17236-.37061-.34766,0-.29297.26025-.45312.72852-.45068v-.0249c0-.1001-.02783-.28027-.27539-.28027-.11279,0-.22998.03516-.31543.09033l-.0498-.14551c.1001-.06494.24512-.10742.39795-.10742.37012,0,.46045.25293.46045.49561v.45264c0,.10547.00488.20801.02002.29053h-.2002v-.00002Zm-.03271-.61816c-.24023-.00488-.51318.0376-.51318.27295,0,.14258.09521.20996.20801.20996.15771,0,.25781-.1001.29248-.20264.00781-.02246.0127-.04736.0127-.06982,0,0,0-.21045,0-.21045Z" style="fill:#444; stroke-width:0px;"/><path d="m15.625,10.79863c0-.125-.00244-.22754-.00977-.32812h.19482l.0127.2002h.00488c.06006-.11475.2002-.22754.40039-.22754.16797,0,.42822.1001.42822.51562v.72314h-.22021v-.69824c0-.19531-.07275-.35791-.28027-.35791-.14551,0-.25781.10254-.29541.22559-.01025.02734-.01514.06494-.01514.10254v.72803h-.22021s0-.8833,0-.88331Z" style="fill:#444; stroke-width:0px;"/><path d="m18.21045,11.68193l-.01758-.15283h-.00781c-.06738.09521-.19775.18018-.37012.18018-.24512,0-.37061-.17236-.37061-.34766,0-.29297.26025-.45312.72852-.45068v-.0249c0-.1001-.02783-.28027-.27539-.28027-.11279,0-.23047.03516-.31543.09033l-.0498-.14551c.1001-.06494.24512-.10742.39795-.10742.37012,0,.46045.25293.46045.49561v.45264c0,.10547.00488.20801.02002.29053h-.2002v-.00002Zm-.03271-.61816c-.24023-.00488-.51318.0376-.51318.27295,0,.14258.09521.20996.20801.20996.15771,0,.25781-.1001.29248-.20264.00781-.02246.0127-.04736.0127-.06982,0,0,0-.21045,0-.21045Z" style="fill:#444; stroke-width:0px;"/><path d="m18.71289,11.45684c.06494.04248.18018.0874.29004.0874.16016,0,.23535-.08008.23535-.18018,0-.10498-.0625-.1626-.2251-.22266-.21777-.07764-.32031-.19775-.32031-.34277,0-.19531.15771-.35547.41748-.35547.12305,0,.23047.03516.29785.0752l-.05469.16016c-.04785-.03027-.13525-.07031-.24805-.07031-.12988,0-.20264.0752-.20264.16553,0,.1001.07275.14502.23047.20508.20996.08008.31787.18506.31787.36523,0,.21289-.16553.36279-.45312.36279-.13281,0-.25537-.03223-.34033-.08252,0,0,.05518-.16748.05518-.16748Z" style="fill:#444; stroke-width:0px;"/><path d="m19.70117,11.45684c.06494.04248.18018.0874.29004.0874.16016,0,.23535-.08008.23535-.18018,0-.10498-.0625-.1626-.2251-.22266-.21777-.07764-.32031-.19775-.32031-.34277,0-.19531.15771-.35547.41748-.35547.12305,0,.23047.03516.29785.0752l-.05469.16016c-.04785-.03027-.13525-.07031-.24805-.07031-.12988,0-.20264.0752-.20264.16553,0,.1001.07275.14502.23047.20508.20996.08008.31787.18506.31787.36523,0,.21289-.16553.36279-.45312.36279-.13281,0-.25537-.03223-.34033-.08252,0,0,.05518-.16748.05518-.16748Z" style="fill:#444; stroke-width:0px;"/><path d="m20.8418,11.1165c.00488.29785.19531.42041.41553.42041.15771,0,.25293-.02783.33545-.0625l.0376.15723c-.07764.03516-.21045.0752-.40283.0752-.37305,0-.5957-.24512-.5957-.61035s.21484-.65332.56787-.65332c.39551,0,.50049.34766.50049.5708,0,.04492-.00488.08008-.00732.10254h-.85109Zm.64551-.15771c.00293-.14014-.05713-.35791-.30518-.35791-.22266,0-.32031.20508-.33789.35791h.64307Z" style="fill:#444; stroke-width:0px;"/><path d="m21.93994,11.45684c.06494.04248.18018.0874.29004.0874.16016,0,.23535-.08008.23535-.18018,0-.10498-.0625-.1626-.2251-.22266-.21777-.07764-.32031-.19775-.32031-.34277,0-.19531.15723-.35547.41797-.35547.12256,0,.22998.03516.29736.0752l-.05469.16016c-.04785-.03027-.13525-.07031-.24805-.07031-.12988,0-.20264.0752-.20264.16553,0,.1001.07275.14502.23047.20508.20996.08008.31738.18506.31738.36523,0,.21289-.16504.36279-.45264.36279-.13281,0-.25537-.03223-.34033-.08252l.05518-.16748h.00001Z" style="fill:#444; stroke-width:0px;"/><path d="m22.92822,11.45684c.06494.04248.18018.0874.29004.0874.16016,0,.23535-.08008.23535-.18018,0-.10498-.0625-.1626-.2251-.22266-.21777-.07764-.32031-.19775-.32031-.34277,0-.19531.15723-.35547.41797-.35547.12256,0,.22998.03516.29736.0752l-.05469.16016c-.04785-.03027-.13525-.07031-.24805-.07031-.12988,0-.20264.0752-.20264.16553,0,.1001.07275.14502.23047.20508.20996.08008.31738.18506.31738.36523,0,.21289-.16504.36279-.45264.36279-.13281,0-.25537-.03223-.34033-.08252l.05518-.16748h.00001Z" style="fill:#444; stroke-width:0px;"/><path d="m25.14648,11.68193l-.01758-.15283h-.00781c-.06738.09521-.19727.18018-.37012.18018-.24512,0-.37061-.17236-.37061-.34766,0-.29297.26025-.45312.72852-.45068v-.0249c0-.1001-.02783-.28027-.27539-.28027-.11279,0-.22998.03516-.31543.09033l-.0498-.14551c.1001-.06494.24512-.10742.39795-.10742.37012,0,.46045.25293.46045.49561v.45264c0,.10547.00488.20801.02002.29053h-.2002v-.00002Zm-.03271-.61816c-.24023-.00488-.51318.0376-.51318.27295,0,.14258.09521.20996.20801.20996.15771,0,.25781-.1001.29248-.20264.00781-.02246.0127-.04736.0127-.06982,0,0,0-.21045,0-.21045Z" style="fill:#444; stroke-width:0px;"/><path d="m25.67871,10.79863c0-.125-.00244-.22754-.00977-.32812h.19482l.0127.2002h.00488c.06006-.11475.2002-.22754.40039-.22754.16797,0,.42822.1001.42822.51562v.72314h-.22021v-.69824c0-.19531-.07275-.35791-.28027-.35791-.14551,0-.25781.10254-.29541.22559-.01025.02734-.01514.06494-.01514.10254v.72803h-.22021s0-.8833,0-.88331Z" style="fill:#444; stroke-width:0px;"/><path d="m28.10986,9.90508v1.46387c0,.10791.00244.23047.01025.31299h-.19775l-.01025-.21045h-.00488c-.06738.13525-.21484.23779-.4126.23779-.29297,0-.51807-.24756-.51807-.61523-.00244-.40283.24756-.65088.54297-.65088.18506,0,.31006.08789.36523.18506h.00488v-.72314h.22022Zm-.22021,1.05859c0-.02734-.00244-.06494-.00977-.09277-.03271-.13965-.15283-.25488-.31787-.25488-.22754,0-.36279.2002-.36279.46777,0,.24512.12012.44824.35791.44824.14746,0,.28271-.09766.32275-.26318.00732-.02979.00977-.06006.00977-.09473,0,0,0-.21045,0-.21045Z" style="fill:#444; stroke-width:0px;"/><path d="m29.86426,11.63701c-.05762.02979-.18506.06982-.34766.06982-.36523,0-.60303-.24756-.60303-.61816,0-.37256.25537-.64307.65039-.64307.13037,0,.24561.03271.30518.0625l-.0498.17041c-.05273-.03027-.13525-.05762-.25537-.05762-.27783,0-.42773.20508-.42773.45801,0,.28027.18018.45312.42041.45312.125,0,.20752-.03271.27002-.06055,0,0,.0376.16553.03759.16554Z" style="fill:#444; stroke-width:0px;"/><path d="m31.13281,11.35137c0,.12549.00244.23535.00977.33057h-.19531l-.01221-.19775h-.00488c-.05762.09766-.18555.2251-.40039.2251-.19043,0-.41797-.10498-.41797-.53027v-.7085h.22021v.6709c0,.23047.06982.38525.27002.38525.14795,0,.25049-.10254.29053-.2002.01221-.03223.02002-.07227.02002-.1123v-.74365h.22021v.88086h0Z" style="fill:#444; stroke-width:0px;"/><path d="m31.46484,11.45684c.06494.04248.18018.0874.29004.0874.16016,0,.23535-.08008.23535-.18018,0-.10498-.0625-.1626-.2251-.22266-.21777-.07764-.32031-.19775-.32031-.34277,0-.19531.15771-.35547.41748-.35547.12305,0,.23047.03516.29785.0752l-.05469.16016c-.04785-.03027-.13525-.07031-.24805-.07031-.12988,0-.20264.0752-.20264.16553,0,.1001.07275.14502.23047.20508.20996.08008.31787.18506.31787.36523,0,.21289-.16553.36279-.45312.36279-.13281,0-.25537-.03223-.34033-.08252,0,0,.05518-.16748.05518-.16748Z" style="fill:#444; stroke-width:0px;"/><path d="m32.74805,10.12285v.34766h.31543v.16797h-.31543v.65332c0,.1499.04297.23486.16553.23486.05713,0,.1001-.00732.12744-.01514l.00977.16553c-.04248.01758-.10986.02979-.19482.02979-.10254,0-.18506-.03223-.23779-.09229-.0625-.06543-.08496-.17285-.08496-.31543v-.66064h-.18799v-.16797h.18799v-.29004l.21484-.05762h-.00001Z" style="fill:#444; stroke-width:0px;"/><path d="m34.39014,11.06621c0,.44824-.31055.64307-.60303.64307-.32812,0-.58057-.24023-.58057-.62305,0-.40527.26514-.64307.60059-.64307.34766,0,.58301.25293.58301.62305Zm-.96094.0127c0,.26514.15283.46533.36768.46533.21045,0,.36816-.19775.36816-.47021,0-.20557-.10254-.46582-.36328-.46582-.25977,0-.37256.24023-.37256.4707Z" style="fill:#444; stroke-width:0px;"/><path d="m34.66406,10.79863c0-.125-.00244-.22754-.00977-.32812h.19238l.01025.19531h.00732c.06738-.11523.18018-.22266.38037-.22266.16504,0,.29053.1001.34277.24268h.00537c.03711-.06738.08496-.12012.13477-.15771.07275-.05469.15283-.08496.26807-.08496.16016,0,.39795.10498.39795.52539v.71338h-.21533v-.68555c0-.23291-.08545-.37305-.2627-.37305-.12549,0-.22314.09277-.26025.2002-.01025.03027-.01758.07031-.01758.11035v.74805h-.21533v-.72559c0-.19287-.08496-.33301-.25293-.33301-.13721,0-.23779.11035-.27246.22021-.0127.03271-.01758.07031-.01758.10742v.73096h-.21533s0-.8833,0-.8833Z" style="fill:#444; stroke-width:0px;"/><path d="m36.99072,10.13066c.00244.07471-.05225.13477-.14014.13477-.07715,0-.13232-.06006-.13232-.13477,0-.07764.05762-.1377.1377-.1377.08252,0,.13477.06006.13476.1377Zm-.24512,1.55127v-1.21143h.22021v1.21143h-.22021Z" style="fill:#444; stroke-width:0px;"/><path d="m37.19189,11.55449l.54834-.71338c.05225-.06494.10254-.12256.15723-.1875v-.00537h-.65527v-.17773h.92334l-.00244.1377-.54053.70312c-.05029.06787-.1001.12793-.15527.19043v.00488h.70801v.17529h-.9834v-.12744h-.00001Z" style="fill:#444; stroke-width:0px;"/><path d="m38.50342,11.1165c.00537.29785.19531.42041.41553.42041.15771,0,.25293-.02783.33545-.0625l.0376.15723c-.07764.03516-.21045.0752-.40332.0752-.37256,0-.59521-.24512-.59521-.61035s.21533-.65332.56787-.65332c.39551,0,.50049.34766.50049.5708,0,.04492-.00488.08008-.00732.10254h-.85109Zm.646-.15771c.00244-.14014-.05762-.35791-.30566-.35791-.22266,0-.32031.20508-.33789.35791h.64355Z" style="fill:#444; stroke-width:0px;"/><path d="m40.42578,10.12285v.34766h.31543v.16797h-.31543v.65332c0,.1499.04297.23486.16553.23486.05713,0,.1001-.00732.12744-.01514l.00977.16553c-.04248.01758-.10986.02979-.19482.02979-.10254,0-.18506-.03223-.23779-.09229-.0625-.06543-.08496-.17285-.08496-.31543v-.66064h-.18799v-.16797h.18799v-.29004l.21484-.05762h-.00001Z" style="fill:#444; stroke-width:0px;"/><path d="m40.98682,9.90508h.22021v.75586h.00488c.03516-.0625.08984-.11768.1582-.15527.06445-.0376.14258-.0625.22461-.0625.16309,0,.42285.1001.42285.51807v.7207h-.21973v-.6958c0-.19531-.07324-.36035-.28027-.36035-.14258,0-.25586.1001-.2959.22021-.01172.03027-.01465.0625-.01465.10498v.73096h-.22021s0-1.77686,0-1.77686Z" style="fill:#444; stroke-width:0px;"/><path d="m42.49512,11.1165c.00488.29785.19434.42041.41504.42041.15723,0,.25293-.02783.33496-.0625l.03809.15723c-.07812.03516-.20996.0752-.40332.0752-.37305,0-.5957-.24512-.5957-.61035s.21582-.65332.56836-.65332c.39551,0,.50098.34766.50098.5708,0,.04492-.00586.08008-.00781.10254h-.8506Zm.64551-.15771c.00195-.14014-.05762-.35791-.30566-.35791-.22266,0-.32031.20508-.33789.35791h.64355Z" style="fill:#444; stroke-width:0px;"/><path d="m44.12109,11.45684c.06543.04248.18066.0874.29102.0874.16016,0,.23438-.08008.23438-.18018,0-.10498-.0625-.1626-.22461-.22266-.21777-.07764-.32031-.19775-.32031-.34277,0-.19531.15723-.35547.41797-.35547.12207,0,.23047.03516.29785.0752l-.05566.16016c-.04688-.03027-.13477-.07031-.24707-.07031-.13086,0-.20312.0752-.20312.16553,0,.1001.07227.14502.23047.20508.20996.08008.31738.18506.31738.36523,0,.21289-.16504.36279-.45312.36279-.13184,0-.25488-.03223-.33984-.08252l.05469-.16748h-.00003Z" style="fill:#444; stroke-width:0px;"/><path d="m45.2627,11.1165c.00488.29785.19434.42041.41504.42041.15723,0,.25293-.02783.33496-.0625l.03809.15723c-.07812.03516-.20996.0752-.40332.0752-.37305,0-.5957-.24512-.5957-.61035s.21582-.65332.56836-.65332c.39551,0,.50098.34766.50098.5708,0,.04492-.00586.08008-.00781.10254h-.8506Zm.64551-.15771c.00195-.14014-.05762-.35791-.30566-.35791-.22266,0-.32031.20508-.33789.35791h.64355Z" style="fill:#444; stroke-width:0px;"/><path d="m46.38965,10.84844c0-.14258-.00293-.26514-.00977-.37793h.19238l.00781.23779h.00977c.05469-.1626.1875-.26514.33496-.26514.02539,0,.04297.00244.06348.00781v.20752c-.02344-.00488-.0459-.00732-.0752-.00732-.15527,0-.26562.11719-.2959.28271-.00488.02979-.00977.06494-.00977.10254v.64551h-.21777v-.8335h0Z" style="fill:#444; stroke-width:0px;"/><path d="m47.35352,10.47051l.23828.68066c.04004.11035.07227.21045.09766.31055h.00684c.02734-.1001.0625-.2002.10254-.31055l.23535-.68066h.23047l-.47559,1.21143h-.20996l-.46094-1.21143h.23535Z" style="fill:#444; stroke-width:0px;"/><path d="m48.71387,10.13066c.00293.07471-.05273.13477-.13965.13477-.07812,0-.13281-.06006-.13281-.13477,0-.07764.05762-.1377.1377-.1377.08203,0,.13477.06006.13477.1377h-.00001Zm-.24512,1.55127v-1.21143h.2207v1.21143h-.2207Z" style="fill:#444; stroke-width:0px;"/><path d="m49.91602,11.63701c-.05762.02979-.18555.06982-.34766.06982-.36523,0-.60352-.24756-.60352-.61816,0-.37256.25586-.64307.65137-.64307.12988,0,.24512.03271.30469.0625l-.0498.17041c-.05273-.03027-.13477-.05762-.25488-.05762-.27832,0-.42871.20508-.42871.45801,0,.28027.18066.45312.4209.45312.125,0,.20801-.03271.27051-.06055l.03711.16553h-.00001Z" style="fill:#444; stroke-width:0px;"/><path d="m50.27832,11.1165c.00488.29785.19434.42041.41504.42041.15723,0,.25293-.02783.33496-.0625l.03809.15723c-.07812.03516-.20996.0752-.40332.0752-.37305,0-.5957-.24512-.5957-.61035s.21582-.65332.56836-.65332c.39551,0,.50098.34766.50098.5708,0,.04492-.00586.08008-.00781.10254h-.8506Zm.64551-.15771c.00195-.14014-.05762-.35791-.30566-.35791-.22266,0-.32031.20508-.33789.35791h.64355Z" style="fill:#444; stroke-width:0px;"/><path d="m51.375,11.45684c.06543.04248.18066.0874.29102.0874.16016,0,.23438-.08008.23438-.18018,0-.10498-.0625-.1626-.22461-.22266-.21777-.07764-.32031-.19775-.32031-.34277,0-.19531.15723-.35547.41797-.35547.12207,0,.23047.03516.29785.0752l-.05566.16016c-.04688-.03027-.13477-.07031-.24707-.07031-.13086,0-.20312.0752-.20312.16553,0,.1001.07227.14502.23047.20508.20996.08008.31738.18506.31738.36523,0,.21289-.16504.36279-.45312.36279-.13184,0-.25488-.03223-.33984-.08252l.05469-.16748h-.00003Z" style="fill:#444; stroke-width:0px;"/><path d="m53.18848,10.12285v.34766h.31543v.16797h-.31543v.65332c0,.1499.04199.23486.16504.23486.05762,0,.09961-.00732.12695-.01514l.01074.16553c-.04297.01758-.11035.02979-.19531.02979-.10254,0-.18555-.03223-.23828-.09229-.0625-.06543-.08496-.17285-.08496-.31543v-.66064h-.1875v-.16797h.1875v-.29004s.21582-.05762.21582-.05762Z" style="fill:#444; stroke-width:0px;"/><path d="m53.74902,9.90508h.2207v.75586h.00488c.03516-.0625.08984-.11768.15723-.15527.06543-.0376.14258-.0625.22559-.0625.16211,0,.42285.1001.42285.51807v.7207h-.2207v-.6958c0-.19531-.07227-.36035-.28027-.36035-.14258,0-.25488.1001-.29492.22021-.0127.03027-.01465.0625-.01465.10498v.73096h-.2207v-1.77686h-.00001Z" style="fill:#444; stroke-width:0px;"/><path d="m55.80469,11.68193l-.01758-.15283h-.00781c-.06738.09521-.19727.18018-.37012.18018-.24512,0-.37012-.17236-.37012-.34766,0-.29297.25977-.45312.72754-.45068v-.0249c0-.1001-.02734-.28027-.27441-.28027-.11328,0-.23047.03516-.31543.09033l-.05078-.14551c.10059-.06494.24512-.10742.39844-.10742.37012,0,.45996.25293.45996.49561v.45264c0,.10547.00488.20801.02051.29053h-.2002v-.00002Zm-.0332-.61816c-.24023-.00488-.5127.0376-.5127.27295,0,.14258.0957.20996.20801.20996.15723,0,.25781-.1001.29297-.20264.00684-.02246.01172-.04736.01172-.06982v-.21045Z" style="fill:#444; stroke-width:0px;"/><path d="m56.59277,10.12285v.34766h.31543v.16797h-.31543v.65332c0,.1499.04199.23486.16504.23486.05762,0,.09961-.00732.12695-.01514l.01074.16553c-.04297.01758-.11035.02979-.19531.02979-.10254,0-.18555-.03223-.23828-.09229-.0625-.06543-.08496-.17285-.08496-.31543v-.66064h-.1875v-.16797h.1875v-.29004s.21582-.05762.21582-.05762Z" style="fill:#444; stroke-width:0px;"/><path d="m3.5166,13.4666l.16016.61523c.03467.13525.06738.26025.08984.38574h.00732c.02783-.12305.06787-.25293.10791-.3833l.19775-.61768h.18506l.1875.60547c.04492.14502.08008.27246.10791.39551h.00732c.02002-.12305.05273-.25049.09277-.39307l.17236-.60791h.21777l-.39014,1.21094h-.2002l-.18555-.57812c-.04248-.13525-.07715-.25537-.10742-.39795h-.00488c-.03027.14502-.06787.27051-.11035.40039l-.19531.57568h-.2002l-.36523-1.21094h.22561Z" style="fill:#444; stroke-width:0px;"/><path d="m5.36328,14.11211c.00488.29785.19531.42041.41553.42041.15771,0,.25293-.02783.33545-.0625l.0376.15771c-.07764.03467-.21045.07471-.40283.07471-.37305,0-.5957-.24512-.5957-.61035,0-.36572.21484-.65332.56787-.65332.39551,0,.50049.34814.50049.5708,0,.04492-.00488.08008-.00732.10254h-.85109Zm.64551-.15771c.00293-.14014-.05713-.35791-.30518-.35791-.22266,0-.32031.20508-.33789.35791h.64307Z" style="fill:#444; stroke-width:0px;"/><path d="m6.65381,12.96318l-.04248.60059h-.13525l-.04004-.60059h.21777Z" style="fill:#444; stroke-width:0px;"/><path d="m7.98633,12.90068v1.46387c0,.10791.00293.23047.01025.31299h-.19775l-.00977-.20996h-.00537c-.06738.13477-.21533.2373-.4126.2373-.29297,0-.51807-.24756-.51807-.61523-.00244-.40332.24756-.65088.54297-.65088.18506,0,.31006.0874.36523.18506h.00488v-.72314h.22023Zm-.22021,1.05859c0-.02734-.00244-.06494-.00977-.09229-.03271-.14062-.15283-.25537-.31787-.25537-.22754,0-.36279.2002-.36279.46777,0,.24512.12012.44775.35791.44775.14746,0,.28271-.09717.32275-.2627.00732-.02979.00977-.06006.00977-.09473v-.21045.00002Z" style="fill:#444; stroke-width:0px;"/><path d="m8.87744,12.90068h.22021v1.77686h-.22021v-1.77686Z" style="fill:#444; stroke-width:0px;"/><path d="m9.71143,13.12578c.00244.0752-.05225.13525-.14014.13525-.07715,0-.13232-.06006-.13232-.13525,0-.07715.05762-.13721.1377-.13721.08252,0,.13477.06006.13477.13721h-.00001Zm-.24512,1.55176v-1.21094h.22021v1.21094h-.22021Z" style="fill:#444; stroke-width:0px;"/><path d="m10.26807,14.02178h.00488c.03027-.04248.07275-.09521.10791-.1377l.35498-.41748h.26562l-.46826.49756.5332.71338h-.26758l-.41797-.58057-.11279.125v.45557h-.21777v-1.77686h.21777v1.12109h0Z" style="fill:#444; stroke-width:0px;"/><path d="m11.34326,14.11211c.00537.29785.19531.42041.41553.42041.15771,0,.25293-.02783.33545-.0625l.0376.15771c-.07764.03467-.21045.07471-.40332.07471-.37256,0-.59521-.24512-.59521-.61035,0-.36572.21533-.65332.56787-.65332.39551,0,.50049.34814.50049.5708,0,.04492-.00488.08008-.00732.10254h-.85109Zm.646-.15771c.00244-.14014-.05762-.35791-.30566-.35791-.22266,0-.32031.20508-.33789.35791h.64355Z" style="fill:#444; stroke-width:0px;"/><path d="m13.26562,13.11846v.34814h.31543v.16748h-.31543v.65283c0,.15039.04297.23535.16553.23535.05713,0,.1001-.00732.12744-.01465l.00977.16504c-.04248.01758-.10986.02979-.19482.02979-.10254,0-.18506-.03223-.23779-.09229-.0625-.06543-.08496-.17285-.08496-.31543v-.66064h-.18799v-.16748h.18799v-.29053l.21484-.05762h-.00001Z" style="fill:#444; stroke-width:0px;"/><path d="m14.90771,14.06182c0,.44824-.31055.64307-.60303.64307-.32812,0-.58057-.24023-.58057-.62305,0-.40527.26514-.64307.60059-.64307.34766,0,.58301.25293.58301.62305Zm-.96094.0127c0,.26514.15283.46533.36768.46533.21045,0,.36816-.19775.36816-.47021,0-.20557-.10254-.46582-.36328-.46582-.25977,0-.37256.24023-.37256.4707Z" style="fill:#444; stroke-width:0px;"/><path d="m16.72461,14.34746c0,.125.00244.23486.00977.33008h-.19531l-.01221-.19775h-.00488c-.05762.09766-.18555.2251-.40039.2251-.19043,0-.41797-.10498-.41797-.53027v-.70801h.22021v.67041c0,.22998.06982.38525.27002.38525.14795,0,.25049-.10254.29053-.2002.01221-.03223.02002-.07227.02002-.1123v-.74316h.22021v.88086h0Z" style="fill:#444; stroke-width:0px;"/><path d="m17.05664,14.45244c.06494.04248.18018.0874.29004.0874.16016,0,.23535-.08008.23535-.18018,0-.10498-.0625-.1626-.2251-.22266-.21777-.07764-.32031-.19775-.32031-.34277,0-.19531.15771-.35547.41748-.35547.12305,0,.23047.03516.29785.0752l-.05469.16016c-.04785-.03027-.13525-.07031-.24805-.07031-.12988,0-.20264.0752-.20264.16553,0,.1001.07275.14502.23047.20508.20996.08008.31787.18506.31787.36523,0,.21289-.16553.36279-.45312.36279-.13281,0-.25537-.03223-.34033-.08252,0,0,.05518-.16748.05518-.16748Z" style="fill:#444; stroke-width:0px;"/><path d="m18.19727,14.11211c.00488.29785.19531.42041.41553.42041.15771,0,.25293-.02783.33545-.0625l.0376.15771c-.07764.03467-.21045.07471-.40283.07471-.37305,0-.5957-.24512-.5957-.61035,0-.36572.21484-.65332.56787-.65332.39551,0,.50049.34814.50049.5708,0,.04492-.00488.08008-.00732.10254h-.85109Zm.64551-.15771c.00293-.14014-.05713-.35791-.30518-.35791-.22266,0-.32031.20508-.33789.35791h.64307Z" style="fill:#444; stroke-width:0px;"/><path d="m20.95068,14.06182c0,.44824-.31055.64307-.60303.64307-.32812,0-.58057-.24023-.58057-.62305,0-.40527.26514-.64307.60059-.64307.34766,0,.58301.25293.58301.62305Zm-.96094.0127c0,.26514.15283.46533.36768.46533.21045,0,.36816-.19775.36816-.47021,0-.20557-.10254-.46582-.36328-.46582-.25977,0-.37256.24023-.37256.4707Z" style="fill:#444; stroke-width:0px;"/><path d="m21.22461,13.79424c0-.125-.00244-.22803-.00977-.32764h.19482l.0127.2002h.00488c.06006-.11523.2002-.22803.40039-.22803.16797,0,.42822.1001.42822.51562v.72314h-.22021v-.69824c0-.19531-.07275-.35791-.28027-.35791-.14551,0-.25781.10254-.29541.2251-.01025.02783-.01514.06543-.01514.10303v.72803h-.22021s0-.8833,0-.8833Z" style="fill:#444; stroke-width:0px;"/><path d="m23.4043,13.11846v.34814h.31543v.16748h-.31543v.65283c0,.15039.04297.23535.16553.23535.05713,0,.1001-.00732.12744-.01465l.00977.16504c-.04248.01758-.10986.02979-.19482.02979-.10254,0-.18506-.03223-.23779-.09229-.0625-.06543-.08496-.17285-.08496-.31543v-.66064h-.18799v-.16748h.18799v-.29053l.21484-.05762h0Z" style="fill:#444; stroke-width:0px;"/><path d="m23.96533,12.90068h.22021v.75586h.00488c.03516-.0625.09033-.11768.15771-.15527.06494-.0376.14258-.0625.2251-.0625.16309,0,.42334.1001.42334.51807v.7207h-.22021v-.6958c0-.19482-.07275-.36035-.28027-.36035-.14258,0-.25537.1001-.29541.22021-.0127.03027-.01514.0625-.01514.10547v.73047h-.22021v-1.77686Z" style="fill:#444; stroke-width:0px;"/><path d="m25.5957,13.12578c.00293.0752-.05225.13525-.14014.13525-.07764,0-.13232-.06006-.13232-.13525,0-.07715.05762-.13721.1377-.13721.08252,0,.13477.06006.13476.13721Zm-.24512,1.55176v-1.21094h.22021v1.21094h-.22021Z" style="fill:#444; stroke-width:0px;"/><path d="m25.90479,14.45244c.06494.04248.18018.0874.29004.0874.16016,0,.23535-.08008.23535-.18018,0-.10498-.0625-.1626-.2251-.22266-.21777-.07764-.32031-.19775-.32031-.34277,0-.19531.15723-.35547.41797-.35547.12256,0,.22998.03516.29736.0752l-.05469.16016c-.04785-.03027-.13525-.07031-.24805-.07031-.12988,0-.20264.0752-.20264.16553,0,.1001.07275.14502.23047.20508.20996.08008.31738.18506.31738.36523,0,.21289-.16504.36279-.45264.36279-.13281,0-.25537-.03223-.34033-.08252l.05518-.16748h.00001Z" style="fill:#444; stroke-width:0px;"/><path d="m27.54004,13.4666l.16016.61523c.03467.13525.06738.26025.08984.38574h.00732c.02783-.12305.06787-.25293.10791-.3833l.19775-.61768h.18506l.1875.60547c.04492.14502.08008.27246.10791.39551h.00732c.02002-.12305.05273-.25049.09277-.39307l.17236-.60791h.21777l-.39014,1.21094h-.2002l-.18555-.57812c-.04248-.13525-.07715-.25537-.10742-.39795h-.00488c-.03027.14502-.06787.27051-.11035.40039l-.19531.57568h-.2002l-.36523-1.21094h.22561Z" style="fill:#444; stroke-width:0px;"/><path d="m29.38672,14.11211c.00488.29785.19531.42041.41553.42041.15771,0,.25293-.02783.33545-.0625l.0376.15771c-.07764.03467-.21045.07471-.40283.07471-.37305,0-.5957-.24512-.5957-.61035,0-.36572.21484-.65332.56787-.65332.39551,0,.50049.34814.50049.5708,0,.04492-.00488.08008-.00732.10254h-.85109Zm.64551-.15771c.00293-.14014-.05713-.35791-.30518-.35791-.22266,0-.32031.20508-.33789.35791h.64307Z" style="fill:#444; stroke-width:0px;"/><path d="m30.50488,14.67754c.00488-.08252.00977-.20508.00977-.31299v-1.46387h.21777v.76074h.00488c.07764-.13525.21777-.22266.41309-.22266.30029,0,.5127.25049.51025.61816,0,.43311-.27246.64795-.54297.64795-.17529,0-.31494-.06738-.40527-.22754h-.00732l-.01025.2002s-.18994,0-.18995,0Zm.22754-.48535c0,.02734.00488.05469.00977.08008.04297.15234.17041.25781.33057.25781.22998,0,.36768-.18799.36768-.46582,0-.24268-.125-.4502-.36035-.4502-.1499,0-.29004.10254-.33496.27002-.00537.02539-.0127.05518-.0127.09033v.21777h0Z" style="fill:#444; stroke-width:0px;"/><path d="m31.90527,14.45244c.06494.04248.18018.0874.29004.0874.16016,0,.23535-.08008.23535-.18018,0-.10498-.0625-.1626-.2251-.22266-.21777-.07764-.32031-.19775-.32031-.34277,0-.19531.15771-.35547.41748-.35547.12305,0,.23047.03516.29785.0752l-.05469.16016c-.04785-.03027-.13525-.07031-.24805-.07031-.12988,0-.20264.0752-.20264.16553,0,.1001.07275.14502.23047.20508.20996.08008.31787.18506.31787.36523,0,.21289-.16553.36279-.45312.36279-.13281,0-.25537-.03223-.34033-.08252,0,0,.05518-.16748.05519-.16748Z" style="fill:#444; stroke-width:0px;"/><path d="m33.16846,13.12578c.00244.0752-.05225.13525-.14014.13525-.07715,0-.13232-.06006-.13232-.13525,0-.07715.05762-.13721.1377-.13721.08252,0,.13477.06006.13476.13721Zm-.24512,1.55176v-1.21094h.22021v1.21094h-.22021Z" style="fill:#444; stroke-width:0px;"/><path d="m33.77246,13.11846v.34814h.31543v.16748h-.31543v.65283c0,.15039.04297.23535.16553.23535.05713,0,.1001-.00732.12744-.01465l.00977.16504c-.04248.01758-.10986.02979-.19482.02979-.10254,0-.18506-.03223-.23779-.09229-.0625-.06543-.08496-.17285-.08496-.31543v-.66064h-.18799v-.16748h.18799v-.29053l.21484-.05762h-.00001Z" style="fill:#444; stroke-width:0px;"/><path d="m34.44141,14.11211c.00488.29785.19531.42041.41553.42041.15771,0,.25293-.02783.33545-.0625l.0376.15771c-.07764.03467-.21045.07471-.40283.07471-.37305,0-.5957-.24512-.5957-.61035,0-.36572.21484-.65332.56787-.65332.39551,0,.50049.34814.50049.5708,0,.04492-.00488.08008-.00732.10254h-.85109Zm.64551-.15771c.00293-.14014-.05713-.35791-.30518-.35791-.22266,0-.32031.20508-.33789.35791h.64307Z" style="fill:#444; stroke-width:0px;"/><path d="m35.48633,14.54766c0-.09277.06299-.15771.15039-.15771s.14746.06494.14746.15771c0,.08984-.05762.15723-.1499.15723-.0874,0-.14795-.06738-.14795-.15723Z" style="fill:#444; stroke-width:0px;"/><path d="m36.85303,14.67754v-.71582l-.53271-.9707h.24756l.23779.46533c.06494.12744.11523.22998.16748.34766h.00537c.04736-.10986.10498-.22021.16992-.34766l.24268-.46533h.24756l-.56543.96826v.71826s-.22021,0-.22022,0Z" style="fill:#444; stroke-width:0px;"/><path d="m38.72705,14.06182c0,.44824-.31055.64307-.60303.64307-.32812,0-.58057-.24023-.58057-.62305,0-.40527.26514-.64307.60059-.64307.34766,0,.58301.25293.58301.62305Zm-.96094.0127c0,.26514.15283.46533.36768.46533.21045,0,.36816-.19775.36816-.47021,0-.20557-.10254-.46582-.36328-.46582-.25977,0-.37256.24023-.37256.4707Z" style="fill:#444; stroke-width:0px;"/><path d="m40.01465,14.34746c0,.125.00244.23486.00977.33008h-.19531l-.01221-.19775h-.00488c-.05762.09766-.18555.2251-.40039.2251-.19043,0-.41797-.10498-.41797-.53027v-.70801h.22021v.67041c0,.22998.06982.38525.27002.38525.14795,0,.25049-.10254.29053-.2002.01221-.03223.02002-.07227.02002-.1123v-.74316h.22021v.88086h0Z" style="fill:#444; stroke-width:0px;"/><path d="m40.53906,12.96318l-.04248.60059h-.13525l-.04004-.60059h.21777Z" style="fill:#444; stroke-width:0px;"/><path d="m40.84521,13.84404c0-.14258-.00244-.26514-.00977-.37744h.19287l.00684.2373h.01074c.05469-.1626.1875-.26514.33496-.26514.02539,0,.04297.00244.0625.00732v.20801c-.02246-.00488-.04492-.00781-.0752-.00781-.15527,0-.26465.11768-.29492.2832-.00488.02979-.01074.06494-.01074.10254v.64551h-.21729s0-.8335,0-.83349Z" style="fill:#444; stroke-width:0px;"/><path d="m41.75977,14.11211c.00488.29785.19531.42041.41504.42041.15723,0,.25293-.02783.33496-.0625l.03809.15771c-.07812.03467-.20996.07471-.40332.07471-.37305,0-.5957-.24512-.5957-.61035,0-.36572.21582-.65332.56836-.65332.39551,0,.50098.34814.50098.5708,0,.04492-.00586.08008-.00781.10254h-.8506Zm.64551-.15771c.00195-.14014-.05762-.35791-.30566-.35791-.22266,0-.32031.20508-.33789.35791h.64355Z" style="fill:#444; stroke-width:0px;"/><path d="m43.66113,13.12578c.00293.0752-.05273.13525-.13965.13525-.07812,0-.13281-.06006-.13281-.13525,0-.07715.05762-.13721.1377-.13721.08203,0,.13477.06006.13477.13721h-.00001Zm-.24512,1.55176v-1.21094h.2207v1.21094h-.2207Z" style="fill:#444; stroke-width:0px;"/><path d="m44,13.79424c0-.125-.00195-.22803-.00977-.32764h.19531l.01172.2002h.00586c.05957-.11523.2002-.22803.40039-.22803.16699,0,.42773.1001.42773.51562v.72314h-.2207v-.69824c0-.19531-.07227-.35791-.28027-.35791-.14453,0-.25781.10254-.29492.2251-.00977.02783-.01465.06543-.01465.10303v.72803h-.2207v-.8833Z" style="fill:#444; stroke-width:0px;"/><path d="m46.77832,14.63262c-.05762.02979-.18457.06982-.34766.06982-.36523,0-.60352-.24756-.60352-.61816,0-.37256.25586-.64307.65137-.64307.12988,0,.24512.03271.30469.0625l-.0498.17041c-.05273-.03027-.13477-.05762-.25488-.05762-.27832,0-.42871.20508-.42871.45801,0,.28027.18066.45264.4209.45264.125,0,.20801-.03223.27051-.05957l.03711.16504h-.00001Z" style="fill:#444; stroke-width:0px;"/><path d="m47.0332,12.90068h.2207v.75586h.00488c.03516-.0625.08984-.11768.15723-.15527.06543-.0376.14258-.0625.22559-.0625.16211,0,.42285.1001.42285.51807v.7207h-.2207v-.6958c0-.19482-.07227-.36035-.28027-.36035-.14258,0-.25488.1001-.29492.22021-.0127.03027-.01465.0625-.01465.10547v.73047h-.2207v-1.77686h-.00001Z" style="fill:#444; stroke-width:0px;"/><path d="m49.08984,14.67754l-.01758-.15283h-.00781c-.06738.09521-.19727.18018-.37012.18018-.24512,0-.37012-.17236-.37012-.34766,0-.29297.25977-.45312.72754-.4502v-.02539c0-.1001-.02734-.28027-.27441-.28027-.11328,0-.23047.03516-.31543.09033l-.05078-.14502c.10059-.06543.24512-.10791.39844-.10791.37012,0,.45996.25293.45996.49561v.45312c0,.10498.00488.20752.02051.29004,0,0-.2002,0-.2002,0Zm-.0332-.61816c-.24023-.00488-.5127.0376-.5127.27295,0,.14258.0957.20996.20801.20996.15723,0,.25781-.1001.29297-.20264.00684-.02246.01172-.04736.01172-.06982v-.21045Z" style="fill:#444; stroke-width:0px;"/><path d="m49.62207,13.84404c0-.14258-.00293-.26514-.00977-.37744h.19238l.00781.2373h.00977c.05469-.1626.1875-.26514.33496-.26514.02539,0,.04297.00244.06348.00732v.20801c-.02344-.00488-.0459-.00781-.0752-.00781-.15527,0-.26562.11768-.2959.2832-.00488.02979-.00977.06494-.00977.10254v.64551h-.21777s0-.8335,0-.83349Z" style="fill:#444; stroke-width:0px;"/><path d="m51.46289,13.4666c-.00586.0874-.01074.18506-.01074.33252v.70312c0,.27783-.05469.44824-.17188.55322-.11816.10986-.28809.14502-.44043.14502-.14551,0-.30566-.03516-.40332-.1001l.05469-.16748c.08008.0498.20605.09521.35547.09521.22559,0,.39062-.11768.39062-.42334v-.13477h-.00488c-.06738.1123-.19824.20264-.38574.20264-.2998,0-.51562-.25537-.51562-.59082,0-.41016.26855-.64307.5459-.64307.20996,0,.3252.11035.37793.21045h.00488l.00977-.18262h.19336v.00002Zm-.22852.47754c0-.03711-.00195-.06982-.01172-.1001-.04004-.12744-.14844-.23242-.30859-.23242-.20996,0-.36035.17773-.36035.45801,0,.23779.12012.43506.3584.43506.13477,0,.25781-.08496.30469-.2251.0127-.0376.01758-.08008.01758-.11768,0,0,0-.21777,0-.21777Z" style="fill:#444; stroke-width:0px;"/><path d="m51.9375,14.11211c.00488.29785.19531.42041.41504.42041.15723,0,.25293-.02783.33496-.0625l.03809.15771c-.07812.03467-.20996.07471-.40332.07471-.37305,0-.5957-.24512-.5957-.61035,0-.36572.21582-.65332.56836-.65332.39551,0,.50098.34814.50098.5708,0,.04492-.00586.08008-.00781.10254h-.8506Zm.64551-.15771c.00195-.14014-.05762-.35791-.30566-.35791-.22266,0-.32031.20508-.33789.35791h.64355Z" style="fill:#444; stroke-width:0px;"/><path d="m53.02148,14.5501c0-.09033.06348-.15527.14844-.15527.08984,0,.14746.06494.14746.15527,0,.0874-.05762.15479-.14746.15479-.08789,0-.14844-.06738-.14844-.15479Zm.06348-.35791l-.03516-1.20117h.24023l-.03516,1.20117h-.16992.00001Z" style="fill:#444; stroke-width:0px;"/><path d="m4.30957,16.88164h-.65576v.6084h.73096v.18262h-.94824v-1.68652h.91064v.18262h-.69336v.5332h.65576s0,.17969,0,.17968Z" style="fill:#444; stroke-width:0px;"/><path d="m4.65674,16.78936c0-.125-.00244-.22803-.00977-.32764h.19482l.0127.2002h.00488c.06006-.11523.2002-.22803.40039-.22803.16797,0,.42822.1001.42822.51562v.72314h-.22021v-.69824c0-.19531-.07275-.35791-.28027-.35791-.14551,0-.25781.10254-.29541.2251-.01025.02783-.01514.06543-.01514.10303v.72803h-.22021s0-.8833,0-.8833Z" style="fill:#444; stroke-width:0px;"/><path d="m6.71289,17.67266l-.01758-.15283h-.00781c-.06738.09521-.19727.18018-.37012.18018-.24512,0-.37061-.17236-.37061-.34766,0-.29297.26025-.45312.72852-.4502v-.02539c0-.1001-.02783-.28027-.27539-.28027-.11279,0-.22998.03516-.31543.09033l-.0498-.14502c.1001-.06543.24512-.10791.39795-.10791.37012,0,.46045.25293.46045.49561v.45312c0,.10498.00488.20752.02002.29004,0,0-.2002,0-.2002,0Zm-.03271-.61816c-.24023-.00488-.51318.0376-.51318.27295,0,.14258.09521.20996.20801.20996.15771,0,.25781-.1001.29248-.20264.00781-.02246.0127-.04736.0127-.06982v-.21045h-.00001Z" style="fill:#444; stroke-width:0px;"/><path d="m7.23535,17.67266c.00488-.08252.00977-.20508.00977-.31299v-1.46387h.21777v.76074h.00488c.07764-.13525.21777-.22266.41309-.22266.30029,0,.5127.25049.51025.61816,0,.43311-.27246.64795-.54297.64795-.17529,0-.31494-.06738-.40527-.22754h-.00732l-.01025.2002h-.18995Zm.22754-.48535c0,.02734.00488.05469.00977.08008.04297.15234.17041.25781.33057.25781.22998,0,.36768-.18799.36768-.46582,0-.24268-.125-.4502-.36035-.4502-.1499,0-.29004.10254-.33496.27002-.00537.02539-.0127.05518-.0127.09033,0,0,0,.21777,0,.21778Z" style="fill:#444; stroke-width:0px;"/><path d="m8.66553,15.8958h.22021v1.77686h-.22021s0-1.77686,0-1.77686Z" style="fill:#444; stroke-width:0px;"/><path d="m9.37695,17.10723c.00488.29785.19531.42041.41553.42041.15771,0,.25293-.02783.33545-.0625l.0376.15771c-.07764.03467-.21045.07471-.40283.07471-.37305,0-.5957-.24512-.5957-.61035,0-.36572.21484-.65332.56787-.65332.39551,0,.50049.34814.50049.5708,0,.04492-.00488.08008-.00732.10254h-.85109Zm.64551-.15771c.00293-.14014-.05713-.35791-.30518-.35791-.22266,0-.32031.20508-.33789.35791,0,0,.64307,0,.64307,0Z" style="fill:#444; stroke-width:0px;"/><path d="m12.13037,17.05693c0,.44824-.31055.64307-.60303.64307-.32812,0-.58057-.24023-.58057-.62305,0-.40527.26514-.64307.60059-.64307.34766,0,.58301.25293.58301.62305Zm-.96094.0127c0,.26514.15283.46533.36768.46533.21045,0,.36816-.19775.36816-.47021,0-.20557-.10254-.46582-.36328-.46582-.25977,0-.37256.24023-.37256.4707Z" style="fill:#444; stroke-width:0px;"/><path d="m12.4043,16.83916c0-.14258-.00244-.26514-.00977-.37744h.19238l.00781.2373h.00977c.05518-.1626.1875-.26514.33545-.26514.0249,0,.04248.00244.0625.00732v.20801c-.02246-.00488-.04492-.00781-.0752-.00781-.15479,0-.26514.11768-.29541.2832-.00488.02979-.00977.06494-.00977.10254v.64551h-.21777v-.8335h.00001Z" style="fill:#444; stroke-width:0px;"/><path d="m14.7959,15.8958v1.46387c0,.10791.00293.23047.01025.31299h-.19775l-.00977-.20996h-.00537c-.06738.13477-.21533.2373-.4126.2373-.29297,0-.51807-.24756-.51807-.61523-.00244-.40332.24756-.65088.54297-.65088.18506,0,.31006.0874.36523.18506h.00488v-.72314h.22023Zm-.22021,1.05859c0-.02734-.00244-.06494-.00977-.09229-.03271-.14062-.15283-.25537-.31787-.25537-.22754,0-.36279.2002-.36279.46777,0,.24512.12012.44775.35791.44775.14746,0,.28271-.09717.32275-.2627.00732-.02979.00977-.06006.00977-.09473v-.21045.00002Z" style="fill:#444; stroke-width:0px;"/><path d="m15.40283,16.1209c.00244.0752-.05225.13525-.14014.13525-.07715,0-.13232-.06006-.13232-.13525,0-.07715.05762-.13721.1377-.13721.08252,0,.13477.06006.13477.13721h-.00001Zm-.24512,1.55176v-1.21094h.22021v1.21094h-.22021Z" style="fill:#444; stroke-width:0px;"/><path d="m15.71191,17.44756c.06494.04248.18018.0874.29004.0874.16016,0,.23535-.08008.23535-.18018,0-.10498-.0625-.1626-.2251-.22266-.21777-.07764-.32031-.19775-.32031-.34277,0-.19531.15771-.35547.41748-.35547.12305,0,.23047.03516.29785.0752l-.05469.16016c-.04785-.03027-.13525-.07031-.24805-.07031-.12988,0-.20264.0752-.20264.16553,0,.1001.07275.14502.23047.20508.20996.08008.31787.18506.31787.36523,0,.21289-.16553.36279-.45312.36279-.13281,0-.25537-.03223-.34033-.08252,0,0,.05518-.16748.05518-.16748Z" style="fill:#444; stroke-width:0px;"/><path d="m17.40088,17.67266l-.01758-.15283h-.00781c-.06738.09521-.19775.18018-.37012.18018-.24512,0-.37061-.17236-.37061-.34766,0-.29297.26025-.45312.72852-.4502v-.02539c0-.1001-.02783-.28027-.27539-.28027-.11279,0-.23047.03516-.31543.09033l-.0498-.14502c.1001-.06543.24512-.10791.39795-.10791.37012,0,.46045.25293.46045.49561v.45312c0,.10498.00488.20752.02002.29004,0,0-.2002,0-.2002,0Zm-.03271-.61816c-.24023-.00488-.51318.0376-.51318.27295,0,.14258.09521.20996.20801.20996.15771,0,.25781-.1001.29248-.20264.00781-.02246.0127-.04736.0127-.06982,0,0,0-.21045,0-.21045Z" style="fill:#444; stroke-width:0px;"/><path d="m17.92334,17.67266c.00488-.08252.00977-.20508.00977-.31299v-1.46387h.21777v.76074h.00488c.07764-.13525.21777-.22266.41309-.22266.30029,0,.51318.25049.51025.61816,0,.43311-.27246.64795-.54297.64795-.1748,0-.31543-.06738-.40527-.22754h-.00732l-.01025.2002h-.18995Zm.22754-.48535c0,.02734.00488.05469.01025.08008.04248.15234.16992.25781.33008.25781.23047,0,.36768-.18799.36768-.46582,0-.24268-.125-.4502-.36035-.4502-.1499,0-.29004.10254-.33496.27002-.00537.02539-.0127.05518-.0127.09033v.21778Z" style="fill:#444; stroke-width:0px;"/><path d="m19.35352,15.8958h.22021v1.77686h-.22021s0-1.77686,0-1.77686Z" style="fill:#444; stroke-width:0px;"/><path d="m20.06494,17.10723c.00537.29785.19531.42041.41553.42041.15771,0,.25293-.02783.33545-.0625l.0376.15771c-.07764.03467-.21045.07471-.40332.07471-.37256,0-.59521-.24512-.59521-.61035,0-.36572.21533-.65332.56787-.65332.39551,0,.50049.34814.50049.5708,0,.04492-.00488.08008-.00732.10254h-.85109Zm.646-.15771c.00244-.14014-.05762-.35791-.30566-.35791-.22266,0-.32031.20508-.33789.35791h.64355Z" style="fill:#444; stroke-width:0px;"/><path d="m21.69238,17.44756c.06494.04248.18018.0874.29004.0874.16016,0,.23535-.08008.23535-.18018,0-.10498-.0625-.1626-.2251-.22266-.21777-.07764-.32031-.19775-.32031-.34277,0-.19531.15771-.35547.41748-.35547.12305,0,.23047.03516.29785.0752l-.05469.16016c-.04785-.03027-.13525-.07031-.24805-.07031-.12988,0-.20264.0752-.20264.16553,0,.1001.07275.14502.23047.20508.20996.08008.31787.18506.31787.36523,0,.21289-.16553.36279-.45312.36279-.13281,0-.25537-.03223-.34033-.08252,0,0,.05518-.16748.05518-.16748Z" style="fill:#444; stroke-width:0px;"/><path d="m22.83301,17.10723c.00488.29785.19531.42041.41553.42041.15771,0,.25293-.02783.33545-.0625l.0376.15771c-.07764.03467-.21045.07471-.40283.07471-.37305,0-.5957-.24512-.5957-.61035,0-.36572.21484-.65332.56787-.65332.39551,0,.50049.34814.50049.5708,0,.04492-.00488.08008-.00732.10254h-.85109Zm.64551-.15771c.00293-.14014-.05713-.35791-.30518-.35791-.22266,0-.32031.20508-.33789.35791h.64307Z" style="fill:#444; stroke-width:0px;"/><path d="m23.96094,16.83916c0-.14258-.00244-.26514-.00977-.37744h.19238l.00781.2373h.00977c.05518-.1626.1875-.26514.33545-.26514.0249,0,.04248.00244.0625.00732v.20801c-.02246-.00488-.04492-.00781-.0752-.00781-.15479,0-.26514.11768-.29541.2832-.00488.02979-.00977.06494-.00977.10254v.64551h-.21777v-.8335h0Z" style="fill:#444; stroke-width:0px;"/><path d="m24.9248,16.46172l.23779.68066c.04004.10986.07275.20996.09766.31006h.00732c.02783-.1001.06299-.2002.10303-.31006l.23486-.68066h.23047l-.47559,1.21094h-.20996l-.46045-1.21094h.23487Z" style="fill:#444; stroke-width:0px;"/><path d="m26.28564,16.1209c.00244.0752-.05225.13525-.14014.13525-.07715,0-.13232-.06006-.13232-.13525,0-.07715.05762-.13721.1377-.13721.08252,0,.13477.06006.13476.13721Zm-.24512,1.55176v-1.21094h.22021v1.21094h-.22021Z" style="fill:#444; stroke-width:0px;"/><path d="m27.48779,17.62773c-.05762.02979-.18506.06982-.34766.06982-.36523,0-.60303-.24756-.60303-.61816,0-.37256.25488-.64307.65039-.64307.13037,0,.24512.03271.30566.0625l-.05029.17041c-.05273-.03027-.13525-.05762-.25537-.05762-.27783,0-.42773.20508-.42773.45801,0,.28027.18018.45264.42041.45264.125,0,.20752-.03223.27002-.05957,0,0,.0376.16504.0376.16504Z" style="fill:#444; stroke-width:0px;"/><path d="m27.8501,17.10723c.00537.29785.19531.42041.41553.42041.15771,0,.25293-.02783.33545-.0625l.0376.15771c-.07764.03467-.21045.07471-.40332.07471-.37256,0-.59521-.24512-.59521-.61035,0-.36572.21533-.65332.56787-.65332.39551,0,.50049.34814.50049.5708,0,.04492-.00488.08008-.00732.10254h-.85109Zm.646-.15771c.00244-.14014-.05762-.35791-.30566-.35791-.22266,0-.32031.20508-.33789.35791h.64355Z" style="fill:#444; stroke-width:0px;"/><path d="m28.94824,17.44756c.06494.04248.18018.0874.29004.0874.16016,0,.23535-.08008.23535-.18018,0-.10498-.0625-.1626-.2251-.22266-.21777-.07764-.32031-.19775-.32031-.34277,0-.19531.15771-.35547.41748-.35547.12305,0,.23047.03516.29785.0752l-.05469.16016c-.04785-.03027-.13525-.07031-.24805-.07031-.12988,0-.20264.0752-.20264.16553,0,.1001.07275.14502.23047.20508.20996.08008.31787.18506.31787.36523,0,.21289-.16553.36279-.45312.36279-.13281,0-.25537-.03223-.34033-.08252,0,0,.05518-.16748.05518-.16748Z" style="fill:#444; stroke-width:0px;"/><path d="m31.1665,17.67266l-.01758-.15283h-.00781c-.06738.09521-.19775.18018-.37012.18018-.24512,0-.37061-.17236-.37061-.34766,0-.29297.26025-.45312.72852-.4502v-.02539c0-.1001-.02783-.28027-.27539-.28027-.11279,0-.23047.03516-.31543.09033l-.0498-.14502c.1001-.06543.24512-.10791.39795-.10791.37012,0,.46045.25293.46045.49561v.45312c0,.10498.00488.20752.02002.29004,0,0-.2002,0-.2002,0Zm-.03271-.61816c-.24023-.00488-.51318.0376-.51318.27295,0,.14258.09521.20996.20801.20996.15771,0,.25781-.1001.29248-.20264.00781-.02246.0127-.04736.0127-.06982,0,0,0-.21045,0-.21045Z" style="fill:#444; stroke-width:0px;"/><path d="m31.66895,17.44756c.06494.04248.18018.0874.29004.0874.16016,0,.23535-.08008.23535-.18018,0-.10498-.0625-.1626-.2251-.22266-.21777-.07764-.32031-.19775-.32031-.34277,0-.19531.15771-.35547.41748-.35547.12305,0,.23047.03516.29785.0752l-.05469.16016c-.04785-.03027-.13525-.07031-.24805-.07031-.12988,0-.20264.0752-.20264.16553,0,.1001.07275.14502.23047.20508.20996.08008.31787.18506.31787.36523,0,.21289-.16553.36279-.45312.36279-.13281,0-.25537-.03223-.34033-.08252,0,0,.05518-.16748.05518-.16748Z" style="fill:#444; stroke-width:0px;"/><path d="m33.29639,16.46172l.26514.71533c.02783.08008.05762.17529.07764.24805h.00537c.02246-.07275.04736-.16553.07715-.25293l.24023-.71045h.23291l-.33057.86328c-.15723.41504-.26514.62793-.41504.75781-.10791.09521-.21533.13281-.27051.14307l-.05469-.18555c.05469-.01709.12744-.05225.19238-.10742.06006-.04736.13525-.13281.18506-.24512.01025-.02246.01758-.04004.01758-.05273,0-.01221-.00488-.02979-.01514-.05762l-.44775-1.11572h.24025Z" style="fill:#444; stroke-width:0px;"/><path d="m35.46338,17.05693c0,.44824-.31055.64307-.60303.64307-.32812,0-.58057-.24023-.58057-.62305,0-.40527.26514-.64307.60059-.64307.34766,0,.58301.25293.58301.62305Zm-.96094.0127c0,.26514.15283.46533.36768.46533.21045,0,.36816-.19775.36816-.47021,0-.20557-.10254-.46582-.36328-.46582-.25977,0-.37256.24023-.37256.4707Z" style="fill:#444; stroke-width:0px;"/><path d="m36.75098,17.34258c0,.125.00244.23486.00977.33008h-.19531l-.01221-.19775h-.00488c-.05762.09766-.18555.2251-.40039.2251-.19043,0-.41797-.10498-.41797-.53027v-.70801h.22021v.67041c0,.22998.06982.38525.27002.38525.14795,0,.25049-.10254.29053-.2002.01221-.03223.02002-.07227.02002-.1123v-.74316h.22021s0,.88086,0,.88085Z" style="fill:#444; stroke-width:0px;"/><path d="m37.6123,17.44756c.06494.04248.18018.0874.29004.0874.16016,0,.23535-.08008.23535-.18018,0-.10498-.0625-.1626-.2251-.22266-.21777-.07764-.32031-.19775-.32031-.34277,0-.19531.15771-.35547.41748-.35547.12305,0,.23047.03516.29785.0752l-.05469.16016c-.04785-.03027-.13525-.07031-.24805-.07031-.12988,0-.20264.0752-.20264.16553,0,.1001.07275.14502.23047.20508.20996.08008.31787.18506.31787.36523,0,.21289-.16553.36279-.45312.36279-.13281,0-.25537-.03223-.34033-.08252,0,0,.05518-.16748.05518-.16748Z" style="fill:#444; stroke-width:0px;"/><path d="m38.75293,17.10723c.00488.29785.19531.42041.41553.42041.15771,0,.25293-.02783.33545-.0625l.0376.15771c-.07764.03467-.21045.07471-.40283.07471-.37305,0-.5957-.24512-.5957-.61035,0-.36572.21484-.65332.56787-.65332.39551,0,.50049.34814.50049.5708,0,.04492-.00488.08008-.00732.10254h-.85109Zm.64551-.15771c.00293-.14014-.05713-.35791-.30518-.35791-.22266,0-.32031.20508-.33789.35791h.64307Z" style="fill:#444; stroke-width:0px;"/><path d="m40.00342,17.10723c.00537.29785.19531.42041.41553.42041.15771,0,.25293-.02783.33545-.0625l.0376.15771c-.07764.03467-.21045.07471-.40332.07471-.37256,0-.59521-.24512-.59521-.61035,0-.36572.21533-.65332.56787-.65332.39551,0,.50049.34814.50049.5708,0,.04492-.00488.08008-.00732.10254h-.85109Zm.646-.15771c.00244-.14014-.05762-.35791-.30566-.35791-.22266,0-.32031.20508-.33789.35791h.64355Z" style="fill:#444; stroke-width:0px;"/><path d="m41.68262,17.67266v-1.04346h-.16992v-.16748h.16992v-.06543c0-.32031.1875-.52783.52832-.52783.1123,0,.24512.03516.30762.08008l-.0625.16748c-.05273-.0376-.14746-.06982-.25488-.06982-.2334,0-.30078.1626-.30078.35498v.06055h.70312v1.21094h-.21777v-1.04346h-.48535v1.04346h-.21778Z" style="fill:#444; stroke-width:0px;"/><path d="m43.23145,16.11357v.34814h.31543v.16748h-.31543v.65283c0,.15039.04199.23535.16504.23535.05762,0,.09961-.00732.12695-.01465l.01074.16504c-.04297.01758-.11035.02979-.19531.02979-.10254,0-.18555-.03223-.23828-.09229-.0625-.06543-.08496-.17285-.08496-.31543v-.66064h-.1875v-.16748h.1875v-.29053s.21582-.05762.21582-.05761Z" style="fill:#444; stroke-width:0px;"/><path d="m43.73145,17.54277c0-.09277.0625-.15771.15039-.15771s.14746.06494.14746.15771c0,.08984-.05762.15723-.15039.15723-.08691,0-.14746-.06738-.14746-.15723Z" style="fill:#444; stroke-width:0px;"/><path d="m45.05664,16.17119h-.51367v-.18506h1.24902v.18506h-.51562v1.50146h-.21973s0-1.50146,0-1.50146Z" style="fill:#444; stroke-width:0px;"/><path d="m46.88672,17.05693c0,.44824-.30957.64307-.60254.64307-.32812,0-.58105-.24023-.58105-.62305,0-.40527.26562-.64307.60059-.64307.34863,0,.58301.25293.58301.62305h-.00001Zm-.96094.0127c0,.26514.15332.46533.36816.46533.20996,0,.36816-.19775.36816-.47021,0-.20557-.10254-.46582-.36328-.46582-.25977,0-.37305.24023-.37305.4707h.00001Z" style="fill:#444; stroke-width:0px;"/><path d="m47.69043,15.8958h.2207v1.77686h-.2207s0-1.77686,0-1.77686Z" style="fill:#444; stroke-width:0px;"/><path d="m48.40234,17.10723c.00488.29785.19531.42041.41504.42041.15723,0,.25293-.02783.33496-.0625l.03809.15771c-.07812.03467-.20996.07471-.40332.07471-.37305,0-.5957-.24512-.5957-.61035,0-.36572.21582-.65332.56836-.65332.39551,0,.50098.34814.50098.5708,0,.04492-.00586.08008-.00781.10254h-.8506Zm.64551-.15771c.00195-.14014-.05762-.35791-.30566-.35791-.22266,0-.32031.20508-.33789.35791h.64355Z" style="fill:#444; stroke-width:0px;"/><path d="m50.2002,17.67266l-.01758-.15283h-.00781c-.06738.09521-.19727.18018-.37012.18018-.24512,0-.37012-.17236-.37012-.34766,0-.29297.25977-.45312.72754-.4502v-.02539c0-.1001-.02734-.28027-.27539-.28027-.1123,0-.22949.03516-.31445.09033l-.05078-.14502c.10059-.06543.24609-.10791.39844-.10791.37012,0,.45996.25293.45996.49561v.45312c0,.10498.00488.20752.02051.29004,0,0-.2002,0-.2002,0Zm-.03223-.61816c-.24023-.00488-.51367.0376-.51367.27295,0,.14258.0957.20996.20801.20996.15723,0,.25781-.1001.29297-.20264.00684-.02246.0127-.04736.0127-.06982,0,0,0-.21045,0-.21045Z" style="fill:#444; stroke-width:0px;"/><path d="m50.73242,16.83916c0-.14258-.00195-.26514-.00977-.37744h.19238l.00781.2373h.00977c.05469-.1626.1875-.26514.33496-.26514.02539,0,.04297.00244.0625.00732v.20801c-.02246-.00488-.04492-.00781-.07422-.00781-.15527,0-.26562.11768-.2959.2832-.00488.02979-.00977.06494-.00977.10254v.64551h-.21777v-.8335h0Z" style="fill:#444; stroke-width:0px;"/><path d="m51.55859,16.78936c0-.125-.00195-.22803-.00977-.32764h.19531l.01172.2002h.00586c.05957-.11523.2002-.22803.40039-.22803.16699,0,.42773.1001.42773.51562v.72314h-.2207v-.69824c0-.19531-.07227-.35791-.28027-.35791-.14453,0-.25781.10254-.29492.2251-.00977.02783-.01465.06543-.01465.10303v.72803h-.2207s0-.8833,0-.8833Z" style="fill:#444; stroke-width:0px;"/><path d="m53.47266,16.78936c0-.125-.00195-.22803-.00977-.32764h.19238l.00977.19482h.00781c.06738-.11475.18066-.22266.38086-.22266.16504,0,.29004.1001.34277.24268h.00488c.03711-.06738.08496-.12012.13477-.15771.07227-.05469.15234-.08496.26758-.08496.16016,0,.39844.10498.39844.52539v.71338h-.21582v-.68555c0-.23291-.08496-.37305-.2627-.37305-.125,0-.22266.09277-.25977.2002-.00977.03027-.01758.07031-.01758.11035v.74805h-.21582v-.72559c0-.19287-.08496-.33301-.25195-.33301-.1377,0-.23828.11035-.27344.22021-.01172.03271-.01758.07031-.01758.10791v.73047h-.21484v-.8833h.00001Z" style="fill:#444; stroke-width:0px;"/><path d="m56.65039,17.05693c0,.44824-.30957.64307-.60254.64307-.32812,0-.58105-.24023-.58105-.62305,0-.40527.26562-.64307.60059-.64307.34863,0,.58301.25293.58301.62305h-.00001Zm-.96094.0127c0,.26514.15332.46533.36816.46533.20996,0,.36816-.19775.36816-.47021,0-.20557-.10254-.46582-.36328-.46582-.25977,0-.37305.24023-.37305.4707h.00001Z" style="fill:#444; stroke-width:0px;"/><path d="m56.9248,16.83916c0-.14258-.00293-.26514-.00977-.37744h.19238l.00781.2373h.00977c.05469-.1626.1875-.26514.33496-.26514.02539,0,.04297.00244.06348.00732v.20801c-.02344-.00488-.0459-.00781-.0752-.00781-.15527,0-.26562.11768-.2959.2832-.00488.02979-.00977.06494-.00977.10254v.64551h-.21777v-.8335h0Z" style="fill:#444; stroke-width:0px;"/><path d="m57.83984,17.10723c.00488.29785.19531.42041.41504.42041.15723,0,.25293-.02783.33496-.0625l.03809.15771c-.07812.03467-.20996.07471-.40332.07471-.37305,0-.5957-.24512-.5957-.61035,0-.36572.21582-.65332.56836-.65332.39551,0,.50098.34814.50098.5708,0,.04492-.00586.08008-.00781.10254h-.8506Zm.64551-.15771c.00195-.14014-.05762-.35791-.30566-.35791-.22266,0-.32031.20508-.33789.35791h.64355Z" style="fill:#444; stroke-width:0px;"/><path d="m58.79395,17.98027c.05469-.14746.12305-.41504.15039-.59766l.24512-.02539c-.05762.21289-.16797.49072-.23828.6084l-.15723.01465Z" style="fill:#444; stroke-width:0px;"/><path d="m3.42871,19.85186c0-.15479-.00488-.28027-.00977-.39502h.19727l.01025.20752h.00488c.09033-.14795.23291-.23535.43066-.23535.29248,0,.5127.24756.5127.61572,0,.43555-.26514.65039-.55029.65039-.16016,0-.30029-.06982-.37305-.18994h-.00488v.6582h-.21777s0-1.31152,0-1.31152Zm.21777.32275c0,.03271.00488.0625.00977.09033.04004.15283.17285.25781.33057.25781.23291,0,.36768-.19043.36768-.46826,0-.24268-.12744-.4502-.36035-.4502-.1499,0-.29004.10742-.33252.27246-.00781.02783-.01514.06055-.01514.09033,0,0,0,.20752,0,.20753Z" style="fill:#444; stroke-width:0px;"/><path d="m4.84912,18.89092h.22021v1.77686h-.22021v-1.77686Z" style="fill:#444; stroke-width:0px;"/><path d="m5.56055,20.10234c.00488.29785.19531.42041.41553.42041.15771,0,.25293-.02783.33545-.0625l.0376.15771c-.07764.03467-.21045.07471-.40283.07471-.37305,0-.5957-.24512-.5957-.61035,0-.36572.21484-.65332.56787-.65332.39551,0,.50049.34814.50049.5708,0,.04492-.00488.08008-.00732.10254h-.85109Zm.64551-.15771c.00293-.14014-.05713-.35791-.30518-.35791-.22266,0-.32031.20508-.33789.35791h.64307Z" style="fill:#444; stroke-width:0px;"/><path d="m7.35937,20.66777l-.01758-.15283h-.00781c-.06738.09521-.19727.18018-.37012.18018-.24512,0-.37061-.17236-.37061-.34766,0-.29297.26025-.45312.72852-.4502v-.02539c0-.1001-.02783-.28027-.27539-.28027-.11279,0-.22998.03516-.31543.09033l-.0498-.14502c.1001-.06543.24512-.10791.39795-.10791.37012,0,.46045.25293.46045.49561v.45312c0,.10498.00488.20752.02002.29004,0,0-.2002,0-.2002,0Zm-.03271-.61816c-.24023-.00488-.51318.0376-.51318.27295,0,.14258.09521.20996.20801.20996.15771,0,.25781-.1001.29248-.20264.00781-.02246.0127-.04736.0127-.06982v-.21045h-.00001Z" style="fill:#444; stroke-width:0px;"/><path d="m7.86182,20.44268c.06494.04248.18018.0874.29004.0874.16016,0,.23535-.08008.23535-.18018,0-.10498-.0625-.1626-.2251-.22266-.21777-.07764-.32031-.19775-.32031-.34277,0-.19531.15723-.35547.41797-.35547.12256,0,.22998.03516.29736.0752l-.05469.16016c-.04785-.03027-.13525-.07031-.24805-.07031-.12988,0-.20264.0752-.20264.16553,0,.1001.07275.14502.23047.20508.20996.08008.31738.18506.31738.36523,0,.21289-.16504.36279-.45264.36279-.13281,0-.25537-.03223-.34033-.08252,0,0,.05518-.16748.05519-.16748Z" style="fill:#444; stroke-width:0px;"/><path d="m9.00244,20.10234c.00537.29785.19531.42041.41553.42041.15771,0,.25293-.02783.33545-.0625l.0376.15771c-.07764.03467-.21045.07471-.40332.07471-.37256,0-.59521-.24512-.59521-.61035,0-.36572.21533-.65332.56787-.65332.39551,0,.50049.34814.50049.5708,0,.04492-.00488.08008-.00732.10254h-.85109Zm.646-.15771c.00244-.14014-.05762-.35791-.30566-.35791-.22266,0-.32031.20508-.33789.35791h.64355Z" style="fill:#444; stroke-width:0px;"/><path d="m10.65967,19.83428c0-.14258-.00244-.26514-.00977-.37744h.19238l.00781.2373h.00977c.05518-.1626.18799-.26514.33545-.26514.0249,0,.04248.00244.0625.00732v.20801c-.02246-.00488-.04492-.00781-.0752-.00781-.15527,0-.26514.11768-.29492.2832-.00537.02979-.01025.06494-.01025.10254v.64551h-.21777v-.8335h0Z" style="fill:#444; stroke-width:0px;"/><path d="m11.57373,20.10234c.00537.29785.19531.42041.41553.42041.15771,0,.25293-.02783.33545-.0625l.0376.15771c-.07764.03467-.21045.07471-.40332.07471-.37256,0-.59521-.24512-.59521-.61035,0-.36572.21533-.65332.56787-.65332.39551,0,.50049.34814.50049.5708,0,.04492-.00488.08008-.00732.10254h-.85109Zm.646-.15771c.00244-.14014-.05762-.35791-.30566-.35791-.22266,0-.32031.20508-.33789.35791h.64355Z" style="fill:#444; stroke-width:0px;"/><path d="m13.37256,20.66777l-.01758-.15283h-.00781c-.06738.09521-.19775.18018-.37012.18018-.24512,0-.37061-.17236-.37061-.34766,0-.29297.26025-.45312.72852-.4502v-.02539c0-.1001-.02783-.28027-.27539-.28027-.11279,0-.23047.03516-.31543.09033l-.0498-.14502c.1001-.06543.24512-.10791.39795-.10791.37012,0,.46045.25293.46045.49561v.45312c0,.10498.00488.20752.02002.29004,0,0-.2002,0-.2002,0Zm-.03271-.61816c-.24023-.00488-.51318.0376-.51318.27295,0,.14258.09521.20996.20801.20996.15771,0,.25781-.1001.29248-.20264.00781-.02246.0127-.04736.0127-.06982v-.21045h-.00001Z" style="fill:#444; stroke-width:0px;"/><path d="m14.95068,18.89092v1.46387c0,.10791.00244.23047.01025.31299h-.19775l-.01025-.20996h-.00488c-.06738.13477-.21484.2373-.4126.2373-.29297,0-.51807-.24756-.51807-.61523-.00244-.40332.24756-.65088.54297-.65088.18506,0,.31006.0874.36523.18506h.00488v-.72314h.22022Zm-.22021,1.05859c0-.02734-.00244-.06494-.00977-.09229-.03271-.14062-.15283-.25537-.31787-.25537-.22754,0-.36279.2002-.36279.46777,0,.24512.12012.44775.35791.44775.14746,0,.28271-.09717.32275-.2627.00732-.02979.00977-.06006.00977-.09473v-.21045.00002Z" style="fill:#444; stroke-width:0px;"/><path d="m16.93799,20.05205c0,.44824-.31055.64307-.60303.64307-.32812,0-.58057-.24023-.58057-.62305,0-.40527.26514-.64307.60059-.64307.34766,0,.58301.25293.58301.62305Zm-.96094.0127c0,.26514.15283.46533.36768.46533.21045,0,.36816-.19775.36816-.47021,0-.20557-.10254-.46582-.36328-.46582-.25977,0-.37256.24023-.37256.4707Z" style="fill:#444; stroke-width:0px;"/><path d="m18.22559,20.3377c0,.125.00244.23486.00977.33008h-.19531l-.01221-.19775h-.00488c-.05762.09766-.18555.2251-.40039.2251-.19043,0-.41797-.10498-.41797-.53027v-.70801h.22021v.67041c0,.22998.06982.38525.27002.38525.14795,0,.25049-.10254.29053-.2002.01221-.03223.02002-.07227.02002-.1123v-.74316h.22021s0,.88086,0,.88085Z" style="fill:#444; stroke-width:0px;"/><path d="m18.5874,19.83428c0-.14258-.00244-.26514-.00977-.37744h.19238l.00781.2373h.00977c.05518-.1626.18799-.26514.33545-.26514.0249,0,.04248.00244.0625.00732v.20801c-.02246-.00488-.04492-.00781-.0752-.00781-.15527,0-.26514.11768-.29492.2832-.00537.02979-.01025.06494-.01025.10254v.64551h-.21777v-.8335h0Z" style="fill:#444; stroke-width:0px;"/><path d="m19.93311,19.85186c0-.15479-.00488-.28027-.00977-.39502h.19775l.00977.20752h.00488c.09033-.14795.23291-.23535.43066-.23535.29248,0,.5127.24756.5127.61572,0,.43555-.26514.65039-.55029.65039-.16016,0-.30029-.06982-.37305-.18994h-.00488v.6582h-.21777v-1.31152Zm.21777.32275c0,.03271.00488.0625.01025.09033.04004.15283.17236.25781.33008.25781.23291,0,.36768-.19043.36768-.46826,0-.24268-.12744-.4502-.36035-.4502-.1499,0-.29004.10742-.33252.27246-.00781.02783-.01514.06055-.01514.09033v.20753Z" style="fill:#777; stroke-width:0px;"/><path d="m21.35352,19.83428c0-.14258-.00244-.26514-.00977-.37744h.19238l.00781.2373h.00977c.05518-.1626.1875-.26514.33545-.26514.0249,0,.04248.00244.0625.00732v.20801c-.02246-.00488-.04492-.00781-.0752-.00781-.15479,0-.26514.11768-.29541.2832-.00488.02979-.00977.06494-.00977.10254v.64551h-.21777v-.8335h0Z" style="fill:#777; stroke-width:0px;"/><path d="m22.4248,19.11602c.00293.0752-.05225.13525-.14014.13525-.07764,0-.13232-.06006-.13232-.13525,0-.07715.05762-.13721.1377-.13721.08252,0,.13477.06006.13476.13721Zm-.24512,1.55176v-1.21094h.22021v1.21094h-.22021Z" style="fill:#777; stroke-width:0px;"/><path d="m22.84863,19.45684l.23779.68066c.04004.10986.07275.20996.09766.31006h.00732c.02783-.1001.06299-.2002.10303-.31006l.23486-.68066h.23047l-.47559,1.21094h-.20996l-.46045-1.21094h.23487Z" style="fill:#777; stroke-width:0px;"/><path d="m24.62549,20.66777l-.01758-.15283h-.00781c-.06738.09521-.19775.18018-.37012.18018-.24512,0-.37061-.17236-.37061-.34766,0-.29297.26025-.45312.72852-.4502v-.02539c0-.1001-.02783-.28027-.27539-.28027-.11279,0-.23047.03516-.31543.09033l-.0498-.14502c.1001-.06543.24512-.10791.39795-.10791.37012,0,.46045.25293.46045.49561v.45312c0,.10498.00488.20752.02002.29004,0,0-.2002,0-.2002,0Zm-.03271-.61816c-.24023-.00488-.51318.0376-.51318.27295,0,.14258.09521.20996.20801.20996.15771,0,.25781-.1001.29248-.20264.00781-.02246.0127-.04736.0127-.06982,0,0,0-.21045,0-.21045Z" style="fill:#777; stroke-width:0px;"/><path d="m26.021,20.62285c-.05762.02979-.18506.06982-.34766.06982-.36523,0-.60303-.24756-.60303-.61816,0-.37256.25488-.64307.65039-.64307.13037,0,.24512.03271.30566.0625l-.05029.17041c-.05273-.03027-.13525-.05762-.25537-.05762-.27783,0-.42773.20508-.42773.45801,0,.28027.18018.45264.42041.45264.125,0,.20752-.03223.27002-.05957,0,0,.0376.16504.0376.16504Z" style="fill:#777; stroke-width:0px;"/><path d="m26.40088,19.45684l.26514.71533c.02783.08008.05762.17529.07764.24805h.00537c.02246-.07275.04736-.16553.07715-.25293l.24023-.71045h.23291l-.33057.86328c-.15723.41504-.26514.62793-.41504.75781-.10791.09521-.21533.13281-.27051.14307l-.05469-.18555c.05469-.01709.12744-.05225.19238-.10742.06006-.04736.13525-.13281.18506-.24512.01025-.02246.01758-.04004.01758-.05273,0-.01221-.00488-.02979-.01514-.05762l-.44775-1.11572s.24023,0,.24024,0Z" style="fill:#777; stroke-width:0px;"/><path d="m28.02588,19.85186c0-.15479-.00488-.28027-.00977-.39502h.19775l.00977.20752h.00488c.09033-.14795.23291-.23535.43066-.23535.29248,0,.5127.24756.5127.61572,0,.43555-.26514.65039-.55029.65039-.16016,0-.30029-.06982-.37305-.18994h-.00488v.6582h-.21777v-1.31152Zm.21777.32275c0,.03271.00488.0625.01025.09033.04004.15283.17236.25781.33008.25781.23291,0,.36768-.19043.36768-.46826,0-.24268-.12744-.4502-.36035-.4502-.1499,0-.29004.10742-.33252.27246-.00781.02783-.01514.06055-.01514.09033v.20753Z" style="fill:#777; stroke-width:0px;"/><path d="m30.54248,20.05205c0,.44824-.31055.64307-.60303.64307-.32812,0-.58057-.24023-.58057-.62305,0-.40527.26514-.64307.60059-.64307.34766,0,.58301.25293.58301.62305Zm-.96094.0127c0,.26514.15283.46533.36768.46533.21045,0,.36816-.19775.36816-.47021,0-.20557-.10254-.46582-.36328-.46582-.25977,0-.37256.24023-.37256.4707Z" style="fill:#777; stroke-width:0px;"/><path d="m30.81641,18.89092h.22021v1.77686h-.22021v-1.77686Z" style="fill:#777; stroke-width:0px;"/><path d="m31.65039,19.11602c.00293.0752-.05225.13525-.14014.13525-.07764,0-.13232-.06006-.13232-.13525,0-.07715.05762-.13721.1377-.13721.08252,0,.13477.06006.13476.13721Zm-.24512,1.55176v-1.21094h.22021v1.21094h-.22021Z" style="fill:#777; stroke-width:0px;"/><path d="m32.85254,20.62285c-.05762.02979-.18506.06982-.34766.06982-.36523,0-.60303-.24756-.60303-.61816,0-.37256.25537-.64307.65039-.64307.13037,0,.24561.03271.30518.0625l-.0498.17041c-.05273-.03027-.13525-.05762-.25537-.05762-.27783,0-.42773.20508-.42773.45801,0,.28027.18018.45264.42041.45264.125,0,.20752-.03223.27002-.05957,0,0,.0376.16504.03759.16504Z" style="fill:#777; stroke-width:0px;"/><path d="m33.23242,19.45684l.26514.71533c.02783.08008.05762.17529.07764.24805h.00488c.02295-.07275.04785-.16553.07764-.25293l.24023-.71045h.23291l-.33008.86328c-.15771.41504-.26562.62793-.41553.75781-.10791.09521-.21533.13281-.27051.14307l-.05518-.18555c.05518-.01709.12793-.05225.19287-.10742.06006-.04736.13525-.13281.18506-.24512.01025-.02246.01758-.04004.01758-.05273,0-.01221-.00488-.02979-.01465-.05762l-.44824-1.11572s.24023,0,.24024,0Z" style="fill:#777; stroke-width:0px;"/><path d="m34.17871,20.53789c0-.09277.0625-.15771.1499-.15771s.14746.06494.14746.15771c0,.08984-.05713.15723-.1499.15723-.08789,0-.14746-.06738-.14746-.15723Z" style="fill:#444; stroke-width:0px;"/><path d="m7.6626,29.46562v1.68652h-.21729v-1.68652h.21729Z" style="fill:#fff; stroke-width:0px;"/><path d="m9.60889,29.37529v1.46387c0,.10791.00244.23047.01025.31299h-.19775l-.01025-.20996h-.00488c-.06738.13477-.21484.2373-.4126.2373-.29297,0-.51807-.24756-.51807-.61523-.00244-.40332.24756-.65088.54297-.65088.18506,0,.31006.0874.36523.18506h.00488v-.72314h.22022Zm-.22021,1.05859c0-.02734-.00244-.06494-.00977-.09229-.03271-.14062-.15283-.25537-.31787-.25537-.22754,0-.36279.2002-.36279.46777,0,.24512.12012.44775.35791.44775.14746,0,.28271-.09717.32275-.2627.00732-.02979.00977-.06006.00977-.09473v-.21045.00002Z" style="fill:#fff; stroke-width:0px;"/><path d="m10.09326,30.58672c.00537.29785.19531.42041.41553.42041.15771,0,.25293-.02783.33545-.0625l.0376.15771c-.07764.03467-.21045.07471-.40332.07471-.37256,0-.59521-.24512-.59521-.61035,0-.36572.21533-.65332.56787-.65332.39551,0,.50049.34814.50049.5708,0,.04492-.00488.08008-.00732.10254h-.85109Zm.646-.15771c.00244-.14014-.05762-.35791-.30566-.35791-.22266,0-.32031.20508-.33789.35791h.64355Z" style="fill:#fff; stroke-width:0px;"/><path d="m12.08447,31.10723c-.05762.02979-.18506.06982-.34766.06982-.36523,0-.60303-.24756-.60303-.61816,0-.37256.25488-.64307.65039-.64307.13037,0,.24512.03271.30566.0625l-.05029.17041c-.05273-.03027-.13525-.05762-.25537-.05762-.27783,0-.42773.20508-.42773.45801,0,.28027.18018.45264.42041.45264.125,0,.20752-.03223.27002-.05957,0,0,.0376.16504.0376.16504Z" style="fill:#fff; stroke-width:0px;"/><path d="m12.33936,29.37529h.22021v1.77686h-.22021v-1.77686Z" style="fill:#fff; stroke-width:0px;"/><path d="m13.17383,29.60039c.00293.0752-.05225.13525-.14014.13525-.07764,0-.13232-.06006-.13232-.13525,0-.07715.05762-.13721.1377-.13721.08252,0,.13477.06006.13477.13721h-.00001Zm-.24512,1.55176v-1.21094h.22021v1.21094h-.22021Z" style="fill:#fff; stroke-width:0px;"/><path d="m13.5127,30.26885c0-.125-.00244-.22803-.00977-.32764h.19482l.0127.2002h.00488c.06006-.11523.2002-.22803.40039-.22803.16797,0,.42822.1001.42822.51562v.72314h-.22021v-.69824c0-.19531-.07275-.35791-.28027-.35791-.14551,0-.25781.10254-.29541.2251-.01025.02783-.01514.06543-.01514.10303v.72803h-.22021s0-.8833,0-.8833Z" style="fill:#fff; stroke-width:0px;"/><path d="m15.02051,30.58672c.00488.29785.19531.42041.41553.42041.15771,0,.25293-.02783.33545-.0625l.0376.15771c-.07764.03467-.21045.07471-.40283.07471-.37305,0-.5957-.24512-.5957-.61035,0-.36572.21484-.65332.56787-.65332.39551,0,.50049.34814.50049.5708,0,.04492-.00488.08008-.00732.10254h-.85109Zm.64551-.15771c.00293-.14014-.05713-.35791-.30518-.35791-.22266,0-.32031.20508-.33789.35791,0,0,.64307,0,.64307,0Z" style="fill:#fff; stroke-width:0px;"/><path d="m25.93262,31.18145l-.01758-.15283h-.00781c-.06738.09521-.19727.18018-.37012.18018-.24512,0-.37061-.17236-.37061-.34766,0-.29297.26025-.45312.72852-.4502v-.02539c0-.1001-.02783-.28027-.27539-.28027-.11279,0-.22998.03516-.31543.09033l-.0498-.14502c.1001-.06543.24512-.10791.39795-.10791.37012,0,.46045.25293.46045.49561v.45312c0,.10498.00488.20752.02002.29004,0,0-.2002,0-.2002,0Zm-.03271-.61816c-.24023-.00488-.51318.0376-.51318.27295,0,.14258.09521.20996.20801.20996.15771,0,.25781-.1001.29248-.20264.00781-.02246.0127-.04736.0127-.06982,0,0,0-.21045,0-.21045Z" style="fill:#fff; stroke-width:0px;"/><path d="m27.32812,31.13652c-.05762.02979-.18506.06982-.34766.06982-.36523,0-.60303-.24756-.60303-.61816,0-.37256.25537-.64307.65039-.64307.13037,0,.24561.03271.30518.0625l-.0498.17041c-.05273-.03027-.13525-.05762-.25537-.05762-.27783,0-.42773.20508-.42773.45801,0,.28027.18018.45264.42041.45264.125,0,.20752-.03223.27002-.05957,0,0,.0376.16504.03759.16504Z" style="fill:#fff; stroke-width:0px;"/><path d="m28.43115,31.13652c-.05762.02979-.18506.06982-.34766.06982-.36523,0-.60303-.24756-.60303-.61816,0-.37256.25488-.64307.65039-.64307.13037,0,.24512.03271.30566.0625l-.05029.17041c-.05273-.03027-.13525-.05762-.25537-.05762-.27783,0-.42773.20508-.42773.45801,0,.28027.18018.45264.42041.45264.125,0,.20752-.03223.27002-.05957,0,0,.0376.16504.0376.16504Z" style="fill:#fff; stroke-width:0px;"/><path d="m28.79395,30.61602c.00488.29785.19531.42041.41553.42041.15771,0,.25293-.02783.33545-.0625l.0376.15771c-.07764.03467-.21045.07471-.40283.07471-.37305,0-.5957-.24512-.5957-.61035,0-.36572.21484-.65332.56787-.65332.39551,0,.50049.34814.50049.5708,0,.04492-.00488.08008-.00732.10254h-.85109Zm.64551-.15771c.00293-.14014-.05713-.35791-.30518-.35791-.22266,0-.32031.20508-.33789.35791h.64307Z" style="fill:#fff; stroke-width:0px;"/><path d="m29.92187,30.36553c0-.15479-.00488-.28027-.00977-.39502h.19727l.01025.20752h.00488c.09033-.14795.23291-.23535.43066-.23535.29248,0,.5127.24756.5127.61572,0,.43555-.26514.65039-.55029.65039-.16016,0-.30029-.06982-.37305-.18994h-.00488v.6582h-.21777v-1.31152Zm.21777.32275c0,.03271.00488.0625.00977.09033.04004.15283.17285.25781.33057.25781.23291,0,.36768-.19043.36768-.46826,0-.24268-.12744-.4502-.36035-.4502-.1499,0-.29004.10742-.33252.27246-.00781.02783-.01514.06055-.01514.09033,0,0,0,.20752,0,.20753Z" style="fill:#fff; stroke-width:0px;"/><path d="m31.60693,29.62236v.34814h.31543v.16748h-.31543v.65283c0,.15039.04248.23535.16553.23535.05762,0,.1001-.00732.12744-.01465l.01025.16504c-.04297.01758-.11035.02979-.19531.02979-.10254,0-.18555-.03223-.23779-.09229-.0625-.06543-.08496-.17285-.08496-.31543v-.66064h-.18799v-.16748h.18799v-.29053s.21484-.05762.21484-.05761Z" style="fill:#fff; stroke-width:0px;"/><path d="m32.66748,30.95635c.06494.04248.18018.0874.29004.0874.16016,0,.23535-.08008.23535-.18018,0-.10498-.0625-.1626-.2251-.22266-.21777-.07764-.32031-.19775-.32031-.34277,0-.19531.15723-.35547.41797-.35547.12256,0,.22998.03516.29736.0752l-.05469.16016c-.04785-.03027-.13525-.07031-.24805-.07031-.12988,0-.20264.0752-.20264.16553,0,.1001.07275.14502.23047.20508.20996.08008.31738.18506.31738.36523,0,.21289-.16504.36279-.45264.36279-.13281,0-.25537-.03223-.34033-.08252l.05518-.16748h.00002Z" style="fill:#fff; stroke-width:0px;"/><path d="m33.80811,30.61602c.00537.29785.19531.42041.41553.42041.15771,0,.25293-.02783.33545-.0625l.0376.15771c-.07764.03467-.21045.07471-.40332.07471-.37256,0-.59521-.24512-.59521-.61035,0-.36572.21533-.65332.56787-.65332.39551,0,.50049.34814.50049.5708,0,.04492-.00488.08008-.00732.10254h-.85109Zm.646-.15771c.00244-.14014-.05762-.35791-.30566-.35791-.22266,0-.32031.20508-.33789.35791h.64355Z" style="fill:#fff; stroke-width:0px;"/><path d="m34.93604,29.40459h.22021v1.77686h-.22021v-1.77686Z" style="fill:#fff; stroke-width:0px;"/><path d="m35.64746,30.61602c.00488.29785.19531.42041.41553.42041.15771,0,.25293-.02783.33545-.0625l.0376.15771c-.07764.03467-.21045.07471-.40283.07471-.37305,0-.5957-.24512-.5957-.61035,0-.36572.21484-.65332.56787-.65332.39551,0,.50049.34814.50049.5708,0,.04492-.00488.08008-.00732.10254h-.85109Zm.64551-.15771c.00293-.14014-.05713-.35791-.30518-.35791-.22266,0-.32031.20508-.33789.35791h.64307Z" style="fill:#fff; stroke-width:0px;"/><path d="m37.63867,31.13652c-.05762.02979-.18506.06982-.34766.06982-.36523,0-.60303-.24756-.60303-.61816,0-.37256.25537-.64307.65039-.64307.13037,0,.24561.03271.30518.0625l-.0498.17041c-.05273-.03027-.13525-.05762-.25537-.05762-.27783,0-.42773.20508-.42773.45801,0,.28027.18018.45264.42041.45264.125,0,.20752-.03223.27002-.05957,0,0,.0376.16504.03759.16504Z" style="fill:#fff; stroke-width:0px;"/><path d="m38.19141,29.62236v.34814h.31543v.16748h-.31543v.65283c0,.15039.04297.23535.16553.23535.05713,0,.1001-.00732.12744-.01465l.00977.16504c-.04248.01758-.10986.02979-.19482.02979-.10254,0-.18506-.03223-.23779-.09229-.0625-.06543-.08496-.17285-.08496-.31543v-.66064h-.18799v-.16748h.18799v-.29053l.21484-.05762h-.00001Z" style="fill:#fff; stroke-width:0px;"/><path d="m38.69238,31.05156c0-.09277.0625-.15771.1499-.15771s.14746.06494.14746.15771c0,.08984-.05713.15723-.1499.15723-.08789,0-.14746-.06738-.14746-.15723Z" style="fill:#fff; stroke-width:0px;"/><path d="m48.63379,31.15215l-.01758-.15283h-.00781c-.06738.09521-.19727.18018-.37012.18018-.24512,0-.37012-.17236-.37012-.34766,0-.29297.25977-.45312.72754-.4502v-.02539c0-.1001-.02734-.28027-.27539-.28027-.1123,0-.22949.03516-.31445.09033l-.05078-.14502c.10059-.06543.24609-.10791.39844-.10791.37012,0,.45996.25293.45996.49561v.45312c0,.10498.00488.20752.02051.29004,0,0-.2002,0-.2002,0Zm-.03223-.61816c-.24023-.00488-.51367.0376-.51367.27295,0,.14258.0957.20996.20801.20996.15723,0,.25781-.1001.29297-.20264.00684-.02246.0127-.04736.0127-.06982,0,0,0-.21045,0-.21045Z" style="fill:#fff; stroke-width:0px;"/><path d="m50.0293,31.10723c-.05762.02979-.18555.06982-.34766.06982-.36523,0-.60352-.24756-.60352-.61816,0-.37256.25586-.64307.65137-.64307.12988,0,.24512.03271.30469.0625l-.0498.17041c-.05273-.03027-.13477-.05762-.25488-.05762-.27832,0-.42871.20508-.42871.45801,0,.28027.18066.45264.4209.45264.125,0,.20801-.03223.27051-.05957l.03711.16504h-.00001Z" style="fill:#fff; stroke-width:0px;"/><path d="m51.13281,31.10723c-.05762.02979-.18555.06982-.34766.06982-.36523,0-.60352-.24756-.60352-.61816,0-.37256.25586-.64307.65137-.64307.12988,0,.24512.03271.30469.0625l-.0498.17041c-.05273-.03027-.13477-.05762-.25488-.05762-.27832,0-.42871.20508-.42871.45801,0,.28027.18066.45264.4209.45264.125,0,.20801-.03223.27051-.05957l.03711.16504h-.00001Z" style="fill:#fff; stroke-width:0px;"/><path d="m51.49512,30.58672c.00488.29785.19434.42041.41504.42041.15723,0,.25293-.02783.33496-.0625l.03809.15771c-.07812.03467-.20996.07471-.40332.07471-.37305,0-.5957-.24512-.5957-.61035,0-.36572.21582-.65332.56836-.65332.39551,0,.50098.34814.50098.5708,0,.04492-.00586.08008-.00781.10254h-.8506Zm.64551-.15771c.00195-.14014-.05762-.35791-.30566-.35791-.22266,0-.32031.20508-.33789.35791h.64355Z" style="fill:#fff; stroke-width:0px;"/><path d="m52.62305,30.33623c0-.15479-.00488-.28027-.00977-.39502h.19727l.00977.20752h.00586c.08984-.14795.23242-.23535.42969-.23535.29297,0,.51367.24756.51367.61572,0,.43555-.26562.65039-.55078.65039-.16016,0-.30078-.06982-.37305-.18994h-.00488v.6582h-.21777v-1.31152h-.00001Zm.21777.32275c0,.03271.00488.0625.00977.09033.04004.15283.17285.25781.33105.25781.23242,0,.36719-.19043.36719-.46826,0-.24268-.12695-.4502-.36035-.4502-.15039,0-.29004.10742-.33301.27246-.00684.02783-.01465.06055-.01465.09033v.20753Z" style="fill:#fff; stroke-width:0px;"/><path d="m54.30859,29.59307v.34814h.31543v.16748h-.31543v.65283c0,.15039.04199.23535.16504.23535.05762,0,.09961-.00732.12793-.01465l.00977.16504c-.04297.01758-.11035.02979-.19531.02979-.10254,0-.18555-.03223-.23828-.09229-.0625-.06543-.08496-.17285-.08496-.31543v-.66064h-.1875v-.16748h.1875v-.29053s.21582-.05762.21581-.05761Z" style="fill:#fff; stroke-width:0px;"/><path d="m56.06934,31.15215l-.01758-.15283h-.00781c-.06738.09521-.19727.18018-.37012.18018-.24512,0-.37012-.17236-.37012-.34766,0-.29297.25977-.45312.72754-.4502v-.02539c0-.1001-.02734-.28027-.27539-.28027-.1123,0-.22949.03516-.31445.09033l-.05078-.14502c.10059-.06543.24609-.10791.39844-.10791.37012,0,.45996.25293.45996.49561v.45312c0,.10498.00488.20752.02051.29004,0,0-.2002,0-.2002,0Zm-.03223-.61816c-.24023-.00488-.51367.0376-.51367.27295,0,.14258.0957.20996.20801.20996.15723,0,.25781-.1001.29297-.20264.00684-.02246.0127-.04736.0127-.06982,0,0,0-.21045,0-.21045Z" style="fill:#fff; stroke-width:0px;"/><path d="m56.60156,29.37529h.2207v1.77686h-.2207v-1.77686Z" style="fill:#fff; stroke-width:0px;"/><path d="m57.19043,29.37529h.2207v1.77686h-.2207v-1.77686Z" style="fill:#fff; stroke-width:0px;"/></svg>